%TF.GenerationSoftware,KiCad,Pcbnew,(5.1.6)-1*%
%TF.CreationDate,2020-11-27T01:24:45-08:00*%
%TF.ProjectId,rc-rom,72632d72-6f6d-42e6-9b69-6361645f7063,rev?*%
%TF.SameCoordinates,PX9157080PY9071968*%
%TF.FileFunction,Legend,Top*%
%TF.FilePolarity,Positive*%
%FSLAX46Y46*%
G04 Gerber Fmt 4.6, Leading zero omitted, Abs format (unit mm)*
G04 Created by KiCad (PCBNEW (5.1.6)-1) date 2020-11-27 01:24:45*
%MOMM*%
%LPD*%
G01*
G04 APERTURE LIST*
%ADD10C,0.300000*%
%ADD11C,0.150000*%
%ADD12C,0.200000*%
%ADD13C,0.120000*%
%ADD14C,0.100000*%
G04 APERTURE END LIST*
D10*
X17268571Y46646629D02*
X16768571Y47360915D01*
X16411428Y46646629D02*
X16411428Y48146629D01*
X16982857Y48146629D01*
X17125714Y48075200D01*
X17197142Y48003772D01*
X17268571Y47860915D01*
X17268571Y47646629D01*
X17197142Y47503772D01*
X17125714Y47432343D01*
X16982857Y47360915D01*
X16411428Y47360915D01*
X18197142Y48146629D02*
X18482857Y48146629D01*
X18625714Y48075200D01*
X18768571Y47932343D01*
X18840000Y47646629D01*
X18840000Y47146629D01*
X18768571Y46860915D01*
X18625714Y46718058D01*
X18482857Y46646629D01*
X18197142Y46646629D01*
X18054285Y46718058D01*
X17911428Y46860915D01*
X17840000Y47146629D01*
X17840000Y47646629D01*
X17911428Y47932343D01*
X18054285Y48075200D01*
X18197142Y48146629D01*
X19482857Y46646629D02*
X19482857Y48146629D01*
X19982857Y47075200D01*
X20482857Y48146629D01*
X20482857Y46646629D01*
X23197142Y46789486D02*
X23125714Y46718058D01*
X22911428Y46646629D01*
X22768571Y46646629D01*
X22554285Y46718058D01*
X22411428Y46860915D01*
X22340000Y47003772D01*
X22268571Y47289486D01*
X22268571Y47503772D01*
X22340000Y47789486D01*
X22411428Y47932343D01*
X22554285Y48075200D01*
X22768571Y48146629D01*
X22911428Y48146629D01*
X23125714Y48075200D01*
X23197142Y48003772D01*
X24482857Y46646629D02*
X24482857Y47432343D01*
X24411428Y47575200D01*
X24268571Y47646629D01*
X23982857Y47646629D01*
X23840000Y47575200D01*
X24482857Y46718058D02*
X24340000Y46646629D01*
X23982857Y46646629D01*
X23840000Y46718058D01*
X23768571Y46860915D01*
X23768571Y47003772D01*
X23840000Y47146629D01*
X23982857Y47218058D01*
X24340000Y47218058D01*
X24482857Y47289486D01*
X25197142Y46646629D02*
X25197142Y47646629D01*
X25197142Y47360915D02*
X25268571Y47503772D01*
X25340000Y47575200D01*
X25482857Y47646629D01*
X25625714Y47646629D01*
X26768571Y46646629D02*
X26768571Y48146629D01*
X26768571Y46718058D02*
X26625714Y46646629D01*
X26340000Y46646629D01*
X26197142Y46718058D01*
X26125714Y46789486D01*
X26054285Y46932343D01*
X26054285Y47360915D01*
X26125714Y47503772D01*
X26197142Y47575200D01*
X26340000Y47646629D01*
X26625714Y47646629D01*
X26768571Y47575200D01*
X15375714Y44096629D02*
X15375714Y45596629D01*
X15947142Y45596629D01*
X16090000Y45525200D01*
X16161428Y45453772D01*
X16232857Y45310915D01*
X16232857Y45096629D01*
X16161428Y44953772D01*
X16090000Y44882343D01*
X15947142Y44810915D01*
X15375714Y44810915D01*
X16875714Y44096629D02*
X16875714Y45596629D01*
X17232857Y45596629D01*
X17447142Y45525200D01*
X17590000Y45382343D01*
X17661428Y45239486D01*
X17732857Y44953772D01*
X17732857Y44739486D01*
X17661428Y44453772D01*
X17590000Y44310915D01*
X17447142Y44168058D01*
X17232857Y44096629D01*
X16875714Y44096629D01*
X19161428Y44096629D02*
X18304285Y44096629D01*
X18732857Y44096629D02*
X18732857Y45596629D01*
X18590000Y45382343D01*
X18447142Y45239486D01*
X18304285Y45168058D01*
X20090000Y45596629D02*
X20232857Y45596629D01*
X20375714Y45525200D01*
X20447142Y45453772D01*
X20518571Y45310915D01*
X20590000Y45025200D01*
X20590000Y44668058D01*
X20518571Y44382343D01*
X20447142Y44239486D01*
X20375714Y44168058D01*
X20232857Y44096629D01*
X20090000Y44096629D01*
X19947142Y44168058D01*
X19875714Y44239486D01*
X19804285Y44382343D01*
X19732857Y44668058D01*
X19732857Y45025200D01*
X19804285Y45310915D01*
X19875714Y45453772D01*
X19947142Y45525200D01*
X20090000Y45596629D01*
X21875714Y45096629D02*
X21875714Y44096629D01*
X21518571Y45668058D02*
X21161428Y44596629D01*
X22090000Y44596629D01*
X23661428Y45096629D02*
X24018571Y44096629D01*
X24375714Y45096629D01*
X25232857Y45596629D02*
X25375714Y45596629D01*
X25518571Y45525200D01*
X25590000Y45453772D01*
X25661428Y45310915D01*
X25732857Y45025200D01*
X25732857Y44668058D01*
X25661428Y44382343D01*
X25590000Y44239486D01*
X25518571Y44168058D01*
X25375714Y44096629D01*
X25232857Y44096629D01*
X25090000Y44168058D01*
X25018571Y44239486D01*
X24947142Y44382343D01*
X24875714Y44668058D01*
X24875714Y45025200D01*
X24947142Y45310915D01*
X25018571Y45453772D01*
X25090000Y45525200D01*
X25232857Y45596629D01*
X26375714Y44239486D02*
X26447142Y44168058D01*
X26375714Y44096629D01*
X26304285Y44168058D01*
X26375714Y44239486D01*
X26375714Y44096629D01*
X27161428Y44096629D02*
X27447142Y44096629D01*
X27590000Y44168058D01*
X27661428Y44239486D01*
X27804285Y44453772D01*
X27875714Y44739486D01*
X27875714Y45310915D01*
X27804285Y45453772D01*
X27732857Y45525200D01*
X27590000Y45596629D01*
X27304285Y45596629D01*
X27161428Y45525200D01*
X27090000Y45453772D01*
X27018571Y45310915D01*
X27018571Y44953772D01*
X27090000Y44810915D01*
X27161428Y44739486D01*
X27304285Y44668058D01*
X27590000Y44668058D01*
X27732857Y44739486D01*
X27804285Y44810915D01*
X27875714Y44953772D01*
D11*
X7516904Y40517820D02*
X7516904Y41517820D01*
X7516904Y41136867D02*
X7612142Y41184486D01*
X7802619Y41184486D01*
X7897857Y41136867D01*
X7945476Y41089248D01*
X7993095Y40994010D01*
X7993095Y40708296D01*
X7945476Y40613058D01*
X7897857Y40565439D01*
X7802619Y40517820D01*
X7612142Y40517820D01*
X7516904Y40565439D01*
X8421666Y40517820D02*
X8421666Y41184486D01*
X8421666Y41517820D02*
X8374047Y41470200D01*
X8421666Y41422581D01*
X8469285Y41470200D01*
X8421666Y41517820D01*
X8421666Y41422581D01*
X8755000Y41184486D02*
X9135952Y41184486D01*
X8897857Y41517820D02*
X8897857Y40660677D01*
X8945476Y40565439D01*
X9040714Y40517820D01*
X9135952Y40517820D01*
X16319523Y40517820D02*
X15748095Y40517820D01*
X16033809Y40517820D02*
X16033809Y41517820D01*
X15938571Y41374962D01*
X15843333Y41279724D01*
X15748095Y41232105D01*
X16652857Y41517820D02*
X17271904Y41517820D01*
X16938571Y41136867D01*
X17081428Y41136867D01*
X17176666Y41089248D01*
X17224285Y41041629D01*
X17271904Y40946391D01*
X17271904Y40708296D01*
X17224285Y40613058D01*
X17176666Y40565439D01*
X17081428Y40517820D01*
X16795714Y40517820D01*
X16700476Y40565439D01*
X16652857Y40613058D01*
X13779523Y40517820D02*
X13208095Y40517820D01*
X13493809Y40517820D02*
X13493809Y41517820D01*
X13398571Y41374962D01*
X13303333Y41279724D01*
X13208095Y41232105D01*
X14636666Y41184486D02*
X14636666Y40517820D01*
X14398571Y41565439D02*
X14160476Y40851153D01*
X14779523Y40851153D01*
X11239523Y40517820D02*
X10668095Y40517820D01*
X10953809Y40517820D02*
X10953809Y41517820D01*
X10858571Y41374962D01*
X10763333Y41279724D01*
X10668095Y41232105D01*
X12144285Y41517820D02*
X11668095Y41517820D01*
X11620476Y41041629D01*
X11668095Y41089248D01*
X11763333Y41136867D01*
X12001428Y41136867D01*
X12096666Y41089248D01*
X12144285Y41041629D01*
X12191904Y40946391D01*
X12191904Y40708296D01*
X12144285Y40613058D01*
X12096666Y40565439D01*
X12001428Y40517820D01*
X11763333Y40517820D01*
X11668095Y40565439D01*
X11620476Y40613058D01*
X9755714Y42422820D02*
X9755714Y43422820D01*
X10136666Y43422820D01*
X10231904Y43375200D01*
X10279523Y43327581D01*
X10327142Y43232343D01*
X10327142Y43089486D01*
X10279523Y42994248D01*
X10231904Y42946629D01*
X10136666Y42899010D01*
X9755714Y42899010D01*
X11184285Y42422820D02*
X11184285Y42946629D01*
X11136666Y43041867D01*
X11041428Y43089486D01*
X10850952Y43089486D01*
X10755714Y43041867D01*
X11184285Y42470439D02*
X11089047Y42422820D01*
X10850952Y42422820D01*
X10755714Y42470439D01*
X10708095Y42565677D01*
X10708095Y42660915D01*
X10755714Y42756153D01*
X10850952Y42803772D01*
X11089047Y42803772D01*
X11184285Y42851391D01*
X12089047Y43089486D02*
X12089047Y42279962D01*
X12041428Y42184724D01*
X11993809Y42137105D01*
X11898571Y42089486D01*
X11755714Y42089486D01*
X11660476Y42137105D01*
X12089047Y42470439D02*
X11993809Y42422820D01*
X11803333Y42422820D01*
X11708095Y42470439D01*
X11660476Y42518058D01*
X11612857Y42613296D01*
X11612857Y42899010D01*
X11660476Y42994248D01*
X11708095Y43041867D01*
X11803333Y43089486D01*
X11993809Y43089486D01*
X12089047Y43041867D01*
X12946190Y42470439D02*
X12850952Y42422820D01*
X12660476Y42422820D01*
X12565238Y42470439D01*
X12517619Y42565677D01*
X12517619Y42946629D01*
X12565238Y43041867D01*
X12660476Y43089486D01*
X12850952Y43089486D01*
X12946190Y43041867D01*
X12993809Y42946629D01*
X12993809Y42851391D01*
X12517619Y42756153D01*
X14136666Y42470439D02*
X14231904Y42422820D01*
X14422380Y42422820D01*
X14517619Y42470439D01*
X14565238Y42565677D01*
X14565238Y42613296D01*
X14517619Y42708534D01*
X14422380Y42756153D01*
X14279523Y42756153D01*
X14184285Y42803772D01*
X14136666Y42899010D01*
X14136666Y42946629D01*
X14184285Y43041867D01*
X14279523Y43089486D01*
X14422380Y43089486D01*
X14517619Y43041867D01*
X15374761Y42470439D02*
X15279523Y42422820D01*
X15089047Y42422820D01*
X14993809Y42470439D01*
X14946190Y42565677D01*
X14946190Y42946629D01*
X14993809Y43041867D01*
X15089047Y43089486D01*
X15279523Y43089486D01*
X15374761Y43041867D01*
X15422380Y42946629D01*
X15422380Y42851391D01*
X14946190Y42756153D01*
X15993809Y42422820D02*
X15898571Y42470439D01*
X15850952Y42565677D01*
X15850952Y43422820D01*
X16755714Y42470439D02*
X16660476Y42422820D01*
X16470000Y42422820D01*
X16374761Y42470439D01*
X16327142Y42565677D01*
X16327142Y42946629D01*
X16374761Y43041867D01*
X16470000Y43089486D01*
X16660476Y43089486D01*
X16755714Y43041867D01*
X16803333Y42946629D01*
X16803333Y42851391D01*
X16327142Y42756153D01*
X17660476Y42470439D02*
X17565238Y42422820D01*
X17374761Y42422820D01*
X17279523Y42470439D01*
X17231904Y42518058D01*
X17184285Y42613296D01*
X17184285Y42899010D01*
X17231904Y42994248D01*
X17279523Y43041867D01*
X17374761Y43089486D01*
X17565238Y43089486D01*
X17660476Y43041867D01*
X17946190Y43089486D02*
X18327142Y43089486D01*
X18089047Y43422820D02*
X18089047Y42565677D01*
X18136666Y42470439D01*
X18231904Y42422820D01*
X18327142Y42422820D01*
X9247619Y20197820D02*
X9247619Y21197820D01*
X9628571Y21197820D01*
X9723809Y21150200D01*
X9771428Y21102581D01*
X9819047Y21007343D01*
X9819047Y20864486D01*
X9771428Y20769248D01*
X9723809Y20721629D01*
X9628571Y20674010D01*
X9247619Y20674010D01*
X10676190Y20197820D02*
X10676190Y20721629D01*
X10628571Y20816867D01*
X10533333Y20864486D01*
X10342857Y20864486D01*
X10247619Y20816867D01*
X10676190Y20245439D02*
X10580952Y20197820D01*
X10342857Y20197820D01*
X10247619Y20245439D01*
X10200000Y20340677D01*
X10200000Y20435915D01*
X10247619Y20531153D01*
X10342857Y20578772D01*
X10580952Y20578772D01*
X10676190Y20626391D01*
X11580952Y20864486D02*
X11580952Y20054962D01*
X11533333Y19959724D01*
X11485714Y19912105D01*
X11390476Y19864486D01*
X11247619Y19864486D01*
X11152380Y19912105D01*
X11580952Y20245439D02*
X11485714Y20197820D01*
X11295238Y20197820D01*
X11200000Y20245439D01*
X11152380Y20293058D01*
X11104761Y20388296D01*
X11104761Y20674010D01*
X11152380Y20769248D01*
X11200000Y20816867D01*
X11295238Y20864486D01*
X11485714Y20864486D01*
X11580952Y20816867D01*
X12438095Y20245439D02*
X12342857Y20197820D01*
X12152380Y20197820D01*
X12057142Y20245439D01*
X12009523Y20340677D01*
X12009523Y20721629D01*
X12057142Y20816867D01*
X12152380Y20864486D01*
X12342857Y20864486D01*
X12438095Y20816867D01*
X12485714Y20721629D01*
X12485714Y20626391D01*
X12009523Y20531153D01*
X13628571Y20245439D02*
X13723809Y20197820D01*
X13914285Y20197820D01*
X14009523Y20245439D01*
X14057142Y20340677D01*
X14057142Y20388296D01*
X14009523Y20483534D01*
X13914285Y20531153D01*
X13771428Y20531153D01*
X13676190Y20578772D01*
X13628571Y20674010D01*
X13628571Y20721629D01*
X13676190Y20816867D01*
X13771428Y20864486D01*
X13914285Y20864486D01*
X14009523Y20816867D01*
X14485714Y20197820D02*
X14485714Y20864486D01*
X14485714Y21197820D02*
X14438095Y21150200D01*
X14485714Y21102581D01*
X14533333Y21150200D01*
X14485714Y21197820D01*
X14485714Y21102581D01*
X14866666Y20864486D02*
X15390476Y20864486D01*
X14866666Y20197820D01*
X15390476Y20197820D01*
X16152380Y20245439D02*
X16057142Y20197820D01*
X15866666Y20197820D01*
X15771428Y20245439D01*
X15723809Y20340677D01*
X15723809Y20721629D01*
X15771428Y20816867D01*
X15866666Y20864486D01*
X16057142Y20864486D01*
X16152380Y20816867D01*
X16200000Y20721629D01*
X16200000Y20626391D01*
X15723809Y20531153D01*
D10*
X8818571Y34806629D02*
X8961428Y34806629D01*
X9104285Y34735200D01*
X9175714Y34663772D01*
X9247142Y34520915D01*
X9318571Y34235200D01*
X9318571Y33878058D01*
X9247142Y33592343D01*
X9175714Y33449486D01*
X9104285Y33378058D01*
X8961428Y33306629D01*
X8818571Y33306629D01*
X8675714Y33378058D01*
X8604285Y33449486D01*
X8532857Y33592343D01*
X8461428Y33878058D01*
X8461428Y34235200D01*
X8532857Y34520915D01*
X8604285Y34663772D01*
X8675714Y34735200D01*
X8818571Y34806629D01*
X9318571Y37116629D02*
X8461428Y37116629D01*
X8890000Y37116629D02*
X8890000Y38616629D01*
X8747142Y38402343D01*
X8604285Y38259486D01*
X8461428Y38188058D01*
X54031428Y35441629D02*
X54031428Y34370200D01*
X53960000Y34155915D01*
X53817142Y34013058D01*
X53602857Y33941629D01*
X53460000Y33941629D01*
X55460000Y33941629D02*
X54745714Y33941629D01*
X54745714Y35441629D01*
X56817142Y34084486D02*
X56745714Y34013058D01*
X56531428Y33941629D01*
X56388571Y33941629D01*
X56174285Y34013058D01*
X56031428Y34155915D01*
X55960000Y34298772D01*
X55888571Y34584486D01*
X55888571Y34798772D01*
X55960000Y35084486D01*
X56031428Y35227343D01*
X56174285Y35370200D01*
X56388571Y35441629D01*
X56531428Y35441629D01*
X56745714Y35370200D01*
X56817142Y35298772D01*
X57888571Y35441629D02*
X57888571Y34370200D01*
X57817142Y34155915D01*
X57674285Y34013058D01*
X57460000Y33941629D01*
X57317142Y33941629D01*
X59317142Y33941629D02*
X58602857Y33941629D01*
X58602857Y35441629D01*
X60674285Y34084486D02*
X60602857Y34013058D01*
X60388571Y33941629D01*
X60245714Y33941629D01*
X60031428Y34013058D01*
X59888571Y34155915D01*
X59817142Y34298772D01*
X59745714Y34584486D01*
X59745714Y34798772D01*
X59817142Y35084486D01*
X59888571Y35227343D01*
X60031428Y35370200D01*
X60245714Y35441629D01*
X60388571Y35441629D01*
X60602857Y35370200D01*
X60674285Y35298772D01*
X61745714Y35441629D02*
X61745714Y34370200D01*
X61674285Y34155915D01*
X61531428Y34013058D01*
X61317142Y33941629D01*
X61174285Y33941629D01*
X63174285Y33941629D02*
X62460000Y33941629D01*
X62460000Y35441629D01*
X64531428Y34084486D02*
X64460000Y34013058D01*
X64245714Y33941629D01*
X64102857Y33941629D01*
X63888571Y34013058D01*
X63745714Y34155915D01*
X63674285Y34298772D01*
X63602857Y34584486D01*
X63602857Y34798772D01*
X63674285Y35084486D01*
X63745714Y35227343D01*
X63888571Y35370200D01*
X64102857Y35441629D01*
X64245714Y35441629D01*
X64460000Y35370200D01*
X64531428Y35298772D01*
X65602857Y35441629D02*
X65602857Y34370200D01*
X65531428Y34155915D01*
X65388571Y34013058D01*
X65174285Y33941629D01*
X65031428Y33941629D01*
X67031428Y33941629D02*
X66317142Y33941629D01*
X66317142Y35441629D01*
X68388571Y34084486D02*
X68317142Y34013058D01*
X68102857Y33941629D01*
X67960000Y33941629D01*
X67745714Y34013058D01*
X67602857Y34155915D01*
X67531428Y34298772D01*
X67460000Y34584486D01*
X67460000Y34798772D01*
X67531428Y35084486D01*
X67602857Y35227343D01*
X67745714Y35370200D01*
X67960000Y35441629D01*
X68102857Y35441629D01*
X68317142Y35370200D01*
X68388571Y35298772D01*
X1613333Y-4991942D02*
X1613333Y-4277657D01*
X2039047Y-5134800D02*
X549047Y-4634800D01*
X2039047Y-4134800D01*
X2039047Y-2849085D02*
X2039047Y-3706228D01*
X2039047Y-3277657D02*
X549047Y-3277657D01*
X761904Y-3420514D01*
X903809Y-3563371D01*
X974761Y-3706228D01*
X549047Y-1491942D02*
X549047Y-2206228D01*
X1258571Y-2277657D01*
X1187619Y-2206228D01*
X1116666Y-2063371D01*
X1116666Y-1706228D01*
X1187619Y-1563371D01*
X1258571Y-1491942D01*
X1400476Y-1420514D01*
X1755238Y-1420514D01*
X1897142Y-1491942D01*
X1968095Y-1563371D01*
X2039047Y-1706228D01*
X2039047Y-2063371D01*
X1968095Y-2206228D01*
X1897142Y-2277657D01*
X4148333Y-4991942D02*
X4148333Y-4277657D01*
X4574047Y-5134800D02*
X3084047Y-4634800D01*
X4574047Y-4134800D01*
X4574047Y-2849085D02*
X4574047Y-3706228D01*
X4574047Y-3277657D02*
X3084047Y-3277657D01*
X3296904Y-3420514D01*
X3438809Y-3563371D01*
X3509761Y-3706228D01*
X3580714Y-1563371D02*
X4574047Y-1563371D01*
X3013095Y-1920514D02*
X4077380Y-2277657D01*
X4077380Y-1349085D01*
X6683333Y-4991942D02*
X6683333Y-4277657D01*
X7109047Y-5134800D02*
X5619047Y-4634800D01*
X7109047Y-4134800D01*
X7109047Y-2849085D02*
X7109047Y-3706228D01*
X7109047Y-3277657D02*
X5619047Y-3277657D01*
X5831904Y-3420514D01*
X5973809Y-3563371D01*
X6044761Y-3706228D01*
X5619047Y-2349085D02*
X5619047Y-1420514D01*
X6186666Y-1920514D01*
X6186666Y-1706228D01*
X6257619Y-1563371D01*
X6328571Y-1491942D01*
X6470476Y-1420514D01*
X6825238Y-1420514D01*
X6967142Y-1491942D01*
X7038095Y-1563371D01*
X7109047Y-1706228D01*
X7109047Y-2134800D01*
X7038095Y-2277657D01*
X6967142Y-2349085D01*
X9218333Y-4991942D02*
X9218333Y-4277657D01*
X9644047Y-5134800D02*
X8154047Y-4634800D01*
X9644047Y-4134800D01*
X9644047Y-2849085D02*
X9644047Y-3706228D01*
X9644047Y-3277657D02*
X8154047Y-3277657D01*
X8366904Y-3420514D01*
X8508809Y-3563371D01*
X8579761Y-3706228D01*
X8295952Y-2277657D02*
X8225000Y-2206228D01*
X8154047Y-2063371D01*
X8154047Y-1706228D01*
X8225000Y-1563371D01*
X8295952Y-1491942D01*
X8437857Y-1420514D01*
X8579761Y-1420514D01*
X8792619Y-1491942D01*
X9644047Y-2349085D01*
X9644047Y-1420514D01*
X11753333Y-4991942D02*
X11753333Y-4277657D01*
X12179047Y-5134800D02*
X10689047Y-4634800D01*
X12179047Y-4134800D01*
X12179047Y-2849085D02*
X12179047Y-3706228D01*
X12179047Y-3277657D02*
X10689047Y-3277657D01*
X10901904Y-3420514D01*
X11043809Y-3563371D01*
X11114761Y-3706228D01*
X12179047Y-1420514D02*
X12179047Y-2277657D01*
X12179047Y-1849085D02*
X10689047Y-1849085D01*
X10901904Y-1991942D01*
X11043809Y-2134800D01*
X11114761Y-2277657D01*
X14288333Y-4991942D02*
X14288333Y-4277657D01*
X14714047Y-5134800D02*
X13224047Y-4634800D01*
X14714047Y-4134800D01*
X14714047Y-2849085D02*
X14714047Y-3706228D01*
X14714047Y-3277657D02*
X13224047Y-3277657D01*
X13436904Y-3420514D01*
X13578809Y-3563371D01*
X13649761Y-3706228D01*
X13224047Y-1920514D02*
X13224047Y-1777657D01*
X13295000Y-1634800D01*
X13365952Y-1563371D01*
X13507857Y-1491942D01*
X13791666Y-1420514D01*
X14146428Y-1420514D01*
X14430238Y-1491942D01*
X14572142Y-1563371D01*
X14643095Y-1634800D01*
X14714047Y-1777657D01*
X14714047Y-1920514D01*
X14643095Y-2063371D01*
X14572142Y-2134800D01*
X14430238Y-2206228D01*
X14146428Y-2277657D01*
X13791666Y-2277657D01*
X13507857Y-2206228D01*
X13365952Y-2134800D01*
X13295000Y-2063371D01*
X13224047Y-1920514D01*
X16823333Y-3563371D02*
X16823333Y-2849085D01*
X17249047Y-3706228D02*
X15759047Y-3206228D01*
X17249047Y-2706228D01*
X17249047Y-2134800D02*
X17249047Y-1849085D01*
X17178095Y-1706228D01*
X17107142Y-1634800D01*
X16894285Y-1491942D01*
X16610476Y-1420514D01*
X16042857Y-1420514D01*
X15900952Y-1491942D01*
X15830000Y-1563371D01*
X15759047Y-1706228D01*
X15759047Y-1991942D01*
X15830000Y-2134800D01*
X15900952Y-2206228D01*
X16042857Y-2277657D01*
X16397619Y-2277657D01*
X16539523Y-2206228D01*
X16610476Y-2134800D01*
X16681428Y-1991942D01*
X16681428Y-1706228D01*
X16610476Y-1563371D01*
X16539523Y-1491942D01*
X16397619Y-1420514D01*
X19358333Y-3563371D02*
X19358333Y-2849085D01*
X19784047Y-3706228D02*
X18294047Y-3206228D01*
X19784047Y-2706228D01*
X18932619Y-1991942D02*
X18861666Y-2134800D01*
X18790714Y-2206228D01*
X18648809Y-2277657D01*
X18577857Y-2277657D01*
X18435952Y-2206228D01*
X18365000Y-2134800D01*
X18294047Y-1991942D01*
X18294047Y-1706228D01*
X18365000Y-1563371D01*
X18435952Y-1491942D01*
X18577857Y-1420514D01*
X18648809Y-1420514D01*
X18790714Y-1491942D01*
X18861666Y-1563371D01*
X18932619Y-1706228D01*
X18932619Y-1991942D01*
X19003571Y-2134800D01*
X19074523Y-2206228D01*
X19216428Y-2277657D01*
X19500238Y-2277657D01*
X19642142Y-2206228D01*
X19713095Y-2134800D01*
X19784047Y-1991942D01*
X19784047Y-1706228D01*
X19713095Y-1563371D01*
X19642142Y-1491942D01*
X19500238Y-1420514D01*
X19216428Y-1420514D01*
X19074523Y-1491942D01*
X19003571Y-1563371D01*
X18932619Y-1706228D01*
X21893333Y-3563371D02*
X21893333Y-2849085D01*
X22319047Y-3706228D02*
X20829047Y-3206228D01*
X22319047Y-2706228D01*
X20829047Y-2349085D02*
X20829047Y-1349085D01*
X22319047Y-1991942D01*
X24428333Y-3563371D02*
X24428333Y-2849085D01*
X24854047Y-3706228D02*
X23364047Y-3206228D01*
X24854047Y-2706228D01*
X23364047Y-1563371D02*
X23364047Y-1849085D01*
X23435000Y-1991942D01*
X23505952Y-2063371D01*
X23718809Y-2206228D01*
X24002619Y-2277657D01*
X24570238Y-2277657D01*
X24712142Y-2206228D01*
X24783095Y-2134800D01*
X24854047Y-1991942D01*
X24854047Y-1706228D01*
X24783095Y-1563371D01*
X24712142Y-1491942D01*
X24570238Y-1420514D01*
X24215476Y-1420514D01*
X24073571Y-1491942D01*
X24002619Y-1563371D01*
X23931666Y-1706228D01*
X23931666Y-1991942D01*
X24002619Y-2134800D01*
X24073571Y-2206228D01*
X24215476Y-2277657D01*
X26963333Y-3563371D02*
X26963333Y-2849085D01*
X27389047Y-3706228D02*
X25899047Y-3206228D01*
X27389047Y-2706228D01*
X25899047Y-1491942D02*
X25899047Y-2206228D01*
X26608571Y-2277657D01*
X26537619Y-2206228D01*
X26466666Y-2063371D01*
X26466666Y-1706228D01*
X26537619Y-1563371D01*
X26608571Y-1491942D01*
X26750476Y-1420514D01*
X27105238Y-1420514D01*
X27247142Y-1491942D01*
X27318095Y-1563371D01*
X27389047Y-1706228D01*
X27389047Y-2063371D01*
X27318095Y-2206228D01*
X27247142Y-2277657D01*
X29498333Y-3563371D02*
X29498333Y-2849085D01*
X29924047Y-3706228D02*
X28434047Y-3206228D01*
X29924047Y-2706228D01*
X28930714Y-1563371D02*
X29924047Y-1563371D01*
X28363095Y-1920514D02*
X29427380Y-2277657D01*
X29427380Y-1349085D01*
X32033333Y-3563371D02*
X32033333Y-2849085D01*
X32459047Y-3706228D02*
X30969047Y-3206228D01*
X32459047Y-2706228D01*
X30969047Y-2349085D02*
X30969047Y-1420514D01*
X31536666Y-1920514D01*
X31536666Y-1706228D01*
X31607619Y-1563371D01*
X31678571Y-1491942D01*
X31820476Y-1420514D01*
X32175238Y-1420514D01*
X32317142Y-1491942D01*
X32388095Y-1563371D01*
X32459047Y-1706228D01*
X32459047Y-2134800D01*
X32388095Y-2277657D01*
X32317142Y-2349085D01*
X34568333Y-3563371D02*
X34568333Y-2849085D01*
X34994047Y-3706228D02*
X33504047Y-3206228D01*
X34994047Y-2706228D01*
X33645952Y-2277657D02*
X33575000Y-2206228D01*
X33504047Y-2063371D01*
X33504047Y-1706228D01*
X33575000Y-1563371D01*
X33645952Y-1491942D01*
X33787857Y-1420514D01*
X33929761Y-1420514D01*
X34142619Y-1491942D01*
X34994047Y-2349085D01*
X34994047Y-1420514D01*
X37103333Y-3563371D02*
X37103333Y-2849085D01*
X37529047Y-3706228D02*
X36039047Y-3206228D01*
X37529047Y-2706228D01*
X37529047Y-1420514D02*
X37529047Y-2277657D01*
X37529047Y-1849085D02*
X36039047Y-1849085D01*
X36251904Y-1991942D01*
X36393809Y-2134800D01*
X36464761Y-2277657D01*
X39638333Y-3563371D02*
X39638333Y-2849085D01*
X40064047Y-3706228D02*
X38574047Y-3206228D01*
X40064047Y-2706228D01*
X38574047Y-1920514D02*
X38574047Y-1777657D01*
X38645000Y-1634800D01*
X38715952Y-1563371D01*
X38857857Y-1491942D01*
X39141666Y-1420514D01*
X39496428Y-1420514D01*
X39780238Y-1491942D01*
X39922142Y-1563371D01*
X39993095Y-1634800D01*
X40064047Y-1777657D01*
X40064047Y-1920514D01*
X39993095Y-2063371D01*
X39922142Y-2134800D01*
X39780238Y-2206228D01*
X39496428Y-2277657D01*
X39141666Y-2277657D01*
X38857857Y-2206228D01*
X38715952Y-2134800D01*
X38645000Y-2063371D01*
X38574047Y-1920514D01*
X41180000Y-4206228D02*
X41109047Y-4349085D01*
X41109047Y-4563371D01*
X41180000Y-4777657D01*
X41321904Y-4920514D01*
X41463809Y-4991942D01*
X41747619Y-5063371D01*
X41960476Y-5063371D01*
X42244285Y-4991942D01*
X42386190Y-4920514D01*
X42528095Y-4777657D01*
X42599047Y-4563371D01*
X42599047Y-4420514D01*
X42528095Y-4206228D01*
X42457142Y-4134800D01*
X41960476Y-4134800D01*
X41960476Y-4420514D01*
X41605714Y-3491942D02*
X42599047Y-3491942D01*
X41747619Y-3491942D02*
X41676666Y-3420514D01*
X41605714Y-3277657D01*
X41605714Y-3063371D01*
X41676666Y-2920514D01*
X41818571Y-2849085D01*
X42599047Y-2849085D01*
X42599047Y-1491942D02*
X41109047Y-1491942D01*
X42528095Y-1491942D02*
X42599047Y-1634800D01*
X42599047Y-1920514D01*
X42528095Y-2063371D01*
X42457142Y-2134800D01*
X42315238Y-2206228D01*
X41889523Y-2206228D01*
X41747619Y-2134800D01*
X41676666Y-2063371D01*
X41605714Y-1920514D01*
X41605714Y-1634800D01*
X41676666Y-1491942D01*
X43644047Y-2634800D02*
X43644047Y-3349085D01*
X44353571Y-3420514D01*
X44282619Y-3349085D01*
X44211666Y-3206228D01*
X44211666Y-2849085D01*
X44282619Y-2706228D01*
X44353571Y-2634800D01*
X44495476Y-2563371D01*
X44850238Y-2563371D01*
X44992142Y-2634800D01*
X45063095Y-2706228D01*
X45134047Y-2849085D01*
X45134047Y-3206228D01*
X45063095Y-3349085D01*
X44992142Y-3420514D01*
X44140714Y-2063371D02*
X45134047Y-1706228D01*
X44140714Y-1349085D01*
X47669047Y-3920514D02*
X46179047Y-3920514D01*
X47243333Y-3420514D01*
X46179047Y-2920514D01*
X47669047Y-2920514D01*
X47669047Y-1420514D02*
X47669047Y-2277657D01*
X47669047Y-1849085D02*
X46179047Y-1849085D01*
X46391904Y-1991942D01*
X46533809Y-2134800D01*
X46604761Y-2277657D01*
X50204047Y-6063371D02*
X49494523Y-6563371D01*
X50204047Y-6920514D02*
X48714047Y-6920514D01*
X48714047Y-6349085D01*
X48785000Y-6206228D01*
X48855952Y-6134800D01*
X48997857Y-6063371D01*
X49210714Y-6063371D01*
X49352619Y-6134800D01*
X49423571Y-6206228D01*
X49494523Y-6349085D01*
X49494523Y-6920514D01*
X50133095Y-4849085D02*
X50204047Y-4991942D01*
X50204047Y-5277657D01*
X50133095Y-5420514D01*
X49991190Y-5491942D01*
X49423571Y-5491942D01*
X49281666Y-5420514D01*
X49210714Y-5277657D01*
X49210714Y-4991942D01*
X49281666Y-4849085D01*
X49423571Y-4777657D01*
X49565476Y-4777657D01*
X49707380Y-5491942D01*
X50133095Y-4206228D02*
X50204047Y-4063371D01*
X50204047Y-3777657D01*
X50133095Y-3634800D01*
X49991190Y-3563371D01*
X49920238Y-3563371D01*
X49778333Y-3634800D01*
X49707380Y-3777657D01*
X49707380Y-3991942D01*
X49636428Y-4134800D01*
X49494523Y-4206228D01*
X49423571Y-4206228D01*
X49281666Y-4134800D01*
X49210714Y-3991942D01*
X49210714Y-3777657D01*
X49281666Y-3634800D01*
X50133095Y-2349085D02*
X50204047Y-2491942D01*
X50204047Y-2777657D01*
X50133095Y-2920514D01*
X49991190Y-2991942D01*
X49423571Y-2991942D01*
X49281666Y-2920514D01*
X49210714Y-2777657D01*
X49210714Y-2491942D01*
X49281666Y-2349085D01*
X49423571Y-2277657D01*
X49565476Y-2277657D01*
X49707380Y-2991942D01*
X49210714Y-1849085D02*
X49210714Y-1277657D01*
X48714047Y-1634800D02*
X49991190Y-1634800D01*
X50133095Y-1563371D01*
X50204047Y-1420514D01*
X50204047Y-1277657D01*
X52597142Y-6063371D02*
X52668095Y-6134800D01*
X52739047Y-6349085D01*
X52739047Y-6491942D01*
X52668095Y-6706228D01*
X52526190Y-6849085D01*
X52384285Y-6920514D01*
X52100476Y-6991942D01*
X51887619Y-6991942D01*
X51603809Y-6920514D01*
X51461904Y-6849085D01*
X51320000Y-6706228D01*
X51249047Y-6491942D01*
X51249047Y-6349085D01*
X51320000Y-6134800D01*
X51390952Y-6063371D01*
X52739047Y-5206228D02*
X52668095Y-5349085D01*
X52526190Y-5420514D01*
X51249047Y-5420514D01*
X52739047Y-4420514D02*
X52668095Y-4563371D01*
X52597142Y-4634800D01*
X52455238Y-4706228D01*
X52029523Y-4706228D01*
X51887619Y-4634800D01*
X51816666Y-4563371D01*
X51745714Y-4420514D01*
X51745714Y-4206228D01*
X51816666Y-4063371D01*
X51887619Y-3991942D01*
X52029523Y-3920514D01*
X52455238Y-3920514D01*
X52597142Y-3991942D01*
X52668095Y-4063371D01*
X52739047Y-4206228D01*
X52739047Y-4420514D01*
X52668095Y-2634800D02*
X52739047Y-2777657D01*
X52739047Y-3063371D01*
X52668095Y-3206228D01*
X52597142Y-3277657D01*
X52455238Y-3349085D01*
X52029523Y-3349085D01*
X51887619Y-3277657D01*
X51816666Y-3206228D01*
X51745714Y-3063371D01*
X51745714Y-2777657D01*
X51816666Y-2634800D01*
X52739047Y-1991942D02*
X51249047Y-1991942D01*
X52171428Y-1849085D02*
X52739047Y-1420514D01*
X51745714Y-1420514D02*
X52313333Y-1991942D01*
X55274047Y-4206228D02*
X53784047Y-4206228D01*
X55274047Y-3491942D02*
X53784047Y-3491942D01*
X55274047Y-2634800D01*
X53784047Y-2634800D01*
X53784047Y-2134800D02*
X53784047Y-1277657D01*
X55274047Y-1706228D02*
X53784047Y-1706228D01*
X57809047Y-6063371D02*
X56319047Y-6063371D01*
X57383333Y-5563371D01*
X56319047Y-5063371D01*
X57809047Y-5063371D01*
X57809047Y-4349085D02*
X56815714Y-4349085D01*
X57099523Y-4349085D02*
X56957619Y-4277657D01*
X56886666Y-4206228D01*
X56815714Y-4063371D01*
X56815714Y-3920514D01*
X57738095Y-2849085D02*
X57809047Y-2991942D01*
X57809047Y-3277657D01*
X57738095Y-3420514D01*
X57596190Y-3491942D01*
X57028571Y-3491942D01*
X56886666Y-3420514D01*
X56815714Y-3277657D01*
X56815714Y-2991942D01*
X56886666Y-2849085D01*
X57028571Y-2777657D01*
X57170476Y-2777657D01*
X57312380Y-3491942D01*
X56815714Y-1491942D02*
X58305714Y-1491942D01*
X57738095Y-1491942D02*
X57809047Y-1634800D01*
X57809047Y-1920514D01*
X57738095Y-2063371D01*
X57667142Y-2134800D01*
X57525238Y-2206228D01*
X57099523Y-2206228D01*
X56957619Y-2134800D01*
X56886666Y-2063371D01*
X56815714Y-1920514D01*
X56815714Y-1634800D01*
X56886666Y-1491942D01*
X58854047Y-3563371D02*
X60344047Y-3206228D01*
X59279761Y-2920514D01*
X60344047Y-2634800D01*
X58854047Y-2277657D01*
X60344047Y-1706228D02*
X59350714Y-1706228D01*
X59634523Y-1706228D02*
X59492619Y-1634800D01*
X59421666Y-1563371D01*
X59350714Y-1420514D01*
X59350714Y-1277657D01*
X62879047Y-2777657D02*
X62169523Y-3277657D01*
X62879047Y-3634800D02*
X61389047Y-3634800D01*
X61389047Y-3063371D01*
X61460000Y-2920514D01*
X61530952Y-2849085D01*
X61672857Y-2777657D01*
X61885714Y-2777657D01*
X62027619Y-2849085D01*
X62098571Y-2920514D01*
X62169523Y-3063371D01*
X62169523Y-3634800D01*
X62879047Y-1920514D02*
X62808095Y-2063371D01*
X62737142Y-2134800D01*
X62595238Y-2206228D01*
X62169523Y-2206228D01*
X62027619Y-2134800D01*
X61956666Y-2063371D01*
X61885714Y-1920514D01*
X61885714Y-1706228D01*
X61956666Y-1563371D01*
X62027619Y-1491942D01*
X62169523Y-1420514D01*
X62595238Y-1420514D01*
X62737142Y-1491942D01*
X62808095Y-1563371D01*
X62879047Y-1706228D01*
X62879047Y-1920514D01*
X65414047Y-6134800D02*
X63924047Y-6134800D01*
X63924047Y-5134800D02*
X63924047Y-4849085D01*
X63995000Y-4706228D01*
X64136904Y-4563371D01*
X64420714Y-4491942D01*
X64917380Y-4491942D01*
X65201190Y-4563371D01*
X65343095Y-4706228D01*
X65414047Y-4849085D01*
X65414047Y-5134800D01*
X65343095Y-5277657D01*
X65201190Y-5420514D01*
X64917380Y-5491942D01*
X64420714Y-5491942D01*
X64136904Y-5420514D01*
X63995000Y-5277657D01*
X63924047Y-5134800D01*
X65414047Y-2991942D02*
X64704523Y-3491942D01*
X65414047Y-3849085D02*
X63924047Y-3849085D01*
X63924047Y-3277657D01*
X63995000Y-3134800D01*
X64065952Y-3063371D01*
X64207857Y-2991942D01*
X64420714Y-2991942D01*
X64562619Y-3063371D01*
X64633571Y-3134800D01*
X64704523Y-3277657D01*
X64704523Y-3849085D01*
X65555952Y-1349085D02*
X65485000Y-1491942D01*
X65343095Y-1634800D01*
X65130238Y-1849085D01*
X65059285Y-1991942D01*
X65059285Y-2134800D01*
X65414047Y-2063371D02*
X65343095Y-2206228D01*
X65201190Y-2349085D01*
X64917380Y-2420514D01*
X64420714Y-2420514D01*
X64136904Y-2349085D01*
X63995000Y-2206228D01*
X63924047Y-2063371D01*
X63924047Y-1777657D01*
X63995000Y-1634800D01*
X64136904Y-1491942D01*
X64420714Y-1420514D01*
X64917380Y-1420514D01*
X65201190Y-1491942D01*
X65343095Y-1634800D01*
X65414047Y-1777657D01*
X65414047Y-2063371D01*
X67949047Y-3706228D02*
X66459047Y-3706228D01*
X66459047Y-3349085D01*
X66530000Y-3134800D01*
X66671904Y-2991942D01*
X66813809Y-2920514D01*
X67097619Y-2849085D01*
X67310476Y-2849085D01*
X67594285Y-2920514D01*
X67736190Y-2991942D01*
X67878095Y-3134800D01*
X67949047Y-3349085D01*
X67949047Y-3706228D01*
X66459047Y-1920514D02*
X66459047Y-1777657D01*
X66530000Y-1634800D01*
X66600952Y-1563371D01*
X66742857Y-1491942D01*
X67026666Y-1420514D01*
X67381428Y-1420514D01*
X67665238Y-1491942D01*
X67807142Y-1563371D01*
X67878095Y-1634800D01*
X67949047Y-1777657D01*
X67949047Y-1920514D01*
X67878095Y-2063371D01*
X67807142Y-2134800D01*
X67665238Y-2206228D01*
X67381428Y-2277657D01*
X67026666Y-2277657D01*
X66742857Y-2206228D01*
X66600952Y-2134800D01*
X66530000Y-2063371D01*
X66459047Y-1920514D01*
X70484047Y-3706228D02*
X68994047Y-3706228D01*
X68994047Y-3349085D01*
X69065000Y-3134800D01*
X69206904Y-2991942D01*
X69348809Y-2920514D01*
X69632619Y-2849085D01*
X69845476Y-2849085D01*
X70129285Y-2920514D01*
X70271190Y-2991942D01*
X70413095Y-3134800D01*
X70484047Y-3349085D01*
X70484047Y-3706228D01*
X70484047Y-1420514D02*
X70484047Y-2277657D01*
X70484047Y-1849085D02*
X68994047Y-1849085D01*
X69206904Y-1991942D01*
X69348809Y-2134800D01*
X69419761Y-2277657D01*
X73019047Y-3706228D02*
X71529047Y-3706228D01*
X71529047Y-3349085D01*
X71600000Y-3134800D01*
X71741904Y-2991942D01*
X71883809Y-2920514D01*
X72167619Y-2849085D01*
X72380476Y-2849085D01*
X72664285Y-2920514D01*
X72806190Y-2991942D01*
X72948095Y-3134800D01*
X73019047Y-3349085D01*
X73019047Y-3706228D01*
X71670952Y-2277657D02*
X71600000Y-2206228D01*
X71529047Y-2063371D01*
X71529047Y-1706228D01*
X71600000Y-1563371D01*
X71670952Y-1491942D01*
X71812857Y-1420514D01*
X71954761Y-1420514D01*
X72167619Y-1491942D01*
X73019047Y-2349085D01*
X73019047Y-1420514D01*
X75554047Y-3706228D02*
X74064047Y-3706228D01*
X74064047Y-3349085D01*
X74135000Y-3134800D01*
X74276904Y-2991942D01*
X74418809Y-2920514D01*
X74702619Y-2849085D01*
X74915476Y-2849085D01*
X75199285Y-2920514D01*
X75341190Y-2991942D01*
X75483095Y-3134800D01*
X75554047Y-3349085D01*
X75554047Y-3706228D01*
X74064047Y-2349085D02*
X74064047Y-1420514D01*
X74631666Y-1920514D01*
X74631666Y-1706228D01*
X74702619Y-1563371D01*
X74773571Y-1491942D01*
X74915476Y-1420514D01*
X75270238Y-1420514D01*
X75412142Y-1491942D01*
X75483095Y-1563371D01*
X75554047Y-1706228D01*
X75554047Y-2134800D01*
X75483095Y-2277657D01*
X75412142Y-2349085D01*
X78089047Y-3706228D02*
X76599047Y-3706228D01*
X76599047Y-3349085D01*
X76670000Y-3134800D01*
X76811904Y-2991942D01*
X76953809Y-2920514D01*
X77237619Y-2849085D01*
X77450476Y-2849085D01*
X77734285Y-2920514D01*
X77876190Y-2991942D01*
X78018095Y-3134800D01*
X78089047Y-3349085D01*
X78089047Y-3706228D01*
X77095714Y-1563371D02*
X78089047Y-1563371D01*
X76528095Y-1920514D02*
X77592380Y-2277657D01*
X77592380Y-1349085D01*
X80624047Y-3706228D02*
X79134047Y-3706228D01*
X79134047Y-3349085D01*
X79205000Y-3134800D01*
X79346904Y-2991942D01*
X79488809Y-2920514D01*
X79772619Y-2849085D01*
X79985476Y-2849085D01*
X80269285Y-2920514D01*
X80411190Y-2991942D01*
X80553095Y-3134800D01*
X80624047Y-3349085D01*
X80624047Y-3706228D01*
X79134047Y-1491942D02*
X79134047Y-2206228D01*
X79843571Y-2277657D01*
X79772619Y-2206228D01*
X79701666Y-2063371D01*
X79701666Y-1706228D01*
X79772619Y-1563371D01*
X79843571Y-1491942D01*
X79985476Y-1420514D01*
X80340238Y-1420514D01*
X80482142Y-1491942D01*
X80553095Y-1563371D01*
X80624047Y-1706228D01*
X80624047Y-2063371D01*
X80553095Y-2206228D01*
X80482142Y-2277657D01*
X83159047Y-3706228D02*
X81669047Y-3706228D01*
X81669047Y-3349085D01*
X81740000Y-3134800D01*
X81881904Y-2991942D01*
X82023809Y-2920514D01*
X82307619Y-2849085D01*
X82520476Y-2849085D01*
X82804285Y-2920514D01*
X82946190Y-2991942D01*
X83088095Y-3134800D01*
X83159047Y-3349085D01*
X83159047Y-3706228D01*
X81669047Y-1563371D02*
X81669047Y-1849085D01*
X81740000Y-1991942D01*
X81810952Y-2063371D01*
X82023809Y-2206228D01*
X82307619Y-2277657D01*
X82875238Y-2277657D01*
X83017142Y-2206228D01*
X83088095Y-2134800D01*
X83159047Y-1991942D01*
X83159047Y-1706228D01*
X83088095Y-1563371D01*
X83017142Y-1491942D01*
X82875238Y-1420514D01*
X82520476Y-1420514D01*
X82378571Y-1491942D01*
X82307619Y-1563371D01*
X82236666Y-1706228D01*
X82236666Y-1991942D01*
X82307619Y-2134800D01*
X82378571Y-2206228D01*
X82520476Y-2277657D01*
X85694047Y-3706228D02*
X84204047Y-3706228D01*
X84204047Y-3349085D01*
X84275000Y-3134800D01*
X84416904Y-2991942D01*
X84558809Y-2920514D01*
X84842619Y-2849085D01*
X85055476Y-2849085D01*
X85339285Y-2920514D01*
X85481190Y-2991942D01*
X85623095Y-3134800D01*
X85694047Y-3349085D01*
X85694047Y-3706228D01*
X84204047Y-2349085D02*
X84204047Y-1349085D01*
X85694047Y-1991942D01*
X86739047Y-3349085D02*
X86739047Y-2491942D01*
X88229047Y-2920514D02*
X86739047Y-2920514D01*
X88229047Y-2134800D02*
X87235714Y-1349085D01*
X87235714Y-2134800D02*
X88229047Y-1349085D01*
X90764047Y-2634800D02*
X90054523Y-3134800D01*
X90764047Y-3491942D02*
X89274047Y-3491942D01*
X89274047Y-2920514D01*
X89345000Y-2777657D01*
X89415952Y-2706228D01*
X89557857Y-2634800D01*
X89770714Y-2634800D01*
X89912619Y-2706228D01*
X89983571Y-2777657D01*
X90054523Y-2920514D01*
X90054523Y-3491942D01*
X90764047Y-2134800D02*
X89770714Y-1349085D01*
X89770714Y-2134800D02*
X90764047Y-1349085D01*
X91809047Y-6706228D02*
X93015238Y-6706228D01*
X93157142Y-6634800D01*
X93228095Y-6563371D01*
X93299047Y-6420514D01*
X93299047Y-6134800D01*
X93228095Y-5991942D01*
X93157142Y-5920514D01*
X93015238Y-5849085D01*
X91809047Y-5849085D01*
X93228095Y-5206228D02*
X93299047Y-4991942D01*
X93299047Y-4634800D01*
X93228095Y-4491942D01*
X93157142Y-4420514D01*
X93015238Y-4349085D01*
X92873333Y-4349085D01*
X92731428Y-4420514D01*
X92660476Y-4491942D01*
X92589523Y-4634800D01*
X92518571Y-4920514D01*
X92447619Y-5063371D01*
X92376666Y-5134800D01*
X92234761Y-5206228D01*
X92092857Y-5206228D01*
X91950952Y-5134800D01*
X91880000Y-5063371D01*
X91809047Y-4920514D01*
X91809047Y-4563371D01*
X91880000Y-4349085D01*
X93299047Y-2849085D02*
X92589523Y-3349085D01*
X93299047Y-3706228D02*
X91809047Y-3706228D01*
X91809047Y-3134800D01*
X91880000Y-2991942D01*
X91950952Y-2920514D01*
X92092857Y-2849085D01*
X92305714Y-2849085D01*
X92447619Y-2920514D01*
X92518571Y-2991942D01*
X92589523Y-3134800D01*
X92589523Y-3706228D01*
X93299047Y-1420514D02*
X93299047Y-2277657D01*
X93299047Y-1849085D02*
X91809047Y-1849085D01*
X92021904Y-1991942D01*
X92163809Y-2134800D01*
X92234761Y-2277657D01*
X94344047Y-6706228D02*
X95550238Y-6706228D01*
X95692142Y-6634800D01*
X95763095Y-6563371D01*
X95834047Y-6420514D01*
X95834047Y-6134800D01*
X95763095Y-5991942D01*
X95692142Y-5920514D01*
X95550238Y-5849085D01*
X94344047Y-5849085D01*
X95763095Y-5206228D02*
X95834047Y-4991942D01*
X95834047Y-4634800D01*
X95763095Y-4491942D01*
X95692142Y-4420514D01*
X95550238Y-4349085D01*
X95408333Y-4349085D01*
X95266428Y-4420514D01*
X95195476Y-4491942D01*
X95124523Y-4634800D01*
X95053571Y-4920514D01*
X94982619Y-5063371D01*
X94911666Y-5134800D01*
X94769761Y-5206228D01*
X94627857Y-5206228D01*
X94485952Y-5134800D01*
X94415000Y-5063371D01*
X94344047Y-4920514D01*
X94344047Y-4563371D01*
X94415000Y-4349085D01*
X95834047Y-2849085D02*
X95124523Y-3349085D01*
X95834047Y-3706228D02*
X94344047Y-3706228D01*
X94344047Y-3134800D01*
X94415000Y-2991942D01*
X94485952Y-2920514D01*
X94627857Y-2849085D01*
X94840714Y-2849085D01*
X94982619Y-2920514D01*
X95053571Y-2991942D01*
X95124523Y-3134800D01*
X95124523Y-3706228D01*
X94485952Y-2277657D02*
X94415000Y-2206228D01*
X94344047Y-2063371D01*
X94344047Y-1706228D01*
X94415000Y-1563371D01*
X94485952Y-1491942D01*
X94627857Y-1420514D01*
X94769761Y-1420514D01*
X94982619Y-1491942D01*
X95834047Y-2349085D01*
X95834047Y-1420514D01*
X96879047Y-6706228D02*
X98085238Y-6706228D01*
X98227142Y-6634800D01*
X98298095Y-6563371D01*
X98369047Y-6420514D01*
X98369047Y-6134800D01*
X98298095Y-5991942D01*
X98227142Y-5920514D01*
X98085238Y-5849085D01*
X96879047Y-5849085D01*
X98298095Y-5206228D02*
X98369047Y-4991942D01*
X98369047Y-4634800D01*
X98298095Y-4491942D01*
X98227142Y-4420514D01*
X98085238Y-4349085D01*
X97943333Y-4349085D01*
X97801428Y-4420514D01*
X97730476Y-4491942D01*
X97659523Y-4634800D01*
X97588571Y-4920514D01*
X97517619Y-5063371D01*
X97446666Y-5134800D01*
X97304761Y-5206228D01*
X97162857Y-5206228D01*
X97020952Y-5134800D01*
X96950000Y-5063371D01*
X96879047Y-4920514D01*
X96879047Y-4563371D01*
X96950000Y-4349085D01*
X98369047Y-2849085D02*
X97659523Y-3349085D01*
X98369047Y-3706228D02*
X96879047Y-3706228D01*
X96879047Y-3134800D01*
X96950000Y-2991942D01*
X97020952Y-2920514D01*
X97162857Y-2849085D01*
X97375714Y-2849085D01*
X97517619Y-2920514D01*
X97588571Y-2991942D01*
X97659523Y-3134800D01*
X97659523Y-3706228D01*
X96879047Y-2349085D02*
X96879047Y-1420514D01*
X97446666Y-1920514D01*
X97446666Y-1706228D01*
X97517619Y-1563371D01*
X97588571Y-1491942D01*
X97730476Y-1420514D01*
X98085238Y-1420514D01*
X98227142Y-1491942D01*
X98298095Y-1563371D01*
X98369047Y-1706228D01*
X98369047Y-2134800D01*
X98298095Y-2277657D01*
X98227142Y-2349085D01*
D12*
X2743200Y10345420D02*
X2743200Y233680D01*
X1173480Y10345420D02*
X2743200Y10345420D01*
X-7620Y9164320D02*
X1173480Y10345420D01*
X-7620Y233680D02*
X-7620Y9164320D01*
D10*
X2207651Y4049735D02*
X707651Y4049735D01*
X707651Y4621163D01*
X779080Y4764020D01*
X850508Y4835449D01*
X993365Y4906878D01*
X1207651Y4906878D01*
X1350508Y4835449D01*
X1421937Y4764020D01*
X1493365Y4621163D01*
X1493365Y4049735D01*
X2207651Y5549735D02*
X1207651Y5549735D01*
X707651Y5549735D02*
X779080Y5478306D01*
X850508Y5549735D01*
X779080Y5621163D01*
X707651Y5549735D01*
X850508Y5549735D01*
X1207651Y6264020D02*
X2207651Y6264020D01*
X1350508Y6264020D02*
X1279080Y6335449D01*
X1207651Y6478306D01*
X1207651Y6692592D01*
X1279080Y6835449D01*
X1421937Y6906878D01*
X2207651Y6906878D01*
X2207651Y9549735D02*
X2207651Y8692592D01*
X2207651Y9121163D02*
X707651Y9121163D01*
X921937Y8978306D01*
X1064794Y8835449D01*
X1136222Y8692592D01*
D13*
%TO.C,U1*%
X45720000Y22050200D02*
X43180000Y22050200D01*
X33790000Y25350200D02*
X36050000Y25350200D01*
X33790000Y23070200D02*
X35650000Y23070200D01*
X33790000Y46170200D02*
X33790000Y23070200D01*
X84390000Y46170200D02*
X33790000Y46170200D01*
X84390000Y23070200D02*
X84390000Y46170200D01*
X40550000Y23070200D02*
X84390000Y23070200D01*
X39000000Y23800200D02*
G75*
G03*
X39000000Y23800200I-900000J0D01*
G01*
X40650000Y23800200D02*
G75*
G03*
X40650000Y23800200I-2550000J0D01*
G01*
%TO.C,U3*%
X49470000Y14010200D02*
X49470000Y12760200D01*
X67370000Y14010200D02*
X49470000Y14010200D01*
X67370000Y9510200D02*
X67370000Y14010200D01*
X49470000Y9510200D02*
X67370000Y9510200D01*
X49470000Y10760200D02*
X49470000Y9510200D01*
X49470000Y12760200D02*
G75*
G02*
X49470000Y10760200I0J-1000000D01*
G01*
%TO.C,U2*%
X25340000Y14010200D02*
X25340000Y12760200D01*
X45780000Y14010200D02*
X25340000Y14010200D01*
X45780000Y9510200D02*
X45780000Y14010200D01*
X25340000Y9510200D02*
X45780000Y9510200D01*
X25340000Y10760200D02*
X25340000Y9510200D01*
X25340000Y12760200D02*
G75*
G02*
X25340000Y10760200I0J-1000000D01*
G01*
%TO.C,JP6*%
X25340000Y32020200D02*
X25340000Y33350200D01*
X26670000Y32020200D02*
X25340000Y32020200D01*
X25340000Y34620200D02*
X25340000Y37220200D01*
X27940000Y34620200D02*
X25340000Y34620200D01*
X27940000Y32020200D02*
X27940000Y34620200D01*
X25340000Y37220200D02*
X30540000Y37220200D01*
X27940000Y32020200D02*
X30540000Y32020200D01*
X30540000Y32020200D02*
X30540000Y37220200D01*
%TO.C,U4*%
X3750000Y10760200D02*
X3750000Y9510200D01*
X3750000Y9510200D02*
X21650000Y9510200D01*
X21650000Y9510200D02*
X21650000Y14010200D01*
X21650000Y14010200D02*
X3750000Y14010200D01*
X3750000Y14010200D02*
X3750000Y12760200D01*
X3750000Y12760200D02*
G75*
G02*
X3750000Y10760200I0J-1000000D01*
G01*
%TO.C,R3*%
X88800000Y27540200D02*
X89130000Y27540200D01*
X88800000Y34080200D02*
X88800000Y27540200D01*
X89130000Y34080200D02*
X88800000Y34080200D01*
X91540000Y27540200D02*
X91210000Y27540200D01*
X91540000Y34080200D02*
X91540000Y27540200D01*
X91210000Y34080200D02*
X91540000Y34080200D01*
%TO.C,R2*%
X7720000Y28365200D02*
X7390000Y28365200D01*
X7720000Y21825200D02*
X7720000Y28365200D01*
X7390000Y21825200D02*
X7720000Y21825200D01*
X4980000Y28365200D02*
X5310000Y28365200D01*
X4980000Y21825200D02*
X4980000Y28365200D01*
X5310000Y21825200D02*
X4980000Y21825200D01*
%TO.C,R1*%
X5180000Y28365200D02*
X4850000Y28365200D01*
X5180000Y21825200D02*
X5180000Y28365200D01*
X4850000Y21825200D02*
X5180000Y21825200D01*
X2440000Y28365200D02*
X2770000Y28365200D01*
X2440000Y21825200D02*
X2440000Y28365200D01*
X2770000Y21825200D02*
X2440000Y21825200D01*
%TO.C,JP5*%
X15180000Y39760200D02*
X16510000Y39760200D01*
X15180000Y38430200D02*
X15180000Y39760200D01*
X15180000Y37160200D02*
X17840000Y37160200D01*
X17840000Y37160200D02*
X17840000Y32020200D01*
X15180000Y37160200D02*
X15180000Y32020200D01*
X15180000Y32020200D02*
X17840000Y32020200D01*
%TO.C,JP4*%
X12640000Y39760200D02*
X13970000Y39760200D01*
X12640000Y38430200D02*
X12640000Y39760200D01*
X12640000Y37160200D02*
X15300000Y37160200D01*
X15300000Y37160200D02*
X15300000Y32020200D01*
X12640000Y37160200D02*
X12640000Y32020200D01*
X12640000Y32020200D02*
X15300000Y32020200D01*
%TO.C,JP3*%
X10100000Y39760200D02*
X11430000Y39760200D01*
X10100000Y38430200D02*
X10100000Y39760200D01*
X10100000Y37160200D02*
X12760000Y37160200D01*
X12760000Y37160200D02*
X12760000Y32020200D01*
X10100000Y37160200D02*
X10100000Y32020200D01*
X10100000Y32020200D02*
X12760000Y32020200D01*
%TO.C,JP2*%
X12640000Y29600200D02*
X13970000Y29600200D01*
X12640000Y28270200D02*
X12640000Y29600200D01*
X12640000Y27000200D02*
X15300000Y27000200D01*
X15300000Y27000200D02*
X15300000Y21860200D01*
X12640000Y27000200D02*
X12640000Y21860200D01*
X12640000Y21860200D02*
X15300000Y21860200D01*
%TO.C,JP1*%
X10100000Y29600200D02*
X11430000Y29600200D01*
X10100000Y28270200D02*
X10100000Y29600200D01*
X10100000Y27000200D02*
X12760000Y27000200D01*
X12760000Y27000200D02*
X12760000Y21860200D01*
X10100000Y27000200D02*
X10100000Y21860200D01*
X10100000Y21860200D02*
X12760000Y21860200D01*
%TO.C,D1*%
X89880000Y41160200D02*
X89880000Y41004200D01*
X89880000Y43476200D02*
X89880000Y43320200D01*
X92481130Y41160363D02*
G75*
G02*
X90399039Y41160200I-1041130J1079837D01*
G01*
X92481130Y43320037D02*
G75*
G03*
X90399039Y43320200I-1041130J-1079837D01*
G01*
X93112335Y41161592D02*
G75*
G02*
X89880000Y41004684I-1672335J1078608D01*
G01*
X93112335Y43318808D02*
G75*
G03*
X89880000Y43475716I-1672335J-1078608D01*
G01*
%TO.C,C4*%
X5701000Y17190200D02*
X6959000Y17190200D01*
X5701000Y19030200D02*
X6959000Y19030200D01*
%TO.C,C3*%
X51421000Y17190200D02*
X52679000Y17190200D01*
X51421000Y19030200D02*
X52679000Y19030200D01*
%TO.C,C2*%
X27291000Y17190200D02*
X28549000Y17190200D01*
X27291000Y19030200D02*
X28549000Y19030200D01*
%TO.C,C1*%
X45071000Y46400200D02*
X46329000Y46400200D01*
X45071000Y48240200D02*
X46329000Y48240200D01*
%TO.C,J2*%
X40580000Y2810200D02*
X40580000Y4140200D01*
X41910000Y2810200D02*
X40580000Y2810200D01*
X43180000Y2810200D02*
X43180000Y5470200D01*
X43180000Y5470200D02*
X66100000Y5470200D01*
X43180000Y2810200D02*
X66100000Y2810200D01*
X66100000Y2810200D02*
X66100000Y5470200D01*
%TO.C,J1*%
X-60000Y270200D02*
X-60000Y1600200D01*
X1270000Y270200D02*
X-60000Y270200D01*
X2540000Y270200D02*
X2540000Y2930200D01*
X2540000Y2930200D02*
X99120000Y2930200D01*
X2540000Y270200D02*
X99120000Y270200D01*
X99120000Y270200D02*
X99120000Y2930200D01*
%TD*%
D14*
%TO.C,*%
X6630000Y33350200D02*
G75*
G03*
X6630000Y33350200I-1550000J0D01*
G01*
%TD*%
%TO.C,U1*%
D11*
X32342380Y33858296D02*
X33151904Y33858296D01*
X33247142Y33905915D01*
X33294761Y33953534D01*
X33342380Y34048772D01*
X33342380Y34239248D01*
X33294761Y34334486D01*
X33247142Y34382105D01*
X33151904Y34429724D01*
X32342380Y34429724D01*
X33342380Y35429724D02*
X33342380Y34858296D01*
X33342380Y35144010D02*
X32342380Y35144010D01*
X32485238Y35048772D01*
X32580476Y34953534D01*
X32628095Y34858296D01*
%TO.C,U3*%
X47922380Y10998296D02*
X48731904Y10998296D01*
X48827142Y11045915D01*
X48874761Y11093534D01*
X48922380Y11188772D01*
X48922380Y11379248D01*
X48874761Y11474486D01*
X48827142Y11522105D01*
X48731904Y11569724D01*
X47922380Y11569724D01*
X47922380Y11950677D02*
X47922380Y12569724D01*
X48303333Y12236391D01*
X48303333Y12379248D01*
X48350952Y12474486D01*
X48398571Y12522105D01*
X48493809Y12569724D01*
X48731904Y12569724D01*
X48827142Y12522105D01*
X48874761Y12474486D01*
X48922380Y12379248D01*
X48922380Y12093534D01*
X48874761Y11998296D01*
X48827142Y11950677D01*
X55253333Y12307820D02*
X55920000Y12307820D01*
X55491428Y11307820D01*
X56729523Y11974486D02*
X56729523Y11307820D01*
X56491428Y12355439D02*
X56253333Y11641153D01*
X56872380Y11641153D01*
X57253333Y11307820D02*
X57253333Y12307820D01*
X57253333Y11831629D02*
X57824761Y11831629D01*
X57824761Y11307820D02*
X57824761Y12307820D01*
X58872380Y11403058D02*
X58824761Y11355439D01*
X58681904Y11307820D01*
X58586666Y11307820D01*
X58443809Y11355439D01*
X58348571Y11450677D01*
X58300952Y11545915D01*
X58253333Y11736391D01*
X58253333Y11879248D01*
X58300952Y12069724D01*
X58348571Y12164962D01*
X58443809Y12260200D01*
X58586666Y12307820D01*
X58681904Y12307820D01*
X58824761Y12260200D01*
X58872380Y12212581D01*
X59158095Y12307820D02*
X59729523Y12307820D01*
X59443809Y11307820D02*
X59443809Y12307820D01*
X59967619Y12307820D02*
X60634285Y12307820D01*
X60205714Y11307820D01*
X61443809Y11974486D02*
X61443809Y11307820D01*
X61205714Y12355439D02*
X60967619Y11641153D01*
X61586666Y11641153D01*
%TO.C,U2*%
X23792380Y10998296D02*
X24601904Y10998296D01*
X24697142Y11045915D01*
X24744761Y11093534D01*
X24792380Y11188772D01*
X24792380Y11379248D01*
X24744761Y11474486D01*
X24697142Y11522105D01*
X24601904Y11569724D01*
X23792380Y11569724D01*
X23887619Y11998296D02*
X23840000Y12045915D01*
X23792380Y12141153D01*
X23792380Y12379248D01*
X23840000Y12474486D01*
X23887619Y12522105D01*
X23982857Y12569724D01*
X24078095Y12569724D01*
X24220952Y12522105D01*
X24792380Y11950677D01*
X24792380Y12569724D01*
X31917142Y12307820D02*
X32583809Y12307820D01*
X32155238Y11307820D01*
X33393333Y11974486D02*
X33393333Y11307820D01*
X33155238Y12355439D02*
X32917142Y11641153D01*
X33536190Y11641153D01*
X33917142Y11307820D02*
X33917142Y12307820D01*
X33917142Y11831629D02*
X34488571Y11831629D01*
X34488571Y11307820D02*
X34488571Y12307820D01*
X35536190Y11403058D02*
X35488571Y11355439D01*
X35345714Y11307820D01*
X35250476Y11307820D01*
X35107619Y11355439D01*
X35012380Y11450677D01*
X34964761Y11545915D01*
X34917142Y11736391D01*
X34917142Y11879248D01*
X34964761Y12069724D01*
X35012380Y12164962D01*
X35107619Y12260200D01*
X35250476Y12307820D01*
X35345714Y12307820D01*
X35488571Y12260200D01*
X35536190Y12212581D01*
X35821904Y12307820D02*
X36393333Y12307820D01*
X36107619Y11307820D02*
X36107619Y12307820D01*
X37250476Y11307820D02*
X36679047Y11307820D01*
X36964761Y11307820D02*
X36964761Y12307820D01*
X36869523Y12164962D01*
X36774285Y12069724D01*
X36679047Y12022105D01*
X37583809Y12307820D02*
X38202857Y12307820D01*
X37869523Y11926867D01*
X38012380Y11926867D01*
X38107619Y11879248D01*
X38155238Y11831629D01*
X38202857Y11736391D01*
X38202857Y11498296D01*
X38155238Y11403058D01*
X38107619Y11355439D01*
X38012380Y11307820D01*
X37726666Y11307820D01*
X37631428Y11355439D01*
X37583809Y11403058D01*
X38774285Y11879248D02*
X38679047Y11926867D01*
X38631428Y11974486D01*
X38583809Y12069724D01*
X38583809Y12117343D01*
X38631428Y12212581D01*
X38679047Y12260200D01*
X38774285Y12307820D01*
X38964761Y12307820D01*
X39060000Y12260200D01*
X39107619Y12212581D01*
X39155238Y12117343D01*
X39155238Y12069724D01*
X39107619Y11974486D01*
X39060000Y11926867D01*
X38964761Y11879248D01*
X38774285Y11879248D01*
X38679047Y11831629D01*
X38631428Y11784010D01*
X38583809Y11688772D01*
X38583809Y11498296D01*
X38631428Y11403058D01*
X38679047Y11355439D01*
X38774285Y11307820D01*
X38964761Y11307820D01*
X39060000Y11355439D01*
X39107619Y11403058D01*
X39155238Y11498296D01*
X39155238Y11688772D01*
X39107619Y11784010D01*
X39060000Y11831629D01*
X38964761Y11879248D01*
%TO.C,JP6*%
X27106666Y38723820D02*
X27106666Y38009534D01*
X27059047Y37866677D01*
X26963809Y37771439D01*
X26820952Y37723820D01*
X26725714Y37723820D01*
X27582857Y37723820D02*
X27582857Y38723820D01*
X27963809Y38723820D01*
X28059047Y38676200D01*
X28106666Y38628581D01*
X28154285Y38533343D01*
X28154285Y38390486D01*
X28106666Y38295248D01*
X28059047Y38247629D01*
X27963809Y38200010D01*
X27582857Y38200010D01*
X29011428Y38723820D02*
X28820952Y38723820D01*
X28725714Y38676200D01*
X28678095Y38628581D01*
X28582857Y38485724D01*
X28535238Y38295248D01*
X28535238Y37914296D01*
X28582857Y37819058D01*
X28630476Y37771439D01*
X28725714Y37723820D01*
X28916190Y37723820D01*
X29011428Y37771439D01*
X29059047Y37819058D01*
X29106666Y37914296D01*
X29106666Y38152391D01*
X29059047Y38247629D01*
X29011428Y38295248D01*
X28916190Y38342867D01*
X28725714Y38342867D01*
X28630476Y38295248D01*
X28582857Y38247629D01*
X28535238Y38152391D01*
%TO.C,U4*%
X2202380Y10998296D02*
X3011904Y10998296D01*
X3107142Y11045915D01*
X3154761Y11093534D01*
X3202380Y11188772D01*
X3202380Y11379248D01*
X3154761Y11474486D01*
X3107142Y11522105D01*
X3011904Y11569724D01*
X2202380Y11569724D01*
X2535714Y12474486D02*
X3202380Y12474486D01*
X2154761Y12236391D02*
X2869047Y11998296D01*
X2869047Y12617343D01*
X8580952Y12307820D02*
X9247619Y12307820D01*
X8819047Y11307820D01*
X10057142Y11974486D02*
X10057142Y11307820D01*
X9819047Y12355439D02*
X9580952Y11641153D01*
X10200000Y11641153D01*
X10580952Y11307820D02*
X10580952Y12307820D01*
X10580952Y11831629D02*
X11152380Y11831629D01*
X11152380Y11307820D02*
X11152380Y12307820D01*
X12200000Y11403058D02*
X12152380Y11355439D01*
X12009523Y11307820D01*
X11914285Y11307820D01*
X11771428Y11355439D01*
X11676190Y11450677D01*
X11628571Y11545915D01*
X11580952Y11736391D01*
X11580952Y11879248D01*
X11628571Y12069724D01*
X11676190Y12164962D01*
X11771428Y12260200D01*
X11914285Y12307820D01*
X12009523Y12307820D01*
X12152380Y12260200D01*
X12200000Y12212581D01*
X12485714Y12307820D02*
X13057142Y12307820D01*
X12771428Y11307820D02*
X12771428Y12307820D01*
X13819047Y11974486D02*
X13819047Y11307820D01*
X13580952Y12355439D02*
X13342857Y11641153D01*
X13961904Y11641153D01*
X14533333Y12307820D02*
X14628571Y12307820D01*
X14723809Y12260200D01*
X14771428Y12212581D01*
X14819047Y12117343D01*
X14866666Y11926867D01*
X14866666Y11688772D01*
X14819047Y11498296D01*
X14771428Y11403058D01*
X14723809Y11355439D01*
X14628571Y11307820D01*
X14533333Y11307820D01*
X14438095Y11355439D01*
X14390476Y11403058D01*
X14342857Y11498296D01*
X14295238Y11688772D01*
X14295238Y11926867D01*
X14342857Y12117343D01*
X14390476Y12212581D01*
X14438095Y12260200D01*
X14533333Y12307820D01*
X15200000Y12307820D02*
X15866666Y12307820D01*
X15438095Y11307820D01*
X16723809Y12307820D02*
X16247619Y12307820D01*
X16200000Y11831629D01*
X16247619Y11879248D01*
X16342857Y11926867D01*
X16580952Y11926867D01*
X16676190Y11879248D01*
X16723809Y11831629D01*
X16771428Y11736391D01*
X16771428Y11498296D01*
X16723809Y11403058D01*
X16676190Y11355439D01*
X16580952Y11307820D01*
X16342857Y11307820D01*
X16247619Y11355439D01*
X16200000Y11403058D01*
%TO.C,R3*%
X90003333Y36072820D02*
X89670000Y36549010D01*
X89431904Y36072820D02*
X89431904Y37072820D01*
X89812857Y37072820D01*
X89908095Y37025200D01*
X89955714Y36977581D01*
X90003333Y36882343D01*
X90003333Y36739486D01*
X89955714Y36644248D01*
X89908095Y36596629D01*
X89812857Y36549010D01*
X89431904Y36549010D01*
X90336666Y37072820D02*
X90955714Y37072820D01*
X90622380Y36691867D01*
X90765238Y36691867D01*
X90860476Y36644248D01*
X90908095Y36596629D01*
X90955714Y36501391D01*
X90955714Y36263296D01*
X90908095Y36168058D01*
X90860476Y36120439D01*
X90765238Y36072820D01*
X90479523Y36072820D01*
X90384285Y36120439D01*
X90336666Y36168058D01*
%TO.C,R2*%
X6183333Y30357820D02*
X5850000Y30834010D01*
X5611904Y30357820D02*
X5611904Y31357820D01*
X5992857Y31357820D01*
X6088095Y31310200D01*
X6135714Y31262581D01*
X6183333Y31167343D01*
X6183333Y31024486D01*
X6135714Y30929248D01*
X6088095Y30881629D01*
X5992857Y30834010D01*
X5611904Y30834010D01*
X6564285Y31262581D02*
X6611904Y31310200D01*
X6707142Y31357820D01*
X6945238Y31357820D01*
X7040476Y31310200D01*
X7088095Y31262581D01*
X7135714Y31167343D01*
X7135714Y31072105D01*
X7088095Y30929248D01*
X6516666Y30357820D01*
X7135714Y30357820D01*
%TO.C,R1*%
X3643333Y30357820D02*
X3310000Y30834010D01*
X3071904Y30357820D02*
X3071904Y31357820D01*
X3452857Y31357820D01*
X3548095Y31310200D01*
X3595714Y31262581D01*
X3643333Y31167343D01*
X3643333Y31024486D01*
X3595714Y30929248D01*
X3548095Y30881629D01*
X3452857Y30834010D01*
X3071904Y30834010D01*
X4595714Y30357820D02*
X4024285Y30357820D01*
X4310000Y30357820D02*
X4310000Y31357820D01*
X4214761Y31214962D01*
X4119523Y31119724D01*
X4024285Y31072105D01*
%TO.C,JP5*%
X18851666Y35167820D02*
X18851666Y34453534D01*
X18804047Y34310677D01*
X18708809Y34215439D01*
X18565952Y34167820D01*
X18470714Y34167820D01*
X19327857Y34167820D02*
X19327857Y35167820D01*
X19708809Y35167820D01*
X19804047Y35120200D01*
X19851666Y35072581D01*
X19899285Y34977343D01*
X19899285Y34834486D01*
X19851666Y34739248D01*
X19804047Y34691629D01*
X19708809Y34644010D01*
X19327857Y34644010D01*
X20804047Y35167820D02*
X20327857Y35167820D01*
X20280238Y34691629D01*
X20327857Y34739248D01*
X20423095Y34786867D01*
X20661190Y34786867D01*
X20756428Y34739248D01*
X20804047Y34691629D01*
X20851666Y34596391D01*
X20851666Y34358296D01*
X20804047Y34263058D01*
X20756428Y34215439D01*
X20661190Y34167820D01*
X20423095Y34167820D01*
X20327857Y34215439D01*
X20280238Y34263058D01*
%TO.C,JP4*%
X18851666Y36437820D02*
X18851666Y35723534D01*
X18804047Y35580677D01*
X18708809Y35485439D01*
X18565952Y35437820D01*
X18470714Y35437820D01*
X19327857Y35437820D02*
X19327857Y36437820D01*
X19708809Y36437820D01*
X19804047Y36390200D01*
X19851666Y36342581D01*
X19899285Y36247343D01*
X19899285Y36104486D01*
X19851666Y36009248D01*
X19804047Y35961629D01*
X19708809Y35914010D01*
X19327857Y35914010D01*
X20756428Y36104486D02*
X20756428Y35437820D01*
X20518333Y36485439D02*
X20280238Y35771153D01*
X20899285Y35771153D01*
%TO.C,JP3*%
X18851666Y37707820D02*
X18851666Y36993534D01*
X18804047Y36850677D01*
X18708809Y36755439D01*
X18565952Y36707820D01*
X18470714Y36707820D01*
X19327857Y36707820D02*
X19327857Y37707820D01*
X19708809Y37707820D01*
X19804047Y37660200D01*
X19851666Y37612581D01*
X19899285Y37517343D01*
X19899285Y37374486D01*
X19851666Y37279248D01*
X19804047Y37231629D01*
X19708809Y37184010D01*
X19327857Y37184010D01*
X20232619Y37707820D02*
X20851666Y37707820D01*
X20518333Y37326867D01*
X20661190Y37326867D01*
X20756428Y37279248D01*
X20804047Y37231629D01*
X20851666Y37136391D01*
X20851666Y36898296D01*
X20804047Y36803058D01*
X20756428Y36755439D01*
X20661190Y36707820D01*
X20375476Y36707820D01*
X20280238Y36755439D01*
X20232619Y36803058D01*
%TO.C,JP2*%
X16311666Y25642820D02*
X16311666Y24928534D01*
X16264047Y24785677D01*
X16168809Y24690439D01*
X16025952Y24642820D01*
X15930714Y24642820D01*
X16787857Y24642820D02*
X16787857Y25642820D01*
X17168809Y25642820D01*
X17264047Y25595200D01*
X17311666Y25547581D01*
X17359285Y25452343D01*
X17359285Y25309486D01*
X17311666Y25214248D01*
X17264047Y25166629D01*
X17168809Y25119010D01*
X16787857Y25119010D01*
X17740238Y25547581D02*
X17787857Y25595200D01*
X17883095Y25642820D01*
X18121190Y25642820D01*
X18216428Y25595200D01*
X18264047Y25547581D01*
X18311666Y25452343D01*
X18311666Y25357105D01*
X18264047Y25214248D01*
X17692619Y24642820D01*
X18311666Y24642820D01*
%TO.C,JP1*%
X16311666Y26912820D02*
X16311666Y26198534D01*
X16264047Y26055677D01*
X16168809Y25960439D01*
X16025952Y25912820D01*
X15930714Y25912820D01*
X16787857Y25912820D02*
X16787857Y26912820D01*
X17168809Y26912820D01*
X17264047Y26865200D01*
X17311666Y26817581D01*
X17359285Y26722343D01*
X17359285Y26579486D01*
X17311666Y26484248D01*
X17264047Y26436629D01*
X17168809Y26389010D01*
X16787857Y26389010D01*
X18311666Y25912820D02*
X17740238Y25912820D01*
X18025952Y25912820D02*
X18025952Y26912820D01*
X17930714Y26769962D01*
X17835476Y26674724D01*
X17740238Y26627105D01*
%TO.C,D1*%
X90701904Y44747820D02*
X90701904Y45747820D01*
X90940000Y45747820D01*
X91082857Y45700200D01*
X91178095Y45604962D01*
X91225714Y45509724D01*
X91273333Y45319248D01*
X91273333Y45176391D01*
X91225714Y44985915D01*
X91178095Y44890677D01*
X91082857Y44795439D01*
X90940000Y44747820D01*
X90701904Y44747820D01*
X92225714Y44747820D02*
X91654285Y44747820D01*
X91940000Y44747820D02*
X91940000Y45747820D01*
X91844761Y45604962D01*
X91749523Y45509724D01*
X91654285Y45462105D01*
%TO.C,C4*%
X9485333Y17753058D02*
X9437714Y17705439D01*
X9294857Y17657820D01*
X9199619Y17657820D01*
X9056761Y17705439D01*
X8961523Y17800677D01*
X8913904Y17895915D01*
X8866285Y18086391D01*
X8866285Y18229248D01*
X8913904Y18419724D01*
X8961523Y18514962D01*
X9056761Y18610200D01*
X9199619Y18657820D01*
X9294857Y18657820D01*
X9437714Y18610200D01*
X9485333Y18562581D01*
X10342476Y18324486D02*
X10342476Y17657820D01*
X10104380Y18705439D02*
X9866285Y17991153D01*
X10485333Y17991153D01*
%TO.C,C3*%
X55205333Y17753058D02*
X55157714Y17705439D01*
X55014857Y17657820D01*
X54919619Y17657820D01*
X54776761Y17705439D01*
X54681523Y17800677D01*
X54633904Y17895915D01*
X54586285Y18086391D01*
X54586285Y18229248D01*
X54633904Y18419724D01*
X54681523Y18514962D01*
X54776761Y18610200D01*
X54919619Y18657820D01*
X55014857Y18657820D01*
X55157714Y18610200D01*
X55205333Y18562581D01*
X55538666Y18657820D02*
X56157714Y18657820D01*
X55824380Y18276867D01*
X55967238Y18276867D01*
X56062476Y18229248D01*
X56110095Y18181629D01*
X56157714Y18086391D01*
X56157714Y17848296D01*
X56110095Y17753058D01*
X56062476Y17705439D01*
X55967238Y17657820D01*
X55681523Y17657820D01*
X55586285Y17705439D01*
X55538666Y17753058D01*
%TO.C,C2*%
X31075333Y17753058D02*
X31027714Y17705439D01*
X30884857Y17657820D01*
X30789619Y17657820D01*
X30646761Y17705439D01*
X30551523Y17800677D01*
X30503904Y17895915D01*
X30456285Y18086391D01*
X30456285Y18229248D01*
X30503904Y18419724D01*
X30551523Y18514962D01*
X30646761Y18610200D01*
X30789619Y18657820D01*
X30884857Y18657820D01*
X31027714Y18610200D01*
X31075333Y18562581D01*
X31456285Y18562581D02*
X31503904Y18610200D01*
X31599142Y18657820D01*
X31837238Y18657820D01*
X31932476Y18610200D01*
X31980095Y18562581D01*
X32027714Y18467343D01*
X32027714Y18372105D01*
X31980095Y18229248D01*
X31408666Y17657820D01*
X32027714Y17657820D01*
%TO.C,C1*%
X48855333Y46963058D02*
X48807714Y46915439D01*
X48664857Y46867820D01*
X48569619Y46867820D01*
X48426761Y46915439D01*
X48331523Y47010677D01*
X48283904Y47105915D01*
X48236285Y47296391D01*
X48236285Y47439248D01*
X48283904Y47629724D01*
X48331523Y47724962D01*
X48426761Y47820200D01*
X48569619Y47867820D01*
X48664857Y47867820D01*
X48807714Y47820200D01*
X48855333Y47772581D01*
X49807714Y46867820D02*
X49236285Y46867820D01*
X49522000Y46867820D02*
X49522000Y47867820D01*
X49426761Y47724962D01*
X49331523Y47629724D01*
X49236285Y47582105D01*
%TD*%
M02*
