%TF.GenerationSoftware,KiCad,Pcbnew,(5.1.6)-1*%
%TF.CreationDate,2020-12-27T00:23:24-08:00*%
%TF.ProjectId,rc-rom,72632d72-6f6d-42e6-9b69-6361645f7063,rev?*%
%TF.SameCoordinates,PX9157080PY9071968*%
%TF.FileFunction,Copper,L1,Top*%
%TF.FilePolarity,Positive*%
%FSLAX46Y46*%
G04 Gerber Fmt 4.6, Leading zero omitted, Abs format (unit mm)*
G04 Created by KiCad (PCBNEW (5.1.6)-1) date 2020-12-27 00:23:24*
%MOMM*%
%LPD*%
G01*
G04 APERTURE LIST*
%TA.AperFunction,ComponentPad*%
%ADD10O,1.600000X1.600000*%
%TD*%
%TA.AperFunction,ComponentPad*%
%ADD11C,1.600000*%
%TD*%
%TA.AperFunction,ComponentPad*%
%ADD12C,1.800000*%
%TD*%
%TA.AperFunction,ComponentPad*%
%ADD13O,1.440000X2.000000*%
%TD*%
%TA.AperFunction,ComponentPad*%
%ADD14O,1.600000X2.400000*%
%TD*%
%TA.AperFunction,ComponentPad*%
%ADD15O,1.700000X1.700000*%
%TD*%
%TA.AperFunction,ComponentPad*%
%ADD16C,1.700000*%
%TD*%
%TA.AperFunction,ViaPad*%
%ADD17C,0.600000*%
%TD*%
%TA.AperFunction,ViaPad*%
%ADD18C,0.900001*%
%TD*%
%TA.AperFunction,Conductor*%
%ADD19C,0.635000*%
%TD*%
%TA.AperFunction,Conductor*%
%ADD20C,0.254000*%
%TD*%
G04 APERTURE END LIST*
D10*
%TO.P,R4,2*%
%TO.N,/~Paged'*%
X93980000Y34620200D03*
D11*
%TO.P,R4,1*%
%TO.N,/~Paged*%
X93980000Y27000200D03*
%TD*%
D12*
%TO.P,D2,2*%
%TO.N,+5V*%
X96520000Y42240200D03*
%TO.P,D2,1*%
%TO.N,/~Paged'*%
%TA.AperFunction,ComponentPad*%
G36*
G01*
X93080000Y41790200D02*
X93080000Y42690200D01*
G75*
G02*
X93530000Y43140200I450000J0D01*
G01*
X94430000Y43140200D01*
G75*
G02*
X94880000Y42690200I0J-450000D01*
G01*
X94880000Y41790200D01*
G75*
G02*
X94430000Y41340200I-450000J0D01*
G01*
X93530000Y41340200D01*
G75*
G02*
X93080000Y41790200I0J450000D01*
G01*
G37*
%TD.AperFunction*%
%TD*%
D13*
%TO.P,U1,15*%
%TO.N,D3*%
X77470000Y42240200D03*
%TO.P,U1,14*%
%TO.N,GND*%
X77470000Y27000200D03*
%TO.P,U1,16*%
%TO.N,D4*%
X74930000Y42240200D03*
%TO.P,U1,13*%
%TO.N,D2*%
X74930000Y27000200D03*
%TO.P,U1,17*%
%TO.N,D5*%
X72390000Y42240200D03*
%TO.P,U1,12*%
%TO.N,D1*%
X72390000Y27000200D03*
%TO.P,U1,18*%
%TO.N,D6*%
X69850000Y42240200D03*
%TO.P,U1,11*%
%TO.N,D0*%
X69850000Y27000200D03*
%TO.P,U1,19*%
%TO.N,D7*%
X67310000Y42240200D03*
%TO.P,U1,10*%
%TO.N,A0*%
X67310000Y27000200D03*
%TO.P,U1,20*%
%TO.N,PAGE*%
X64770000Y42240200D03*
%TO.P,U1,9*%
%TO.N,A1*%
X64770000Y27000200D03*
%TO.P,U1,21*%
%TO.N,A10*%
X62230000Y42240200D03*
%TO.P,U1,8*%
%TO.N,A2*%
X62230000Y27000200D03*
%TO.P,U1,22*%
%TO.N,~RD*%
X59690000Y42240200D03*
%TO.P,U1,7*%
%TO.N,A3*%
X59690000Y27000200D03*
%TO.P,U1,23*%
%TO.N,A11*%
X57150000Y42240200D03*
%TO.P,U1,6*%
%TO.N,A4*%
X57150000Y27000200D03*
%TO.P,U1,24*%
%TO.N,A9*%
X54610000Y42240200D03*
%TO.P,U1,5*%
%TO.N,A5*%
X54610000Y27000200D03*
%TO.P,U1,25*%
%TO.N,A8*%
X52070000Y42240200D03*
%TO.P,U1,4*%
%TO.N,A6*%
X52070000Y27000200D03*
%TO.P,U1,26*%
%TO.N,ROM_A13*%
X49530000Y42240200D03*
%TO.P,U1,3*%
%TO.N,A7*%
X49530000Y27000200D03*
%TO.P,U1,27*%
%TO.N,/ROM_A14'*%
X46990000Y42240200D03*
%TO.P,U1,2*%
%TO.N,A12*%
X46990000Y27000200D03*
%TO.P,U1,28*%
%TO.N,+5V*%
X44450000Y42240200D03*
%TO.P,U1,1*%
%TO.N,/ROM_A15'*%
%TA.AperFunction,ComponentPad*%
G36*
G01*
X44810000Y26000200D02*
X44090000Y26000200D01*
G75*
G02*
X43730000Y26360200I0J360000D01*
G01*
X43730000Y27640200D01*
G75*
G02*
X44090000Y28000200I360000J0D01*
G01*
X44810000Y28000200D01*
G75*
G02*
X45170000Y27640200I0J-360000D01*
G01*
X45170000Y26360200D01*
G75*
G02*
X44810000Y26000200I-360000J0D01*
G01*
G37*
%TD.AperFunction*%
%TD*%
D14*
%TO.P,U3,14*%
%TO.N,+5V*%
X50800000Y15570200D03*
%TO.P,U3,7*%
%TO.N,GND*%
X66040000Y7950200D03*
%TO.P,U3,13*%
%TO.N,~RESET*%
X53340000Y15570200D03*
%TO.P,U3,6*%
%TO.N,/~Paged*%
X63500000Y7950200D03*
%TO.P,U3,12*%
%TO.N,D0*%
X55880000Y15570200D03*
%TO.P,U3,5*%
%TO.N,~ROM_EN*%
X60960000Y7950200D03*
%TO.P,U3,11*%
%TO.N,/~LED_CFG*%
X58420000Y15570200D03*
%TO.P,U3,4*%
%TO.N,+5V*%
X58420000Y7950200D03*
%TO.P,U3,10*%
X60960000Y15570200D03*
%TO.P,U3,3*%
%TO.N,/~ROM_CFG*%
X55880000Y7950200D03*
%TO.P,U3,9*%
%TO.N,/~LED*%
X63500000Y15570200D03*
%TO.P,U3,2*%
%TO.N,D0*%
X53340000Y7950200D03*
%TO.P,U3,8*%
%TO.N,Net-(U3-Pad8)*%
X66040000Y15570200D03*
%TO.P,U3,1*%
%TO.N,~RESET*%
%TA.AperFunction,ComponentPad*%
G36*
G01*
X51200000Y6750200D02*
X50400000Y6750200D01*
G75*
G02*
X50000000Y7150200I0J400000D01*
G01*
X50000000Y8750200D01*
G75*
G02*
X50400000Y9150200I400000J0D01*
G01*
X51200000Y9150200D01*
G75*
G02*
X51600000Y8750200I0J-400000D01*
G01*
X51600000Y7150200D01*
G75*
G02*
X51200000Y6750200I-400000J0D01*
G01*
G37*
%TD.AperFunction*%
%TD*%
%TO.P,U2,16*%
%TO.N,+5V*%
X26670000Y15570200D03*
%TO.P,U2,8*%
%TO.N,GND*%
X44450000Y7950200D03*
%TO.P,U2,15*%
%TO.N,/~LED_CFG*%
X29210000Y15570200D03*
%TO.P,U2,7*%
%TO.N,Net-(U2-Pad7)*%
X41910000Y7950200D03*
%TO.P,U2,14*%
%TO.N,Net-(U2-Pad14)*%
X31750000Y15570200D03*
%TO.P,U2,6*%
%TO.N,A3*%
X39370000Y7950200D03*
%TO.P,U2,13*%
%TO.N,Net-(U2-Pad13)*%
X34290000Y15570200D03*
%TO.P,U2,5*%
%TO.N,A2*%
X36830000Y7950200D03*
%TO.P,U2,12*%
%TO.N,Net-(U2-Pad12)*%
X36830000Y15570200D03*
%TO.P,U2,4*%
%TO.N,/~IOWR*%
X34290000Y7950200D03*
%TO.P,U2,11*%
%TO.N,Net-(U2-Pad11)*%
X39370000Y15570200D03*
%TO.P,U2,3*%
%TO.N,A4*%
X31750000Y7950200D03*
%TO.P,U2,10*%
%TO.N,Net-(U2-Pad10)*%
X41910000Y15570200D03*
%TO.P,U2,2*%
%TO.N,A5*%
X29210000Y7950200D03*
%TO.P,U2,9*%
%TO.N,/~ROM_CFG*%
X44450000Y15570200D03*
%TO.P,U2,1*%
%TO.N,A6*%
%TA.AperFunction,ComponentPad*%
G36*
G01*
X27070000Y6750200D02*
X26270000Y6750200D01*
G75*
G02*
X25870000Y7150200I0J400000D01*
G01*
X25870000Y8750200D01*
G75*
G02*
X26270000Y9150200I400000J0D01*
G01*
X27070000Y9150200D01*
G75*
G02*
X27470000Y8750200I0J-400000D01*
G01*
X27470000Y7150200D01*
G75*
G02*
X27070000Y6750200I-400000J0D01*
G01*
G37*
%TD.AperFunction*%
%TD*%
D15*
%TO.P,JP6,4*%
%TO.N,ROM_A14*%
X29210000Y35890200D03*
%TO.P,JP6,3*%
%TO.N,/ROM_A15'*%
X29210000Y33350200D03*
%TO.P,JP6,2*%
%TO.N,/ROM_A14'*%
X26670000Y35890200D03*
%TO.P,JP6,1*%
%TO.N,ROM_A15*%
X26670000Y33350200D03*
%TD*%
%TO.P,U4,1*%
%TO.N,/SZ1*%
%TA.AperFunction,ComponentPad*%
G36*
G01*
X5480000Y6750200D02*
X4680000Y6750200D01*
G75*
G02*
X4280000Y7150200I0J400000D01*
G01*
X4280000Y8750200D01*
G75*
G02*
X4680000Y9150200I400000J0D01*
G01*
X5480000Y9150200D01*
G75*
G02*
X5880000Y8750200I0J-400000D01*
G01*
X5880000Y7150200D01*
G75*
G02*
X5480000Y6750200I-400000J0D01*
G01*
G37*
%TD.AperFunction*%
D14*
%TO.P,U4,8*%
%TO.N,A15*%
X20320000Y15570200D03*
%TO.P,U4,2*%
%TO.N,/SZ2*%
X7620000Y7950200D03*
%TO.P,U4,9*%
%TO.N,/~ROM_CS*%
X17780000Y15570200D03*
%TO.P,U4,3*%
%TO.N,A7*%
X10160000Y7950200D03*
%TO.P,U4,10*%
%TO.N,PAGE*%
X15240000Y15570200D03*
%TO.P,U4,4*%
%TO.N,~WR*%
X12700000Y7950200D03*
%TO.P,U4,11*%
%TO.N,/~ROM_CS*%
X12700000Y15570200D03*
%TO.P,U4,5*%
%TO.N,~IOREQ*%
X15240000Y7950200D03*
%TO.P,U4,12*%
%TO.N,~MREQ*%
X10160000Y15570200D03*
%TO.P,U4,6*%
%TO.N,/~IOWR*%
X17780000Y7950200D03*
%TO.P,U4,13*%
%TO.N,~ROM_EN*%
X7620000Y15570200D03*
%TO.P,U4,7*%
%TO.N,GND*%
X20320000Y7950200D03*
%TO.P,U4,14*%
%TO.N,+5V*%
X5080000Y15570200D03*
%TD*%
D10*
%TO.P,R3,2*%
%TO.N,/~LED*%
X87630000Y27000200D03*
D11*
%TO.P,R3,1*%
%TO.N,/~LED'*%
X87630000Y34620200D03*
%TD*%
D10*
%TO.P,R2,2*%
%TO.N,GND*%
X6350000Y28905200D03*
D11*
%TO.P,R2,1*%
%TO.N,/SZ2*%
X6350000Y21285200D03*
%TD*%
D10*
%TO.P,R1,2*%
%TO.N,GND*%
X3810000Y28905200D03*
D11*
%TO.P,R1,1*%
%TO.N,/SZ1*%
X3810000Y21285200D03*
%TD*%
D15*
%TO.P,JP5,3*%
%TO.N,GND*%
X16510000Y33350200D03*
%TO.P,JP5,2*%
%TO.N,ROM_A13*%
X16510000Y35890200D03*
%TO.P,JP5,1*%
%TO.N,+5V*%
X16510000Y38430200D03*
%TD*%
%TO.P,JP4,3*%
%TO.N,GND*%
X13970000Y33350200D03*
%TO.P,JP4,2*%
%TO.N,ROM_A14*%
X13970000Y35890200D03*
%TO.P,JP4,1*%
%TO.N,+5V*%
X13970000Y38430200D03*
%TD*%
%TO.P,JP3,3*%
%TO.N,GND*%
X11430000Y33350200D03*
%TO.P,JP3,2*%
%TO.N,ROM_A15*%
X11430000Y35890200D03*
%TO.P,JP3,1*%
%TO.N,+5V*%
X11430000Y38430200D03*
%TD*%
%TO.P,JP2,3*%
%TO.N,/SZ2*%
X13970000Y23190200D03*
%TO.P,JP2,2*%
%TO.N,A13*%
X13970000Y25730200D03*
%TO.P,JP2,1*%
%TO.N,ROM_A13*%
X13970000Y28270200D03*
%TD*%
%TO.P,JP1,3*%
%TO.N,/SZ1*%
X11430000Y23190200D03*
%TO.P,JP1,2*%
%TO.N,A14*%
X11430000Y25730200D03*
%TO.P,JP1,1*%
%TO.N,ROM_A14*%
X11430000Y28270200D03*
%TD*%
D12*
%TO.P,D1,2*%
%TO.N,+5V*%
X90170000Y42240200D03*
%TO.P,D1,1*%
%TO.N,/~LED'*%
%TA.AperFunction,ComponentPad*%
G36*
G01*
X86730000Y41790200D02*
X86730000Y42690200D01*
G75*
G02*
X87180000Y43140200I450000J0D01*
G01*
X88080000Y43140200D01*
G75*
G02*
X88530000Y42690200I0J-450000D01*
G01*
X88530000Y41790200D01*
G75*
G02*
X88080000Y41340200I-450000J0D01*
G01*
X87180000Y41340200D01*
G75*
G02*
X86730000Y41790200I0J450000D01*
G01*
G37*
%TD.AperFunction*%
%TD*%
D11*
%TO.P,C4,2*%
%TO.N,GND*%
X7580000Y18110200D03*
%TO.P,C4,1*%
%TO.N,+5V*%
X5080000Y18110200D03*
%TD*%
%TO.P,C3,2*%
%TO.N,GND*%
X53300000Y18110200D03*
%TO.P,C3,1*%
%TO.N,+5V*%
X50800000Y18110200D03*
%TD*%
%TO.P,C2,2*%
%TO.N,GND*%
X29170000Y18110200D03*
%TO.P,C2,1*%
%TO.N,+5V*%
X26670000Y18110200D03*
%TD*%
%TO.P,C1,2*%
%TO.N,GND*%
X46950000Y47320200D03*
%TO.P,C1,1*%
%TO.N,+5V*%
X44450000Y47320200D03*
%TD*%
D15*
%TO.P,J2,10*%
%TO.N,Net-(J2-Pad10)*%
X64770000Y4140200D03*
%TO.P,J2,9*%
%TO.N,Net-(J2-Pad9)*%
X62230000Y4140200D03*
%TO.P,J2,8*%
%TO.N,Net-(J2-Pad8)*%
X59690000Y4140200D03*
%TO.P,J2,7*%
%TO.N,Net-(J2-Pad7)*%
X57150000Y4140200D03*
%TO.P,J2,6*%
%TO.N,Net-(J2-Pad6)*%
X54610000Y4140200D03*
%TO.P,J2,5*%
%TO.N,Net-(J2-Pad5)*%
X52070000Y4140200D03*
%TO.P,J2,4*%
%TO.N,PAGE*%
X49530000Y4140200D03*
%TO.P,J2,3*%
%TO.N,Net-(J2-Pad3)*%
X46990000Y4140200D03*
%TO.P,J2,2*%
%TO.N,+5V*%
X44450000Y4140200D03*
D16*
%TO.P,J2,1*%
%TO.N,GND*%
X41910000Y4140200D03*
%TD*%
D15*
%TO.P,J1,39*%
%TO.N,Net-(J1-Pad39)*%
X97790000Y1600200D03*
%TO.P,J1,38*%
%TO.N,Net-(J1-Pad38)*%
X95250000Y1600200D03*
%TO.P,J1,37*%
%TO.N,Net-(J1-Pad37)*%
X92710000Y1600200D03*
%TO.P,J1,36*%
%TO.N,Net-(J1-Pad36)*%
X90170000Y1600200D03*
%TO.P,J1,35*%
%TO.N,Net-(J1-Pad35)*%
X87630000Y1600200D03*
%TO.P,J1,34*%
%TO.N,D7*%
X85090000Y1600200D03*
%TO.P,J1,33*%
%TO.N,D6*%
X82550000Y1600200D03*
%TO.P,J1,32*%
%TO.N,D5*%
X80010000Y1600200D03*
%TO.P,J1,31*%
%TO.N,D4*%
X77470000Y1600200D03*
%TO.P,J1,30*%
%TO.N,D3*%
X74930000Y1600200D03*
%TO.P,J1,29*%
%TO.N,D2*%
X72390000Y1600200D03*
%TO.P,J1,28*%
%TO.N,D1*%
X69850000Y1600200D03*
%TO.P,J1,27*%
%TO.N,D0*%
X67310000Y1600200D03*
%TO.P,J1,26*%
%TO.N,~IOREQ*%
X64770000Y1600200D03*
%TO.P,J1,25*%
%TO.N,~RD*%
X62230000Y1600200D03*
%TO.P,J1,24*%
%TO.N,~WR*%
X59690000Y1600200D03*
%TO.P,J1,23*%
%TO.N,~MREQ*%
X57150000Y1600200D03*
%TO.P,J1,22*%
%TO.N,Net-(J1-Pad22)*%
X54610000Y1600200D03*
%TO.P,J1,21*%
%TO.N,Net-(J1-Pad21)*%
X52070000Y1600200D03*
%TO.P,J1,20*%
%TO.N,~RESET*%
X49530000Y1600200D03*
%TO.P,J1,19*%
%TO.N,Net-(J1-Pad19)*%
X46990000Y1600200D03*
%TO.P,J1,18*%
%TO.N,+5V*%
X44450000Y1600200D03*
%TO.P,J1,17*%
%TO.N,GND*%
X41910000Y1600200D03*
%TO.P,J1,16*%
%TO.N,A0*%
X39370000Y1600200D03*
%TO.P,J1,15*%
%TO.N,A1*%
X36830000Y1600200D03*
%TO.P,J1,14*%
%TO.N,A2*%
X34290000Y1600200D03*
%TO.P,J1,13*%
%TO.N,A3*%
X31750000Y1600200D03*
%TO.P,J1,12*%
%TO.N,A4*%
X29210000Y1600200D03*
%TO.P,J1,11*%
%TO.N,A5*%
X26670000Y1600200D03*
%TO.P,J1,10*%
%TO.N,A6*%
X24130000Y1600200D03*
%TO.P,J1,9*%
%TO.N,A7*%
X21590000Y1600200D03*
%TO.P,J1,8*%
%TO.N,A8*%
X19050000Y1600200D03*
%TO.P,J1,7*%
%TO.N,A9*%
X16510000Y1600200D03*
%TO.P,J1,6*%
%TO.N,A10*%
X13970000Y1600200D03*
%TO.P,J1,5*%
%TO.N,A11*%
X11430000Y1600200D03*
%TO.P,J1,4*%
%TO.N,A12*%
X8890000Y1600200D03*
%TO.P,J1,3*%
%TO.N,A13*%
X6350000Y1600200D03*
%TO.P,J1,2*%
%TO.N,A14*%
X3810000Y1600200D03*
%TO.P,J1,1*%
%TO.N,A15*%
%TA.AperFunction,ComponentPad*%
G36*
G01*
X1695000Y750200D02*
X845000Y750200D01*
G75*
G02*
X420000Y1175200I0J425000D01*
G01*
X420000Y2025200D01*
G75*
G02*
X845000Y2450200I425000J0D01*
G01*
X1695000Y2450200D01*
G75*
G02*
X2120000Y2025200I0J-425000D01*
G01*
X2120000Y1175200D01*
G75*
G02*
X1695000Y750200I-425000J0D01*
G01*
G37*
%TD.AperFunction*%
%TD*%
D17*
%TO.N,D1*%
X74295000Y25095200D03*
%TO.N,D0*%
X62865000Y13665200D03*
%TO.N,~IOREQ*%
X53975000Y10490200D03*
X55880000Y4775200D03*
%TO.N,~WR*%
X56515000Y11125200D03*
%TO.N,~MREQ*%
X52705000Y12395200D03*
%TO.N,+5V*%
X60325000Y9855200D03*
D18*
X19050000Y24460200D03*
X47942500Y17157700D03*
D17*
X55245000Y18745200D03*
%TO.N,A0*%
X64770000Y25095200D03*
%TO.N,A2*%
X35560000Y5410200D03*
%TO.N,A3*%
X37465000Y9855200D03*
%TO.N,A7*%
X21590000Y5410200D03*
%TO.N,A8*%
X54610000Y39700200D03*
%TO.N,A11*%
X52705000Y44145200D03*
%TO.N,A12*%
X41275000Y25095200D03*
X37465000Y27635200D03*
%TO.N,A15*%
X4445000Y4775200D03*
%TO.N,PAGE*%
X64770000Y39700180D03*
%TO.N,ROM_A13*%
X20320000Y37160200D03*
X47625000Y44145200D03*
%TO.N,ROM_A14*%
X19050000Y37160200D03*
%TO.N,ROM_A15*%
X20320000Y33350200D03*
%TO.N,/~LED_CFG*%
X56515000Y12395200D03*
%TO.N,/~ROM_CFG*%
X46990000Y9855200D03*
X46990000Y14935200D03*
%TO.N,/ROM_A15'*%
X40005001Y31445201D03*
%TO.N,/~LED*%
X78105000Y30175200D03*
X65405000Y18110200D03*
%TO.N,~ROM_EN*%
X57785000Y11125200D03*
%TO.N,/~Paged*%
X65405000Y9855200D03*
X78105000Y28905200D03*
X85090000Y27635200D03*
%TD*%
D19*
%TO.N,GND*%
X41910000Y1600200D02*
X41910000Y4140200D01*
D20*
%TO.N,D7*%
X80645000Y46050200D02*
X71120000Y46050200D01*
X83820000Y42875200D02*
X80645000Y46050200D01*
X85090000Y1600200D02*
X83820000Y2870200D01*
X71120000Y46050200D02*
X67310000Y42240200D01*
X83820000Y2870200D02*
X83820000Y42875200D01*
%TO.N,D6*%
X73025000Y45415200D02*
X69850000Y42240200D01*
X80010000Y45415200D02*
X73025000Y45415200D01*
X82550000Y1600200D02*
X82550000Y42875200D01*
X82550000Y42875200D02*
X80010000Y45415200D01*
%TO.N,D5*%
X79375000Y44780200D02*
X74930000Y44780200D01*
X74930000Y44780200D02*
X72390000Y42240200D01*
X81280000Y42875200D02*
X79375000Y44780200D01*
X80010000Y1600200D02*
X81280000Y2870200D01*
X81280000Y2870200D02*
X81280000Y42875200D01*
%TO.N,D4*%
X78740000Y44145200D02*
X76835000Y44145200D01*
X80010000Y42875200D02*
X78740000Y44145200D01*
X77470000Y1600200D02*
X80010000Y4140200D01*
X76835000Y44145200D02*
X74930000Y42240200D01*
X80010000Y4140200D02*
X80010000Y42875200D01*
%TO.N,D3*%
X78740000Y40970200D02*
X77470000Y42240200D01*
X74930000Y1600200D02*
X78740000Y5410200D01*
X78740000Y5410200D02*
X78740000Y40970200D01*
%TO.N,D2*%
X76200000Y5410200D02*
X76200000Y25730200D01*
X72390000Y1600200D02*
X76200000Y5410200D01*
X76200000Y25730200D02*
X74930000Y27000200D01*
%TO.N,D1*%
X74295000Y6045200D02*
X74295000Y25095200D01*
X69850000Y1600200D02*
X74295000Y6045200D01*
%TO.N,D0*%
X53340000Y11760200D02*
X53340000Y7950200D01*
X55880000Y15570200D02*
X55880000Y14300200D01*
X55880000Y14300200D02*
X53340000Y11760200D01*
X64770000Y19380200D02*
X64770000Y13665200D01*
X69850000Y27000200D02*
X69850000Y24460200D01*
X69850000Y24460200D02*
X64770000Y19380200D01*
X67310000Y1600200D02*
X67310000Y4140200D01*
X64770000Y13665200D02*
X62865000Y13665200D01*
X64770000Y6680200D02*
X64770000Y13665200D01*
X67310000Y4140200D02*
X64770000Y6680200D01*
%TO.N,~IOREQ*%
X55880000Y5410200D02*
X55880000Y4775200D01*
X54610000Y6680200D02*
X55880000Y5410200D01*
X53975000Y10490200D02*
X54610000Y9855200D01*
X54610000Y9855200D02*
X54610000Y6680200D01*
%TO.N,~RD*%
X61595000Y40335200D02*
X59690000Y42240200D01*
X68580000Y25095200D02*
X68580000Y37160200D01*
X60960000Y2870200D02*
X60960000Y5410200D01*
X60960000Y5410200D02*
X62230000Y6680200D01*
X65405000Y40335200D02*
X61595000Y40335200D01*
X62230000Y6680200D02*
X62230000Y18745200D01*
X68580000Y37160200D02*
X65405000Y40335200D01*
X62230000Y1600200D02*
X60960000Y2870200D01*
X62230000Y18745200D02*
X68580000Y25095200D01*
%TO.N,~WR*%
X59690000Y1600200D02*
X58420000Y2870200D01*
X57150000Y6680200D02*
X57150000Y10490200D01*
X58420000Y2870200D02*
X58420000Y5410200D01*
X58420000Y5410200D02*
X57150000Y6680200D01*
X57150000Y10490200D02*
X56515000Y11125200D01*
%TO.N,~MREQ*%
X52070000Y11760200D02*
X52705000Y12395200D01*
X55880000Y2870200D02*
X53975000Y2870200D01*
X53340000Y5410200D02*
X52070000Y6680200D01*
X57150000Y1600200D02*
X55880000Y2870200D01*
X52070000Y6680200D02*
X52070000Y11760200D01*
X53340000Y3505200D02*
X53340000Y5410200D01*
X53975000Y2870200D02*
X53340000Y3505200D01*
%TO.N,~RESET*%
X50800000Y2870200D02*
X49530000Y1600200D01*
X50800000Y7950200D02*
X50800000Y2870200D01*
X50800000Y11760200D02*
X50800000Y9220200D01*
X50800000Y9220200D02*
X50800000Y7950200D01*
X53340000Y15570200D02*
X53340000Y14300200D01*
X53340000Y14300200D02*
X50800000Y11760200D01*
D19*
%TO.N,+5V*%
X44450000Y4140200D02*
X44450000Y1600200D01*
D20*
X16510000Y38430200D02*
X13970000Y38430200D01*
X13970000Y38430200D02*
X11430000Y38430200D01*
D19*
X5080000Y18110200D02*
X5080000Y15570200D01*
D20*
X60960000Y10490200D02*
X60325000Y9855200D01*
X60960000Y15570200D02*
X60960000Y10490200D01*
D19*
X44450000Y4140200D02*
X48260000Y7950200D01*
X48260000Y13030200D02*
X50800000Y15570200D01*
X48260000Y7950200D02*
X48260000Y9855200D01*
X48260000Y9855200D02*
X48260000Y13030200D01*
X44450000Y42240200D02*
X20320000Y42240200D01*
X19050000Y24460200D02*
X19050000Y35890200D01*
X19050000Y35890200D02*
X16510000Y38430200D01*
X16510000Y38430200D02*
X20320000Y42240200D01*
X44450000Y44780200D02*
X44450000Y42240200D01*
X44450000Y47320200D02*
X44450000Y44780200D01*
X5080000Y18110200D02*
X6667500Y19697700D01*
X14287500Y19697700D02*
X19050000Y24460200D01*
X6667500Y19697700D02*
X14287500Y19697700D01*
D20*
X57785000Y18745200D02*
X60960000Y15570200D01*
X55245000Y18745200D02*
X57785000Y18745200D01*
D19*
X50800000Y15570200D02*
X49212500Y17157700D01*
X49212500Y17157700D02*
X47942500Y17157700D01*
D20*
X85725000Y46685200D02*
X90170000Y42240200D01*
X70485000Y46685200D02*
X85725000Y46685200D01*
X44450000Y45415200D02*
X69215000Y45415200D01*
X69215000Y45415200D02*
X70485000Y46685200D01*
X95250000Y43510200D02*
X96520000Y42240200D01*
X90170000Y42240200D02*
X91440000Y43510200D01*
X91440000Y43510200D02*
X95250000Y43510200D01*
%TO.N,A0*%
X59690000Y20015200D02*
X64770000Y25095200D01*
X49530000Y20015200D02*
X59690000Y20015200D01*
X46355000Y16840200D02*
X49530000Y20015200D01*
X43180000Y6680200D02*
X43180000Y10490200D01*
X39370000Y1600200D02*
X39370000Y4140200D01*
X46355000Y13665200D02*
X46355000Y16840200D01*
X42545000Y6045200D02*
X43180000Y6680200D01*
X43180000Y10490200D02*
X46355000Y13665200D01*
X39370000Y4140200D02*
X41275000Y6045200D01*
X41275000Y6045200D02*
X42545000Y6045200D01*
%TO.N,A1*%
X58420000Y20650200D02*
X64770000Y27000200D01*
X45720000Y17475200D02*
X48895000Y20650200D01*
X36830000Y1600200D02*
X36830000Y2870200D01*
X48895000Y20650200D02*
X58420000Y20650200D01*
X40640000Y6680200D02*
X40640000Y9220200D01*
X40640000Y9220200D02*
X45720000Y14300200D01*
X36830000Y2870200D02*
X40640000Y6680200D01*
X45720000Y14300200D02*
X45720000Y17475200D01*
%TO.N,A2*%
X34290000Y4140200D02*
X35560000Y5410200D01*
X34290000Y1600200D02*
X34290000Y4140200D01*
X38735000Y9855200D02*
X36830000Y7950200D01*
X56515000Y21285200D02*
X47625000Y21285200D01*
X47625000Y21285200D02*
X43180000Y16840200D01*
X62230000Y27000200D02*
X56515000Y21285200D01*
X43180000Y16840200D02*
X43180000Y14300200D01*
X43180000Y14300200D02*
X38735000Y9855200D01*
%TO.N,A3*%
X37465000Y6045200D02*
X39370000Y7950200D01*
X31750000Y1600200D02*
X31750000Y4140200D01*
X33655000Y6045200D02*
X37465000Y6045200D01*
X31750000Y4140200D02*
X33655000Y6045200D01*
X37465000Y11125200D02*
X37465000Y9855200D01*
X54610000Y21920200D02*
X45720000Y21920200D01*
X59690000Y27000200D02*
X54610000Y21920200D01*
X45720000Y21920200D02*
X40640000Y16840200D01*
X40640000Y14300200D02*
X37465000Y11125200D01*
X40640000Y16840200D02*
X40640000Y14300200D01*
%TO.N,A4*%
X29210000Y5410200D02*
X31750000Y7950200D01*
X29210000Y1600200D02*
X29210000Y5410200D01*
X38100000Y14300200D02*
X31750000Y7950200D01*
X43815000Y22555200D02*
X38100000Y16840200D01*
X57150000Y27000200D02*
X52705000Y22555200D01*
X38100000Y16840200D02*
X38100000Y14300200D01*
X52705000Y22555200D02*
X43815000Y22555200D01*
%TO.N,A5*%
X26670000Y5410200D02*
X29210000Y7950200D01*
X26670000Y1600200D02*
X26670000Y5410200D01*
X35560000Y14300200D02*
X29210000Y7950200D01*
X35560000Y16840200D02*
X35560000Y14300200D01*
X41910000Y23190200D02*
X35560000Y16840200D01*
X54610000Y27000200D02*
X50800000Y23190200D01*
X50800000Y23190200D02*
X41910000Y23190200D01*
%TO.N,A6*%
X24130000Y5410200D02*
X26670000Y7950200D01*
X24130000Y1600200D02*
X24130000Y5410200D01*
X33020000Y14300200D02*
X26670000Y7950200D01*
X33020000Y16840200D02*
X33020000Y14300200D01*
X40005000Y23825200D02*
X33020000Y16840200D01*
X52070000Y27000200D02*
X48895000Y23825200D01*
X48895000Y23825200D02*
X40005000Y23825200D01*
%TO.N,A7*%
X48260000Y25730200D02*
X49530000Y27000200D01*
X46990000Y24460200D02*
X48260000Y25730200D01*
X30480000Y16840200D02*
X38100000Y24460200D01*
X21590000Y1600200D02*
X21590000Y5410200D01*
X30480000Y14300200D02*
X30480000Y16840200D01*
X38100000Y24460200D02*
X46990000Y24460200D01*
X21590000Y5410200D02*
X27305000Y11125200D01*
X27305000Y11125200D02*
X30480000Y14300200D01*
%TO.N,A8*%
X27940000Y21285200D02*
X31750000Y25095200D01*
X19050000Y1600200D02*
X19050000Y4140200D01*
X40005000Y25095200D02*
X54610000Y39700200D01*
X19050000Y4140200D02*
X27940000Y13030200D01*
X27940000Y13030200D02*
X27940000Y21285200D01*
X31750000Y25095200D02*
X40005000Y25095200D01*
%TO.N,A9*%
X25400000Y20015200D02*
X25400000Y14300200D01*
X25400000Y14300200D02*
X22225000Y11125200D01*
X20955000Y11125200D02*
X19050000Y9220200D01*
X31115000Y25730200D02*
X25400000Y20015200D01*
X19050000Y9220200D02*
X19050000Y6680200D01*
X39370000Y25730200D02*
X31115000Y25730200D01*
X54610000Y42240200D02*
X54610000Y40970200D01*
X54610000Y40970200D02*
X39370000Y25730200D01*
X22225000Y11125200D02*
X20955000Y11125200D01*
X19050000Y6680200D02*
X16510000Y4140200D01*
X16510000Y4140200D02*
X16510000Y1600200D01*
%TO.N,A10*%
X60325000Y44145200D02*
X62230000Y42240200D01*
X16510000Y9220200D02*
X19050000Y11760200D01*
X16510000Y6680200D02*
X16510000Y9220200D01*
X53340000Y40970200D02*
X53340000Y43510200D01*
X19050000Y11760200D02*
X21590000Y11760200D01*
X13970000Y1600200D02*
X13970000Y4140200D01*
X53340000Y43510200D02*
X53975000Y44145200D01*
X24130000Y20015200D02*
X30480000Y26365200D01*
X21590000Y11760200D02*
X24130000Y14300200D01*
X13970000Y4140200D02*
X16510000Y6680200D01*
X24130000Y14300200D02*
X24130000Y20015200D01*
X30480000Y26365200D02*
X38735000Y26365200D01*
X53975000Y44145200D02*
X60325000Y44145200D01*
X38735000Y26365200D02*
X53340000Y40970200D01*
%TO.N,A11*%
X51435000Y44145200D02*
X52705000Y44145200D01*
X50800000Y43510200D02*
X51435000Y44145200D01*
X17145000Y12395200D02*
X20955000Y12395200D01*
X13970000Y9220200D02*
X17145000Y12395200D01*
X11430000Y4140200D02*
X13970000Y6680200D01*
X13970000Y6680200D02*
X13970000Y9220200D01*
X11430000Y1600200D02*
X11430000Y4140200D01*
X20955000Y12395200D02*
X22860000Y14300200D01*
X50800000Y39700200D02*
X50800000Y43510200D01*
X22860000Y20015200D02*
X29845000Y27000200D01*
X29845000Y27000200D02*
X38100000Y27000200D01*
X22860000Y14300200D02*
X22860000Y20015200D01*
X38100000Y27000200D02*
X50800000Y39700200D01*
%TO.N,A12*%
X46990000Y27000200D02*
X45085000Y25095200D01*
X45085000Y25095200D02*
X41275000Y25095200D01*
X15240000Y13030200D02*
X20320000Y13030200D01*
X21590000Y14300200D02*
X21590000Y20015200D01*
X20320000Y13030200D02*
X21590000Y14300200D01*
X8890000Y1600200D02*
X8890000Y4140200D01*
X11430000Y6680200D02*
X11430000Y9220200D01*
X8890000Y4140200D02*
X11430000Y6680200D01*
X21590000Y20015200D02*
X29210000Y27635200D01*
X11430000Y9220200D02*
X15240000Y13030200D01*
X29210000Y27635200D02*
X37465000Y27635200D01*
%TO.N,A13*%
X12700000Y24460200D02*
X13970000Y25730200D01*
X2540000Y21920200D02*
X5080000Y24460200D01*
X5080000Y24460200D02*
X12700000Y24460200D01*
X6350000Y1600200D02*
X2540000Y5410200D01*
X2540000Y5410200D02*
X2540000Y21920200D01*
%TO.N,A14*%
X4445000Y25730200D02*
X11430000Y25730200D01*
X1905000Y23190200D02*
X4445000Y25730200D01*
X3810000Y1600200D02*
X1905000Y3505200D01*
X1905000Y3505200D02*
X1905000Y23190200D01*
%TO.N,A15*%
X18415000Y13665200D02*
X20320000Y15570200D01*
X8890000Y9220200D02*
X13335000Y13665200D01*
X4445000Y4775200D02*
X6985000Y4775200D01*
X13335000Y13665200D02*
X18415000Y13665200D01*
X6985000Y4775200D02*
X8890000Y6680200D01*
X8890000Y6680200D02*
X8890000Y9220200D01*
%TO.N,PAGE*%
X48260000Y38430200D02*
X48260000Y43510200D01*
X38100000Y28270200D02*
X48260000Y38430200D01*
X15240000Y15570200D02*
X27940000Y28270200D01*
X27940000Y28270200D02*
X38100000Y28270200D01*
X62230000Y44780200D02*
X64770000Y42240200D01*
X48260000Y43510200D02*
X49530000Y44780200D01*
X49530000Y44780200D02*
X62230000Y44780200D01*
X49530000Y11760200D02*
X52070000Y14300200D01*
X49530000Y4140200D02*
X49530000Y11760200D01*
X52070000Y14300200D02*
X52070000Y18745200D01*
X60960000Y19380200D02*
X66040000Y24460200D01*
X66040000Y24460200D02*
X66040000Y38430180D01*
X66040000Y38430180D02*
X64770000Y39700180D01*
X52705000Y19380200D02*
X60960000Y19380200D01*
X52070000Y18745200D02*
X52705000Y19380200D01*
%TO.N,ROM_A13*%
X13970000Y28270200D02*
X15240000Y29540200D01*
X15240000Y29540200D02*
X15240000Y34620200D01*
X15240000Y34620200D02*
X16510000Y35890200D01*
X45720000Y40970200D02*
X45085000Y40335200D01*
X46355000Y44145200D02*
X45720000Y43510200D01*
X23495000Y40335200D02*
X20320000Y37160200D01*
X45720000Y43510200D02*
X45720000Y40970200D01*
X45085000Y40335200D02*
X23495000Y40335200D01*
X47625000Y44145200D02*
X46355000Y44145200D01*
%TO.N,ROM_A14*%
X11430000Y28270200D02*
X12700000Y29540200D01*
X12700000Y29540200D02*
X12700000Y34620200D01*
X12700000Y34620200D02*
X13970000Y35890200D01*
X27940000Y34620200D02*
X21590000Y34620200D01*
X29210000Y35890200D02*
X27940000Y34620200D01*
X21590000Y34620200D02*
X19050000Y37160200D01*
%TO.N,ROM_A15*%
X26670000Y33350200D02*
X20320000Y33350200D01*
%TO.N,/~LED_CFG*%
X58420000Y15570200D02*
X58420000Y14300200D01*
X58420000Y14300200D02*
X56515000Y12395200D01*
%TO.N,/~ROM_CFG*%
X46990000Y9855200D02*
X46990000Y14935200D01*
%TO.N,/SZ1*%
X5715000Y23190200D02*
X11430000Y23190200D01*
X3810000Y21285200D02*
X5715000Y23190200D01*
X3175000Y9855200D02*
X5080000Y7950200D01*
X3175000Y20015200D02*
X3175000Y9855200D01*
X3810000Y21285200D02*
X3810000Y20650200D01*
X3810000Y20650200D02*
X3175000Y20015200D01*
%TO.N,/SZ2*%
X3810000Y18745200D02*
X6350000Y21285200D01*
X7620000Y7950200D02*
X3810000Y11760200D01*
X3810000Y11760200D02*
X3810000Y18745200D01*
X12700000Y21920200D02*
X13970000Y23190200D01*
X7620000Y21920200D02*
X12700000Y21920200D01*
X6350000Y21285200D02*
X6985000Y21285200D01*
X6985000Y21285200D02*
X7620000Y21920200D01*
%TO.N,/ROM_A15'*%
X29210000Y33350200D02*
X38100002Y33350200D01*
X38100002Y33350200D02*
X40005001Y31445201D01*
%TO.N,/ROM_A14'*%
X46990000Y40970200D02*
X46990000Y42240200D01*
X45720000Y39700200D02*
X46990000Y40970200D01*
X26670000Y35890200D02*
X30480000Y39700200D01*
X30480000Y39700200D02*
X45720000Y39700200D01*
%TO.N,/~LED*%
X78105000Y30175200D02*
X73025000Y30175200D01*
X73025000Y30175200D02*
X71120000Y28270200D01*
X71120000Y28270200D02*
X71120000Y23825200D01*
X71120000Y23825200D02*
X65405000Y18110200D01*
%TO.N,/~LED'*%
X87630000Y34620200D02*
X87630000Y42240200D01*
%TO.N,~ROM_EN*%
X60960000Y7950200D02*
X57785000Y11125200D01*
%TO.N,/~Paged'*%
X93980000Y34620200D02*
X93980000Y42240200D01*
%TO.N,/~Paged*%
X92710000Y25730200D02*
X93980000Y27000200D01*
X85090000Y27635200D02*
X86995000Y25730200D01*
X86995000Y25730200D02*
X92710000Y25730200D01*
X74295000Y28905200D02*
X78105000Y28905200D01*
X72390000Y16840200D02*
X72390000Y24460200D01*
X73660000Y28270200D02*
X74295000Y28905200D01*
X65405000Y9855200D02*
X72390000Y16840200D01*
X72390000Y24460200D02*
X73660000Y25730200D01*
X73660000Y25730200D02*
X73660000Y28270200D01*
%TD*%
M02*
