%TF.GenerationSoftware,KiCad,Pcbnew,(5.1.6)-1*%
%TF.CreationDate,2021-01-05T21:14:47-08:00*%
%TF.ProjectId,rc-rom,72632d72-6f6d-42e6-9b69-6361645f7063,rev?*%
%TF.SameCoordinates,PX9157080PY9071968*%
%TF.FileFunction,Legend,Top*%
%TF.FilePolarity,Positive*%
%FSLAX46Y46*%
G04 Gerber Fmt 4.6, Leading zero omitted, Abs format (unit mm)*
G04 Created by KiCad (PCBNEW (5.1.6)-1) date 2021-01-05 21:14:47*
%MOMM*%
%LPD*%
G01*
G04 APERTURE LIST*
%ADD10C,0.150000*%
%ADD11C,0.381000*%
%ADD12C,0.300000*%
%ADD13C,0.200000*%
%ADD14C,0.120000*%
%ADD15C,0.100000*%
G04 APERTURE END LIST*
D10*
X97028000Y44018200D02*
X97028000Y43510200D01*
X96774000Y43764200D02*
X97282000Y43764200D01*
X93202380Y38612820D02*
X93202380Y39612820D01*
X93583333Y39612820D01*
X93678571Y39565200D01*
X93726190Y39517581D01*
X93773809Y39422343D01*
X93773809Y39279486D01*
X93726190Y39184248D01*
X93678571Y39136629D01*
X93583333Y39089010D01*
X93202380Y39089010D01*
X94630952Y38612820D02*
X94630952Y39136629D01*
X94583333Y39231867D01*
X94488095Y39279486D01*
X94297619Y39279486D01*
X94202380Y39231867D01*
X94630952Y38660439D02*
X94535714Y38612820D01*
X94297619Y38612820D01*
X94202380Y38660439D01*
X94154761Y38755677D01*
X94154761Y38850915D01*
X94202380Y38946153D01*
X94297619Y38993772D01*
X94535714Y38993772D01*
X94630952Y39041391D01*
X95535714Y39279486D02*
X95535714Y38469962D01*
X95488095Y38374724D01*
X95440476Y38327105D01*
X95345238Y38279486D01*
X95202380Y38279486D01*
X95107142Y38327105D01*
X95535714Y38660439D02*
X95440476Y38612820D01*
X95250000Y38612820D01*
X95154761Y38660439D01*
X95107142Y38708058D01*
X95059523Y38803296D01*
X95059523Y39089010D01*
X95107142Y39184248D01*
X95154761Y39231867D01*
X95250000Y39279486D01*
X95440476Y39279486D01*
X95535714Y39231867D01*
X96392857Y38660439D02*
X96297619Y38612820D01*
X96107142Y38612820D01*
X96011904Y38660439D01*
X95964285Y38755677D01*
X95964285Y39136629D01*
X96011904Y39231867D01*
X96107142Y39279486D01*
X96297619Y39279486D01*
X96392857Y39231867D01*
X96440476Y39136629D01*
X96440476Y39041391D01*
X95964285Y38946153D01*
X97297619Y38612820D02*
X97297619Y39612820D01*
X97297619Y38660439D02*
X97202380Y38612820D01*
X97011904Y38612820D01*
X96916666Y38660439D01*
X96869047Y38708058D01*
X96821428Y38803296D01*
X96821428Y39089010D01*
X96869047Y39184248D01*
X96916666Y39231867D01*
X97011904Y39279486D01*
X97202380Y39279486D01*
X97297619Y39231867D01*
X9207500Y29222700D02*
X10477500Y30492700D01*
X30162500Y30492700D02*
G75*
G02*
X30797500Y29857700I0J-635000D01*
G01*
X23177500Y44462700D02*
X24447500Y45732700D01*
X32067500Y45732700D02*
G75*
G02*
X32702500Y45097700I0J-635000D01*
G01*
X20637500Y43827700D02*
G75*
G02*
X21590000Y42875200I0J-952500D01*
G01*
X68867976Y12972581D02*
X68915595Y13020200D01*
X69010833Y13067820D01*
X69248928Y13067820D01*
X69344166Y13020200D01*
X69391785Y12972581D01*
X69439404Y12877343D01*
X69439404Y12782105D01*
X69391785Y12639248D01*
X68820357Y12067820D01*
X69439404Y12067820D01*
X69772738Y13067820D02*
X70439404Y13067820D01*
X70010833Y12067820D01*
X71391785Y12163058D02*
X71344166Y12115439D01*
X71201309Y12067820D01*
X71106071Y12067820D01*
X70963214Y12115439D01*
X70867976Y12210677D01*
X70820357Y12305915D01*
X70772738Y12496391D01*
X70772738Y12639248D01*
X70820357Y12829724D01*
X70867976Y12924962D01*
X70963214Y13020200D01*
X71106071Y13067820D01*
X71201309Y13067820D01*
X71344166Y13020200D01*
X71391785Y12972581D01*
X72296547Y13067820D02*
X71820357Y13067820D01*
X71772738Y12591629D01*
X71820357Y12639248D01*
X71915595Y12686867D01*
X72153690Y12686867D01*
X72248928Y12639248D01*
X72296547Y12591629D01*
X72344166Y12496391D01*
X72344166Y12258296D01*
X72296547Y12163058D01*
X72248928Y12115439D01*
X72153690Y12067820D01*
X71915595Y12067820D01*
X71820357Y12115439D01*
X71772738Y12163058D01*
X73296547Y12067820D02*
X72725119Y12067820D01*
X73010833Y12067820D02*
X73010833Y13067820D01*
X72915595Y12924962D01*
X72820357Y12829724D01*
X72725119Y12782105D01*
X73677500Y12972581D02*
X73725119Y13020200D01*
X73820357Y13067820D01*
X74058452Y13067820D01*
X74153690Y13020200D01*
X74201309Y12972581D01*
X74248928Y12877343D01*
X74248928Y12782105D01*
X74201309Y12639248D01*
X73629880Y12067820D01*
X74248928Y12067820D01*
X74677500Y12163058D02*
X74725119Y12115439D01*
X74677500Y12067820D01*
X74629880Y12115439D01*
X74677500Y12163058D01*
X74677500Y12067820D01*
X74677500Y12686867D02*
X74725119Y12639248D01*
X74677500Y12591629D01*
X74629880Y12639248D01*
X74677500Y12686867D01*
X74677500Y12591629D01*
X75867976Y12115439D02*
X76010833Y12067820D01*
X76248928Y12067820D01*
X76344166Y12115439D01*
X76391785Y12163058D01*
X76439404Y12258296D01*
X76439404Y12353534D01*
X76391785Y12448772D01*
X76344166Y12496391D01*
X76248928Y12544010D01*
X76058452Y12591629D01*
X75963214Y12639248D01*
X75915595Y12686867D01*
X75867976Y12782105D01*
X75867976Y12877343D01*
X75915595Y12972581D01*
X75963214Y13020200D01*
X76058452Y13067820D01*
X76296547Y13067820D01*
X76439404Y13020200D01*
X77248928Y12115439D02*
X77153690Y12067820D01*
X76963214Y12067820D01*
X76867976Y12115439D01*
X76820357Y12210677D01*
X76820357Y12591629D01*
X76867976Y12686867D01*
X76963214Y12734486D01*
X77153690Y12734486D01*
X77248928Y12686867D01*
X77296547Y12591629D01*
X77296547Y12496391D01*
X76820357Y12401153D01*
X77582261Y12734486D02*
X77963214Y12734486D01*
X77725119Y13067820D02*
X77725119Y12210677D01*
X77772738Y12115439D01*
X77867976Y12067820D01*
X77963214Y12067820D01*
X79058452Y12734486D02*
X79058452Y11877343D01*
X79010833Y11782105D01*
X78915595Y11734486D01*
X78867976Y11734486D01*
X79058452Y13067820D02*
X79010833Y13020200D01*
X79058452Y12972581D01*
X79106071Y13020200D01*
X79058452Y13067820D01*
X79058452Y12972581D01*
X79963214Y12734486D02*
X79963214Y12067820D01*
X79534642Y12734486D02*
X79534642Y12210677D01*
X79582261Y12115439D01*
X79677500Y12067820D01*
X79820357Y12067820D01*
X79915595Y12115439D01*
X79963214Y12163058D01*
X80439404Y12067820D02*
X80439404Y12734486D01*
X80439404Y12639248D02*
X80487023Y12686867D01*
X80582261Y12734486D01*
X80725119Y12734486D01*
X80820357Y12686867D01*
X80867976Y12591629D01*
X80867976Y12067820D01*
X80867976Y12591629D02*
X80915595Y12686867D01*
X81010833Y12734486D01*
X81153690Y12734486D01*
X81248928Y12686867D01*
X81296547Y12591629D01*
X81296547Y12067820D01*
X81772738Y12734486D02*
X81772738Y11734486D01*
X81772738Y12686867D02*
X81867976Y12734486D01*
X82058452Y12734486D01*
X82153690Y12686867D01*
X82201309Y12639248D01*
X82248928Y12544010D01*
X82248928Y12258296D01*
X82201309Y12163058D01*
X82153690Y12115439D01*
X82058452Y12067820D01*
X81867976Y12067820D01*
X81772738Y12115439D01*
X83058452Y12115439D02*
X82963214Y12067820D01*
X82772738Y12067820D01*
X82677500Y12115439D01*
X82629880Y12210677D01*
X82629880Y12591629D01*
X82677500Y12686867D01*
X82772738Y12734486D01*
X82963214Y12734486D01*
X83058452Y12686867D01*
X83106071Y12591629D01*
X83106071Y12496391D01*
X82629880Y12401153D01*
X83534642Y12067820D02*
X83534642Y12734486D01*
X83534642Y12544010D02*
X83582261Y12639248D01*
X83629880Y12686867D01*
X83725119Y12734486D01*
X83820357Y12734486D01*
X84106071Y12115439D02*
X84201309Y12067820D01*
X84391785Y12067820D01*
X84487023Y12115439D01*
X84534642Y12210677D01*
X84534642Y12258296D01*
X84487023Y12353534D01*
X84391785Y12401153D01*
X84248928Y12401153D01*
X84153690Y12448772D01*
X84106071Y12544010D01*
X84106071Y12591629D01*
X84153690Y12686867D01*
X84248928Y12734486D01*
X84391785Y12734486D01*
X84487023Y12686867D01*
X86153690Y12067820D02*
X86153690Y12591629D01*
X86106071Y12686867D01*
X86010833Y12734486D01*
X85820357Y12734486D01*
X85725119Y12686867D01*
X86153690Y12115439D02*
X86058452Y12067820D01*
X85820357Y12067820D01*
X85725119Y12115439D01*
X85677500Y12210677D01*
X85677500Y12305915D01*
X85725119Y12401153D01*
X85820357Y12448772D01*
X86058452Y12448772D01*
X86153690Y12496391D01*
X86582261Y12115439D02*
X86677500Y12067820D01*
X86867976Y12067820D01*
X86963214Y12115439D01*
X87010833Y12210677D01*
X87010833Y12258296D01*
X86963214Y12353534D01*
X86867976Y12401153D01*
X86725119Y12401153D01*
X86629880Y12448772D01*
X86582261Y12544010D01*
X86582261Y12591629D01*
X86629880Y12686867D01*
X86725119Y12734486D01*
X86867976Y12734486D01*
X86963214Y12686867D01*
X88629880Y12067820D02*
X88629880Y12591629D01*
X88582261Y12686867D01*
X88487023Y12734486D01*
X88296547Y12734486D01*
X88201309Y12686867D01*
X88629880Y12115439D02*
X88534642Y12067820D01*
X88296547Y12067820D01*
X88201309Y12115439D01*
X88153690Y12210677D01*
X88153690Y12305915D01*
X88201309Y12401153D01*
X88296547Y12448772D01*
X88534642Y12448772D01*
X88629880Y12496391D01*
X89106071Y12067820D02*
X89106071Y13067820D01*
X89106071Y12686867D02*
X89201309Y12734486D01*
X89391785Y12734486D01*
X89487023Y12686867D01*
X89534642Y12639248D01*
X89582261Y12544010D01*
X89582261Y12258296D01*
X89534642Y12163058D01*
X89487023Y12115439D01*
X89391785Y12067820D01*
X89201309Y12067820D01*
X89106071Y12115439D01*
X90153690Y12067820D02*
X90058452Y12115439D01*
X90010833Y12163058D01*
X89963214Y12258296D01*
X89963214Y12544010D01*
X90010833Y12639248D01*
X90058452Y12686867D01*
X90153690Y12734486D01*
X90296547Y12734486D01*
X90391785Y12686867D01*
X90439404Y12639248D01*
X90487023Y12544010D01*
X90487023Y12258296D01*
X90439404Y12163058D01*
X90391785Y12115439D01*
X90296547Y12067820D01*
X90153690Y12067820D01*
X90820357Y12734486D02*
X91058452Y12067820D01*
X91296547Y12734486D01*
X92058452Y12115439D02*
X91963214Y12067820D01*
X91772738Y12067820D01*
X91677500Y12115439D01*
X91629880Y12210677D01*
X91629880Y12591629D01*
X91677500Y12686867D01*
X91772738Y12734486D01*
X91963214Y12734486D01*
X92058452Y12686867D01*
X92106071Y12591629D01*
X92106071Y12496391D01*
X91629880Y12401153D01*
X68867976Y11322581D02*
X68915595Y11370200D01*
X69010833Y11417820D01*
X69248928Y11417820D01*
X69344166Y11370200D01*
X69391785Y11322581D01*
X69439404Y11227343D01*
X69439404Y11132105D01*
X69391785Y10989248D01*
X68820357Y10417820D01*
X69439404Y10417820D01*
X69772738Y11417820D02*
X70439404Y11417820D01*
X70010833Y10417820D01*
X71391785Y10513058D02*
X71344166Y10465439D01*
X71201309Y10417820D01*
X71106071Y10417820D01*
X70963214Y10465439D01*
X70867976Y10560677D01*
X70820357Y10655915D01*
X70772738Y10846391D01*
X70772738Y10989248D01*
X70820357Y11179724D01*
X70867976Y11274962D01*
X70963214Y11370200D01*
X71106071Y11417820D01*
X71201309Y11417820D01*
X71344166Y11370200D01*
X71391785Y11322581D01*
X71772738Y11322581D02*
X71820357Y11370200D01*
X71915595Y11417820D01*
X72153690Y11417820D01*
X72248928Y11370200D01*
X72296547Y11322581D01*
X72344166Y11227343D01*
X72344166Y11132105D01*
X72296547Y10989248D01*
X71725119Y10417820D01*
X72344166Y10417820D01*
X73248928Y11417820D02*
X72772738Y11417820D01*
X72725119Y10941629D01*
X72772738Y10989248D01*
X72867976Y11036867D01*
X73106071Y11036867D01*
X73201309Y10989248D01*
X73248928Y10941629D01*
X73296547Y10846391D01*
X73296547Y10608296D01*
X73248928Y10513058D01*
X73201309Y10465439D01*
X73106071Y10417820D01*
X72867976Y10417820D01*
X72772738Y10465439D01*
X72725119Y10513058D01*
X74153690Y11417820D02*
X73963214Y11417820D01*
X73867976Y11370200D01*
X73820357Y11322581D01*
X73725119Y11179724D01*
X73677500Y10989248D01*
X73677500Y10608296D01*
X73725119Y10513058D01*
X73772738Y10465439D01*
X73867976Y10417820D01*
X74058452Y10417820D01*
X74153690Y10465439D01*
X74201309Y10513058D01*
X74248928Y10608296D01*
X74248928Y10846391D01*
X74201309Y10941629D01*
X74153690Y10989248D01*
X74058452Y11036867D01*
X73867976Y11036867D01*
X73772738Y10989248D01*
X73725119Y10941629D01*
X73677500Y10846391D01*
X76248928Y10417820D02*
X76201309Y10417820D01*
X76106071Y10465439D01*
X75963214Y10608296D01*
X75725119Y10894010D01*
X75629880Y11036867D01*
X75582261Y11179724D01*
X75582261Y11274962D01*
X75629880Y11370200D01*
X75725119Y11417820D01*
X75772738Y11417820D01*
X75867976Y11370200D01*
X75915595Y11274962D01*
X75915595Y11227343D01*
X75867976Y11132105D01*
X75820357Y11084486D01*
X75534642Y10894010D01*
X75487023Y10846391D01*
X75439404Y10751153D01*
X75439404Y10608296D01*
X75487023Y10513058D01*
X75534642Y10465439D01*
X75629880Y10417820D01*
X75772738Y10417820D01*
X75867976Y10465439D01*
X75915595Y10513058D01*
X76058452Y10703534D01*
X76106071Y10846391D01*
X76106071Y10941629D01*
X77391785Y11322581D02*
X77439404Y11370200D01*
X77534642Y11417820D01*
X77772738Y11417820D01*
X77867976Y11370200D01*
X77915595Y11322581D01*
X77963214Y11227343D01*
X77963214Y11132105D01*
X77915595Y10989248D01*
X77344166Y10417820D01*
X77963214Y10417820D01*
X78534642Y10989248D02*
X78439404Y11036867D01*
X78391785Y11084486D01*
X78344166Y11179724D01*
X78344166Y11227343D01*
X78391785Y11322581D01*
X78439404Y11370200D01*
X78534642Y11417820D01*
X78725119Y11417820D01*
X78820357Y11370200D01*
X78867976Y11322581D01*
X78915595Y11227343D01*
X78915595Y11179724D01*
X78867976Y11084486D01*
X78820357Y11036867D01*
X78725119Y10989248D01*
X78534642Y10989248D01*
X78439404Y10941629D01*
X78391785Y10894010D01*
X78344166Y10798772D01*
X78344166Y10608296D01*
X78391785Y10513058D01*
X78439404Y10465439D01*
X78534642Y10417820D01*
X78725119Y10417820D01*
X78820357Y10465439D01*
X78867976Y10513058D01*
X78915595Y10608296D01*
X78915595Y10798772D01*
X78867976Y10894010D01*
X78820357Y10941629D01*
X78725119Y10989248D01*
X79915595Y10513058D02*
X79867976Y10465439D01*
X79725119Y10417820D01*
X79629880Y10417820D01*
X79487023Y10465439D01*
X79391785Y10560677D01*
X79344166Y10655915D01*
X79296547Y10846391D01*
X79296547Y10989248D01*
X79344166Y11179724D01*
X79391785Y11274962D01*
X79487023Y11370200D01*
X79629880Y11417820D01*
X79725119Y11417820D01*
X79867976Y11370200D01*
X79915595Y11322581D01*
X80296547Y11322581D02*
X80344166Y11370200D01*
X80439404Y11417820D01*
X80677500Y11417820D01*
X80772738Y11370200D01*
X80820357Y11322581D01*
X80867976Y11227343D01*
X80867976Y11132105D01*
X80820357Y10989248D01*
X80248928Y10417820D01*
X80867976Y10417820D01*
X81772738Y11417820D02*
X81296547Y11417820D01*
X81248928Y10941629D01*
X81296547Y10989248D01*
X81391785Y11036867D01*
X81629880Y11036867D01*
X81725119Y10989248D01*
X81772738Y10941629D01*
X81820357Y10846391D01*
X81820357Y10608296D01*
X81772738Y10513058D01*
X81725119Y10465439D01*
X81629880Y10417820D01*
X81391785Y10417820D01*
X81296547Y10465439D01*
X81248928Y10513058D01*
X82677500Y11417820D02*
X82487023Y11417820D01*
X82391785Y11370200D01*
X82344166Y11322581D01*
X82248928Y11179724D01*
X82201309Y10989248D01*
X82201309Y10608296D01*
X82248928Y10513058D01*
X82296547Y10465439D01*
X82391785Y10417820D01*
X82582261Y10417820D01*
X82677500Y10465439D01*
X82725119Y10513058D01*
X82772738Y10608296D01*
X82772738Y10846391D01*
X82725119Y10941629D01*
X82677500Y10989248D01*
X82582261Y11036867D01*
X82391785Y11036867D01*
X82296547Y10989248D01*
X82248928Y10941629D01*
X82201309Y10846391D01*
X83201309Y10513058D02*
X83248928Y10465439D01*
X83201309Y10417820D01*
X83153690Y10465439D01*
X83201309Y10513058D01*
X83201309Y10417820D01*
X83201309Y11036867D02*
X83248928Y10989248D01*
X83201309Y10941629D01*
X83153690Y10989248D01*
X83201309Y11036867D01*
X83201309Y10941629D01*
X84391785Y10465439D02*
X84534642Y10417820D01*
X84772738Y10417820D01*
X84867976Y10465439D01*
X84915595Y10513058D01*
X84963214Y10608296D01*
X84963214Y10703534D01*
X84915595Y10798772D01*
X84867976Y10846391D01*
X84772738Y10894010D01*
X84582261Y10941629D01*
X84487023Y10989248D01*
X84439404Y11036867D01*
X84391785Y11132105D01*
X84391785Y11227343D01*
X84439404Y11322581D01*
X84487023Y11370200D01*
X84582261Y11417820D01*
X84820357Y11417820D01*
X84963214Y11370200D01*
X85772738Y10465439D02*
X85677500Y10417820D01*
X85487023Y10417820D01*
X85391785Y10465439D01*
X85344166Y10560677D01*
X85344166Y10941629D01*
X85391785Y11036867D01*
X85487023Y11084486D01*
X85677500Y11084486D01*
X85772738Y11036867D01*
X85820357Y10941629D01*
X85820357Y10846391D01*
X85344166Y10751153D01*
X86106071Y11084486D02*
X86487023Y11084486D01*
X86248928Y11417820D02*
X86248928Y10560677D01*
X86296547Y10465439D01*
X86391785Y10417820D01*
X86487023Y10417820D01*
X87582261Y10417820D02*
X87582261Y11417820D01*
X87582261Y11036867D02*
X87677500Y11084486D01*
X87867976Y11084486D01*
X87963214Y11036867D01*
X88010833Y10989248D01*
X88058452Y10894010D01*
X88058452Y10608296D01*
X88010833Y10513058D01*
X87963214Y10465439D01*
X87867976Y10417820D01*
X87677500Y10417820D01*
X87582261Y10465439D01*
X88487023Y10417820D02*
X88487023Y11084486D01*
X88487023Y11417820D02*
X88439404Y11370200D01*
X88487023Y11322581D01*
X88534642Y11370200D01*
X88487023Y11417820D01*
X88487023Y11322581D01*
X88820357Y11084486D02*
X89201309Y11084486D01*
X88963214Y11417820D02*
X88963214Y10560677D01*
X89010833Y10465439D01*
X89106071Y10417820D01*
X89201309Y10417820D01*
X90820357Y10417820D02*
X90248928Y10417820D01*
X90534642Y10417820D02*
X90534642Y11417820D01*
X90439404Y11274962D01*
X90344166Y11179724D01*
X90248928Y11132105D01*
X91725119Y11417820D02*
X91248928Y11417820D01*
X91201309Y10941629D01*
X91248928Y10989248D01*
X91344166Y11036867D01*
X91582261Y11036867D01*
X91677500Y10989248D01*
X91725119Y10941629D01*
X91772738Y10846391D01*
X91772738Y10608296D01*
X91725119Y10513058D01*
X91677500Y10465439D01*
X91582261Y10417820D01*
X91344166Y10417820D01*
X91248928Y10465439D01*
X91201309Y10513058D01*
X92963214Y10417820D02*
X92963214Y11417820D01*
X93391785Y10417820D02*
X93391785Y10941629D01*
X93344166Y11036867D01*
X93248928Y11084486D01*
X93106071Y11084486D01*
X93010833Y11036867D01*
X92963214Y10989248D01*
X93867976Y10417820D02*
X93867976Y11084486D01*
X93867976Y11417820D02*
X93820357Y11370200D01*
X93867976Y11322581D01*
X93915595Y11370200D01*
X93867976Y11417820D01*
X93867976Y11322581D01*
X94772738Y11084486D02*
X94772738Y10274962D01*
X94725119Y10179724D01*
X94677500Y10132105D01*
X94582261Y10084486D01*
X94439404Y10084486D01*
X94344166Y10132105D01*
X94772738Y10465439D02*
X94677500Y10417820D01*
X94487023Y10417820D01*
X94391785Y10465439D01*
X94344166Y10513058D01*
X94296547Y10608296D01*
X94296547Y10894010D01*
X94344166Y10989248D01*
X94391785Y11036867D01*
X94487023Y11084486D01*
X94677500Y11084486D01*
X94772738Y11036867D01*
X95248928Y10417820D02*
X95248928Y11417820D01*
X95677500Y10417820D02*
X95677500Y10941629D01*
X95629880Y11036867D01*
X95534642Y11084486D01*
X95391785Y11084486D01*
X95296547Y11036867D01*
X95248928Y10989248D01*
X68867976Y9672581D02*
X68915595Y9720200D01*
X69010833Y9767820D01*
X69248928Y9767820D01*
X69344166Y9720200D01*
X69391785Y9672581D01*
X69439404Y9577343D01*
X69439404Y9482105D01*
X69391785Y9339248D01*
X68820357Y8767820D01*
X69439404Y8767820D01*
X69772738Y9767820D02*
X70439404Y9767820D01*
X70010833Y8767820D01*
X71391785Y8863058D02*
X71344166Y8815439D01*
X71201309Y8767820D01*
X71106071Y8767820D01*
X70963214Y8815439D01*
X70867976Y8910677D01*
X70820357Y9005915D01*
X70772738Y9196391D01*
X70772738Y9339248D01*
X70820357Y9529724D01*
X70867976Y9624962D01*
X70963214Y9720200D01*
X71106071Y9767820D01*
X71201309Y9767820D01*
X71344166Y9720200D01*
X71391785Y9672581D01*
X72344166Y8767820D02*
X71772738Y8767820D01*
X72058452Y8767820D02*
X72058452Y9767820D01*
X71963214Y9624962D01*
X71867976Y9529724D01*
X71772738Y9482105D01*
X72725119Y9672581D02*
X72772738Y9720200D01*
X72867976Y9767820D01*
X73106071Y9767820D01*
X73201309Y9720200D01*
X73248928Y9672581D01*
X73296547Y9577343D01*
X73296547Y9482105D01*
X73248928Y9339248D01*
X72677500Y8767820D01*
X73296547Y8767820D01*
X73867976Y9339248D02*
X73772738Y9386867D01*
X73725119Y9434486D01*
X73677500Y9529724D01*
X73677500Y9577343D01*
X73725119Y9672581D01*
X73772738Y9720200D01*
X73867976Y9767820D01*
X74058452Y9767820D01*
X74153690Y9720200D01*
X74201309Y9672581D01*
X74248928Y9577343D01*
X74248928Y9529724D01*
X74201309Y9434486D01*
X74153690Y9386867D01*
X74058452Y9339248D01*
X73867976Y9339248D01*
X73772738Y9291629D01*
X73725119Y9244010D01*
X73677500Y9148772D01*
X73677500Y8958296D01*
X73725119Y8863058D01*
X73772738Y8815439D01*
X73867976Y8767820D01*
X74058452Y8767820D01*
X74153690Y8815439D01*
X74201309Y8863058D01*
X74248928Y8958296D01*
X74248928Y9148772D01*
X74201309Y9244010D01*
X74153690Y9291629D01*
X74058452Y9339248D01*
X74677500Y8863058D02*
X74725119Y8815439D01*
X74677500Y8767820D01*
X74629880Y8815439D01*
X74677500Y8863058D01*
X74677500Y8767820D01*
X74677500Y9386867D02*
X74725119Y9339248D01*
X74677500Y9291629D01*
X74629880Y9339248D01*
X74677500Y9386867D01*
X74677500Y9291629D01*
X75867976Y8815439D02*
X76010833Y8767820D01*
X76248928Y8767820D01*
X76344166Y8815439D01*
X76391785Y8863058D01*
X76439404Y8958296D01*
X76439404Y9053534D01*
X76391785Y9148772D01*
X76344166Y9196391D01*
X76248928Y9244010D01*
X76058452Y9291629D01*
X75963214Y9339248D01*
X75915595Y9386867D01*
X75867976Y9482105D01*
X75867976Y9577343D01*
X75915595Y9672581D01*
X75963214Y9720200D01*
X76058452Y9767820D01*
X76296547Y9767820D01*
X76439404Y9720200D01*
X77248928Y8815439D02*
X77153690Y8767820D01*
X76963214Y8767820D01*
X76867976Y8815439D01*
X76820357Y8910677D01*
X76820357Y9291629D01*
X76867976Y9386867D01*
X76963214Y9434486D01*
X77153690Y9434486D01*
X77248928Y9386867D01*
X77296547Y9291629D01*
X77296547Y9196391D01*
X76820357Y9101153D01*
X77582261Y9434486D02*
X77963214Y9434486D01*
X77725119Y9767820D02*
X77725119Y8910677D01*
X77772738Y8815439D01*
X77867976Y8767820D01*
X77963214Y8767820D01*
X79058452Y8767820D02*
X79058452Y9767820D01*
X79058452Y9386867D02*
X79153690Y9434486D01*
X79344166Y9434486D01*
X79439404Y9386867D01*
X79487023Y9339248D01*
X79534642Y9244010D01*
X79534642Y8958296D01*
X79487023Y8863058D01*
X79439404Y8815439D01*
X79344166Y8767820D01*
X79153690Y8767820D01*
X79058452Y8815439D01*
X79963214Y8767820D02*
X79963214Y9434486D01*
X79963214Y9767820D02*
X79915595Y9720200D01*
X79963214Y9672581D01*
X80010833Y9720200D01*
X79963214Y9767820D01*
X79963214Y9672581D01*
X80296547Y9434486D02*
X80677500Y9434486D01*
X80439404Y9767820D02*
X80439404Y8910677D01*
X80487023Y8815439D01*
X80582261Y8767820D01*
X80677500Y8767820D01*
X80963214Y8815439D02*
X81058452Y8767820D01*
X81248928Y8767820D01*
X81344166Y8815439D01*
X81391785Y8910677D01*
X81391785Y8958296D01*
X81344166Y9053534D01*
X81248928Y9101153D01*
X81106071Y9101153D01*
X81010833Y9148772D01*
X80963214Y9244010D01*
X80963214Y9291629D01*
X81010833Y9386867D01*
X81106071Y9434486D01*
X81248928Y9434486D01*
X81344166Y9386867D01*
X83106071Y8767820D02*
X82534642Y8767820D01*
X82820357Y8767820D02*
X82820357Y9767820D01*
X82725119Y9624962D01*
X82629880Y9529724D01*
X82534642Y9482105D01*
X84010833Y9767820D02*
X83534642Y9767820D01*
X83487023Y9291629D01*
X83534642Y9339248D01*
X83629880Y9386867D01*
X83867976Y9386867D01*
X83963214Y9339248D01*
X84010833Y9291629D01*
X84058452Y9196391D01*
X84058452Y8958296D01*
X84010833Y8863058D01*
X83963214Y8815439D01*
X83867976Y8767820D01*
X83629880Y8767820D01*
X83534642Y8815439D01*
X83487023Y8863058D01*
X85677500Y8767820D02*
X85677500Y9291629D01*
X85629880Y9386867D01*
X85534642Y9434486D01*
X85344166Y9434486D01*
X85248928Y9386867D01*
X85677500Y8815439D02*
X85582261Y8767820D01*
X85344166Y8767820D01*
X85248928Y8815439D01*
X85201309Y8910677D01*
X85201309Y9005915D01*
X85248928Y9101153D01*
X85344166Y9148772D01*
X85582261Y9148772D01*
X85677500Y9196391D01*
X86153690Y9434486D02*
X86153690Y8767820D01*
X86153690Y9339248D02*
X86201309Y9386867D01*
X86296547Y9434486D01*
X86439404Y9434486D01*
X86534642Y9386867D01*
X86582261Y9291629D01*
X86582261Y8767820D01*
X87487023Y8767820D02*
X87487023Y9767820D01*
X87487023Y8815439D02*
X87391785Y8767820D01*
X87201309Y8767820D01*
X87106071Y8815439D01*
X87058452Y8863058D01*
X87010833Y8958296D01*
X87010833Y9244010D01*
X87058452Y9339248D01*
X87106071Y9386867D01*
X87201309Y9434486D01*
X87391785Y9434486D01*
X87487023Y9386867D01*
X89248928Y8767820D02*
X88677500Y8767820D01*
X88963214Y8767820D02*
X88963214Y9767820D01*
X88867976Y9624962D01*
X88772738Y9529724D01*
X88677500Y9482105D01*
X90106071Y9434486D02*
X90106071Y8767820D01*
X89867976Y9815439D02*
X89629880Y9101153D01*
X90248928Y9101153D01*
X91391785Y8767820D02*
X91391785Y9767820D01*
X91820357Y8767820D02*
X91820357Y9291629D01*
X91772738Y9386867D01*
X91677500Y9434486D01*
X91534642Y9434486D01*
X91439404Y9386867D01*
X91391785Y9339248D01*
X92296547Y8767820D02*
X92296547Y9434486D01*
X92296547Y9767820D02*
X92248928Y9720200D01*
X92296547Y9672581D01*
X92344166Y9720200D01*
X92296547Y9767820D01*
X92296547Y9672581D01*
X93201309Y9434486D02*
X93201309Y8624962D01*
X93153690Y8529724D01*
X93106071Y8482105D01*
X93010833Y8434486D01*
X92867976Y8434486D01*
X92772738Y8482105D01*
X93201309Y8815439D02*
X93106071Y8767820D01*
X92915595Y8767820D01*
X92820357Y8815439D01*
X92772738Y8863058D01*
X92725119Y8958296D01*
X92725119Y9244010D01*
X92772738Y9339248D01*
X92820357Y9386867D01*
X92915595Y9434486D01*
X93106071Y9434486D01*
X93201309Y9386867D01*
X93677500Y8767820D02*
X93677500Y9767820D01*
X94106071Y8767820D02*
X94106071Y9291629D01*
X94058452Y9386867D01*
X93963214Y9434486D01*
X93820357Y9434486D01*
X93725119Y9386867D01*
X93677500Y9339248D01*
X68867976Y8022581D02*
X68915595Y8070200D01*
X69010833Y8117820D01*
X69248928Y8117820D01*
X69344166Y8070200D01*
X69391785Y8022581D01*
X69439404Y7927343D01*
X69439404Y7832105D01*
X69391785Y7689248D01*
X68820357Y7117820D01*
X69439404Y7117820D01*
X69772738Y8117820D02*
X70439404Y8117820D01*
X70010833Y7117820D01*
X71391785Y7213058D02*
X71344166Y7165439D01*
X71201309Y7117820D01*
X71106071Y7117820D01*
X70963214Y7165439D01*
X70867976Y7260677D01*
X70820357Y7355915D01*
X70772738Y7546391D01*
X70772738Y7689248D01*
X70820357Y7879724D01*
X70867976Y7974962D01*
X70963214Y8070200D01*
X71106071Y8117820D01*
X71201309Y8117820D01*
X71344166Y8070200D01*
X71391785Y8022581D01*
X72248928Y8117820D02*
X72058452Y8117820D01*
X71963214Y8070200D01*
X71915595Y8022581D01*
X71820357Y7879724D01*
X71772738Y7689248D01*
X71772738Y7308296D01*
X71820357Y7213058D01*
X71867976Y7165439D01*
X71963214Y7117820D01*
X72153690Y7117820D01*
X72248928Y7165439D01*
X72296547Y7213058D01*
X72344166Y7308296D01*
X72344166Y7546391D01*
X72296547Y7641629D01*
X72248928Y7689248D01*
X72153690Y7736867D01*
X71963214Y7736867D01*
X71867976Y7689248D01*
X71820357Y7641629D01*
X71772738Y7546391D01*
X73201309Y7784486D02*
X73201309Y7117820D01*
X72963214Y8165439D02*
X72725119Y7451153D01*
X73344166Y7451153D01*
X73725119Y7213058D02*
X73772738Y7165439D01*
X73725119Y7117820D01*
X73677500Y7165439D01*
X73725119Y7213058D01*
X73725119Y7117820D01*
X73725119Y7736867D02*
X73772738Y7689248D01*
X73725119Y7641629D01*
X73677500Y7689248D01*
X73725119Y7736867D01*
X73725119Y7641629D01*
X74915595Y7403534D02*
X75391785Y7403534D01*
X74820357Y7117820D02*
X75153690Y8117820D01*
X75487023Y7117820D01*
X75772738Y7165439D02*
X75867976Y7117820D01*
X76058452Y7117820D01*
X76153690Y7165439D01*
X76201309Y7260677D01*
X76201309Y7308296D01*
X76153690Y7403534D01*
X76058452Y7451153D01*
X75915595Y7451153D01*
X75820357Y7498772D01*
X75772738Y7594010D01*
X75772738Y7641629D01*
X75820357Y7736867D01*
X75915595Y7784486D01*
X76058452Y7784486D01*
X76153690Y7736867D01*
X77820357Y7117820D02*
X77820357Y7641629D01*
X77772738Y7736867D01*
X77677500Y7784486D01*
X77487023Y7784486D01*
X77391785Y7736867D01*
X77820357Y7165439D02*
X77725119Y7117820D01*
X77487023Y7117820D01*
X77391785Y7165439D01*
X77344166Y7260677D01*
X77344166Y7355915D01*
X77391785Y7451153D01*
X77487023Y7498772D01*
X77725119Y7498772D01*
X77820357Y7546391D01*
X78296547Y7117820D02*
X78296547Y8117820D01*
X78296547Y7736867D02*
X78391785Y7784486D01*
X78582261Y7784486D01*
X78677500Y7736867D01*
X78725119Y7689248D01*
X78772738Y7594010D01*
X78772738Y7308296D01*
X78725119Y7213058D01*
X78677500Y7165439D01*
X78582261Y7117820D01*
X78391785Y7117820D01*
X78296547Y7165439D01*
X79344166Y7117820D02*
X79248928Y7165439D01*
X79201309Y7213058D01*
X79153690Y7308296D01*
X79153690Y7594010D01*
X79201309Y7689248D01*
X79248928Y7736867D01*
X79344166Y7784486D01*
X79487023Y7784486D01*
X79582261Y7736867D01*
X79629880Y7689248D01*
X79677500Y7594010D01*
X79677500Y7308296D01*
X79629880Y7213058D01*
X79582261Y7165439D01*
X79487023Y7117820D01*
X79344166Y7117820D01*
X80010833Y7784486D02*
X80248928Y7117820D01*
X80487023Y7784486D01*
X81248928Y7165439D02*
X81153690Y7117820D01*
X80963214Y7117820D01*
X80867976Y7165439D01*
X80820357Y7260677D01*
X80820357Y7641629D01*
X80867976Y7736867D01*
X80963214Y7784486D01*
X81153690Y7784486D01*
X81248928Y7736867D01*
X81296547Y7641629D01*
X81296547Y7546391D01*
X80820357Y7451153D01*
X81772738Y7165439D02*
X81772738Y7117820D01*
X81725119Y7022581D01*
X81677500Y6974962D01*
X83391785Y7117820D02*
X83391785Y7641629D01*
X83344166Y7736867D01*
X83248928Y7784486D01*
X83058452Y7784486D01*
X82963214Y7736867D01*
X83391785Y7165439D02*
X83296547Y7117820D01*
X83058452Y7117820D01*
X82963214Y7165439D01*
X82915595Y7260677D01*
X82915595Y7355915D01*
X82963214Y7451153D01*
X83058452Y7498772D01*
X83296547Y7498772D01*
X83391785Y7546391D01*
X83867976Y7784486D02*
X83867976Y7117820D01*
X83867976Y7689248D02*
X83915595Y7736867D01*
X84010833Y7784486D01*
X84153690Y7784486D01*
X84248928Y7736867D01*
X84296547Y7641629D01*
X84296547Y7117820D01*
X85201309Y7117820D02*
X85201309Y8117820D01*
X85201309Y7165439D02*
X85106071Y7117820D01*
X84915595Y7117820D01*
X84820357Y7165439D01*
X84772738Y7213058D01*
X84725119Y7308296D01*
X84725119Y7594010D01*
X84772738Y7689248D01*
X84820357Y7736867D01*
X84915595Y7784486D01*
X85106071Y7784486D01*
X85201309Y7736867D01*
X86439404Y7117820D02*
X86439404Y7784486D01*
X86439404Y7594010D02*
X86487023Y7689248D01*
X86534642Y7736867D01*
X86629880Y7784486D01*
X86725119Y7784486D01*
X87439404Y7165439D02*
X87344166Y7117820D01*
X87153690Y7117820D01*
X87058452Y7165439D01*
X87010833Y7260677D01*
X87010833Y7641629D01*
X87058452Y7736867D01*
X87153690Y7784486D01*
X87344166Y7784486D01*
X87439404Y7736867D01*
X87487023Y7641629D01*
X87487023Y7546391D01*
X87010833Y7451153D01*
X87915595Y7117820D02*
X87915595Y7784486D01*
X87915595Y7689248D02*
X87963214Y7736867D01*
X88058452Y7784486D01*
X88201309Y7784486D01*
X88296547Y7736867D01*
X88344166Y7641629D01*
X88344166Y7117820D01*
X88344166Y7641629D02*
X88391785Y7736867D01*
X88487023Y7784486D01*
X88629880Y7784486D01*
X88725119Y7736867D01*
X88772738Y7641629D01*
X88772738Y7117820D01*
X89391785Y7117820D02*
X89296547Y7165439D01*
X89248928Y7213058D01*
X89201309Y7308296D01*
X89201309Y7594010D01*
X89248928Y7689248D01*
X89296547Y7736867D01*
X89391785Y7784486D01*
X89534642Y7784486D01*
X89629880Y7736867D01*
X89677500Y7689248D01*
X89725119Y7594010D01*
X89725119Y7308296D01*
X89677500Y7213058D01*
X89629880Y7165439D01*
X89534642Y7117820D01*
X89391785Y7117820D01*
X90058452Y7784486D02*
X90296547Y7117820D01*
X90534642Y7784486D01*
X91296547Y7165439D02*
X91201309Y7117820D01*
X91010833Y7117820D01*
X90915595Y7165439D01*
X90867976Y7260677D01*
X90867976Y7641629D01*
X90915595Y7736867D01*
X91010833Y7784486D01*
X91201309Y7784486D01*
X91296547Y7736867D01*
X91344166Y7641629D01*
X91344166Y7546391D01*
X90867976Y7451153D01*
X92534642Y7117820D02*
X92534642Y8117820D01*
X92534642Y7736867D02*
X92629880Y7784486D01*
X92820357Y7784486D01*
X92915595Y7736867D01*
X92963214Y7689248D01*
X93010833Y7594010D01*
X93010833Y7308296D01*
X92963214Y7213058D01*
X92915595Y7165439D01*
X92820357Y7117820D01*
X92629880Y7117820D01*
X92534642Y7165439D01*
X93439404Y7117820D02*
X93439404Y7784486D01*
X93439404Y8117820D02*
X93391785Y8070200D01*
X93439404Y8022581D01*
X93487023Y8070200D01*
X93439404Y8117820D01*
X93439404Y8022581D01*
X93772738Y7784486D02*
X94153690Y7784486D01*
X93915595Y8117820D02*
X93915595Y7260677D01*
X93963214Y7165439D01*
X94058452Y7117820D01*
X94153690Y7117820D01*
X95772738Y7117820D02*
X95201309Y7117820D01*
X95487023Y7117820D02*
X95487023Y8117820D01*
X95391785Y7974962D01*
X95296547Y7879724D01*
X95201309Y7832105D01*
X96106071Y8117820D02*
X96725119Y8117820D01*
X96391785Y7736867D01*
X96534642Y7736867D01*
X96629880Y7689248D01*
X96677500Y7641629D01*
X96725119Y7546391D01*
X96725119Y7308296D01*
X96677500Y7213058D01*
X96629880Y7165439D01*
X96534642Y7117820D01*
X96248928Y7117820D01*
X96153690Y7165439D01*
X96106071Y7213058D01*
X68867976Y6372581D02*
X68915595Y6420200D01*
X69010833Y6467820D01*
X69248928Y6467820D01*
X69344166Y6420200D01*
X69391785Y6372581D01*
X69439404Y6277343D01*
X69439404Y6182105D01*
X69391785Y6039248D01*
X68820357Y5467820D01*
X69439404Y5467820D01*
X70010833Y6039248D02*
X69915595Y6086867D01*
X69867976Y6134486D01*
X69820357Y6229724D01*
X69820357Y6277343D01*
X69867976Y6372581D01*
X69915595Y6420200D01*
X70010833Y6467820D01*
X70201309Y6467820D01*
X70296547Y6420200D01*
X70344166Y6372581D01*
X70391785Y6277343D01*
X70391785Y6229724D01*
X70344166Y6134486D01*
X70296547Y6086867D01*
X70201309Y6039248D01*
X70010833Y6039248D01*
X69915595Y5991629D01*
X69867976Y5944010D01*
X69820357Y5848772D01*
X69820357Y5658296D01*
X69867976Y5563058D01*
X69915595Y5515439D01*
X70010833Y5467820D01*
X70201309Y5467820D01*
X70296547Y5515439D01*
X70344166Y5563058D01*
X70391785Y5658296D01*
X70391785Y5848772D01*
X70344166Y5944010D01*
X70296547Y5991629D01*
X70201309Y6039248D01*
X71391785Y5563058D02*
X71344166Y5515439D01*
X71201309Y5467820D01*
X71106071Y5467820D01*
X70963214Y5515439D01*
X70867976Y5610677D01*
X70820357Y5705915D01*
X70772738Y5896391D01*
X70772738Y6039248D01*
X70820357Y6229724D01*
X70867976Y6324962D01*
X70963214Y6420200D01*
X71106071Y6467820D01*
X71201309Y6467820D01*
X71344166Y6420200D01*
X71391785Y6372581D01*
X72248928Y6467820D02*
X72058452Y6467820D01*
X71963214Y6420200D01*
X71915595Y6372581D01*
X71820357Y6229724D01*
X71772738Y6039248D01*
X71772738Y5658296D01*
X71820357Y5563058D01*
X71867976Y5515439D01*
X71963214Y5467820D01*
X72153690Y5467820D01*
X72248928Y5515439D01*
X72296547Y5563058D01*
X72344166Y5658296D01*
X72344166Y5896391D01*
X72296547Y5991629D01*
X72248928Y6039248D01*
X72153690Y6086867D01*
X71963214Y6086867D01*
X71867976Y6039248D01*
X71820357Y5991629D01*
X71772738Y5896391D01*
X73201309Y6134486D02*
X73201309Y5467820D01*
X72963214Y6515439D02*
X72725119Y5801153D01*
X73344166Y5801153D01*
X73725119Y5563058D02*
X73772738Y5515439D01*
X73725119Y5467820D01*
X73677500Y5515439D01*
X73725119Y5563058D01*
X73725119Y5467820D01*
X73725119Y6086867D02*
X73772738Y6039248D01*
X73725119Y5991629D01*
X73677500Y6039248D01*
X73725119Y6086867D01*
X73725119Y5991629D01*
X74915595Y5515439D02*
X75058452Y5467820D01*
X75296547Y5467820D01*
X75391785Y5515439D01*
X75439404Y5563058D01*
X75487023Y5658296D01*
X75487023Y5753534D01*
X75439404Y5848772D01*
X75391785Y5896391D01*
X75296547Y5944010D01*
X75106071Y5991629D01*
X75010833Y6039248D01*
X74963214Y6086867D01*
X74915595Y6182105D01*
X74915595Y6277343D01*
X74963214Y6372581D01*
X75010833Y6420200D01*
X75106071Y6467820D01*
X75344166Y6467820D01*
X75487023Y6420200D01*
X76296547Y5515439D02*
X76201309Y5467820D01*
X76010833Y5467820D01*
X75915595Y5515439D01*
X75867976Y5610677D01*
X75867976Y5991629D01*
X75915595Y6086867D01*
X76010833Y6134486D01*
X76201309Y6134486D01*
X76296547Y6086867D01*
X76344166Y5991629D01*
X76344166Y5896391D01*
X75867976Y5801153D01*
X76629880Y6134486D02*
X77010833Y6134486D01*
X76772738Y6467820D02*
X76772738Y5610677D01*
X76820357Y5515439D01*
X76915595Y5467820D01*
X77010833Y5467820D01*
X78629880Y5467820D02*
X78058452Y5467820D01*
X78344166Y5467820D02*
X78344166Y6467820D01*
X78248928Y6324962D01*
X78153690Y6229724D01*
X78058452Y6182105D01*
X79534642Y6467820D02*
X79058452Y6467820D01*
X79010833Y5991629D01*
X79058452Y6039248D01*
X79153690Y6086867D01*
X79391785Y6086867D01*
X79487023Y6039248D01*
X79534642Y5991629D01*
X79582261Y5896391D01*
X79582261Y5658296D01*
X79534642Y5563058D01*
X79487023Y5515439D01*
X79391785Y5467820D01*
X79153690Y5467820D01*
X79058452Y5515439D01*
X79010833Y5563058D01*
X80772738Y5467820D02*
X80772738Y6467820D01*
X81201309Y5467820D02*
X81201309Y5991629D01*
X81153690Y6086867D01*
X81058452Y6134486D01*
X80915595Y6134486D01*
X80820357Y6086867D01*
X80772738Y6039248D01*
X81677500Y5467820D02*
X81677500Y6134486D01*
X81677500Y6467820D02*
X81629880Y6420200D01*
X81677500Y6372581D01*
X81725119Y6420200D01*
X81677500Y6467820D01*
X81677500Y6372581D01*
X82582261Y6134486D02*
X82582261Y5324962D01*
X82534642Y5229724D01*
X82487023Y5182105D01*
X82391785Y5134486D01*
X82248928Y5134486D01*
X82153690Y5182105D01*
X82582261Y5515439D02*
X82487023Y5467820D01*
X82296547Y5467820D01*
X82201309Y5515439D01*
X82153690Y5563058D01*
X82106071Y5658296D01*
X82106071Y5944010D01*
X82153690Y6039248D01*
X82201309Y6086867D01*
X82296547Y6134486D01*
X82487023Y6134486D01*
X82582261Y6086867D01*
X83058452Y5467820D02*
X83058452Y6467820D01*
X83487023Y5467820D02*
X83487023Y5991629D01*
X83439404Y6086867D01*
X83344166Y6134486D01*
X83201309Y6134486D01*
X83106071Y6086867D01*
X83058452Y6039248D01*
X84010833Y5515439D02*
X84010833Y5467820D01*
X83963214Y5372581D01*
X83915595Y5324962D01*
X85201309Y5467820D02*
X85201309Y6134486D01*
X85201309Y5944010D02*
X85248928Y6039248D01*
X85296547Y6086867D01*
X85391785Y6134486D01*
X85487023Y6134486D01*
X86201309Y5515439D02*
X86106071Y5467820D01*
X85915595Y5467820D01*
X85820357Y5515439D01*
X85772738Y5610677D01*
X85772738Y5991629D01*
X85820357Y6086867D01*
X85915595Y6134486D01*
X86106071Y6134486D01*
X86201309Y6086867D01*
X86248928Y5991629D01*
X86248928Y5896391D01*
X85772738Y5801153D01*
X86677500Y5467820D02*
X86677500Y6134486D01*
X86677500Y6039248D02*
X86725119Y6086867D01*
X86820357Y6134486D01*
X86963214Y6134486D01*
X87058452Y6086867D01*
X87106071Y5991629D01*
X87106071Y5467820D01*
X87106071Y5991629D02*
X87153690Y6086867D01*
X87248928Y6134486D01*
X87391785Y6134486D01*
X87487023Y6086867D01*
X87534642Y5991629D01*
X87534642Y5467820D01*
X88153690Y5467820D02*
X88058452Y5515439D01*
X88010833Y5563058D01*
X87963214Y5658296D01*
X87963214Y5944010D01*
X88010833Y6039248D01*
X88058452Y6086867D01*
X88153690Y6134486D01*
X88296547Y6134486D01*
X88391785Y6086867D01*
X88439404Y6039248D01*
X88487023Y5944010D01*
X88487023Y5658296D01*
X88439404Y5563058D01*
X88391785Y5515439D01*
X88296547Y5467820D01*
X88153690Y5467820D01*
X88820357Y6134486D02*
X89058452Y5467820D01*
X89296547Y6134486D01*
X90058452Y5515439D02*
X89963214Y5467820D01*
X89772738Y5467820D01*
X89677500Y5515439D01*
X89629880Y5610677D01*
X89629880Y5991629D01*
X89677500Y6086867D01*
X89772738Y6134486D01*
X89963214Y6134486D01*
X90058452Y6086867D01*
X90106071Y5991629D01*
X90106071Y5896391D01*
X89629880Y5801153D01*
X91820357Y5467820D02*
X91248928Y5467820D01*
X91534642Y5467820D02*
X91534642Y6467820D01*
X91439404Y6324962D01*
X91344166Y6229724D01*
X91248928Y6182105D01*
X92153690Y6467820D02*
X92772738Y6467820D01*
X92439404Y6086867D01*
X92582261Y6086867D01*
X92677500Y6039248D01*
X92725119Y5991629D01*
X92772738Y5896391D01*
X92772738Y5658296D01*
X92725119Y5563058D01*
X92677500Y5515439D01*
X92582261Y5467820D01*
X92296547Y5467820D01*
X92201309Y5515439D01*
X92153690Y5563058D01*
X94772738Y5467820D02*
X94725119Y5467820D01*
X94629880Y5515439D01*
X94487023Y5658296D01*
X94248928Y5944010D01*
X94153690Y6086867D01*
X94106071Y6229724D01*
X94106071Y6324962D01*
X94153690Y6420200D01*
X94248928Y6467820D01*
X94296547Y6467820D01*
X94391785Y6420200D01*
X94439404Y6324962D01*
X94439404Y6277343D01*
X94391785Y6182105D01*
X94344166Y6134486D01*
X94058452Y5944010D01*
X94010833Y5896391D01*
X93963214Y5801153D01*
X93963214Y5658296D01*
X94010833Y5563058D01*
X94058452Y5515439D01*
X94153690Y5467820D01*
X94296547Y5467820D01*
X94391785Y5515439D01*
X94439404Y5563058D01*
X94582261Y5753534D01*
X94629880Y5896391D01*
X94629880Y5991629D01*
X96487023Y5467820D02*
X95915595Y5467820D01*
X96201309Y5467820D02*
X96201309Y6467820D01*
X96106071Y6324962D01*
X96010833Y6229724D01*
X95915595Y6182105D01*
X97344166Y6134486D02*
X97344166Y5467820D01*
X97106071Y6515439D02*
X96867976Y5801153D01*
X97487023Y5801153D01*
X68915595Y20132820D02*
X68915595Y21132820D01*
X69487023Y20132820D01*
X69487023Y21132820D01*
X70106071Y20132820D02*
X70010833Y20180439D01*
X69963214Y20228058D01*
X69915595Y20323296D01*
X69915595Y20609010D01*
X69963214Y20704248D01*
X70010833Y20751867D01*
X70106071Y20799486D01*
X70248928Y20799486D01*
X70344166Y20751867D01*
X70391785Y20704248D01*
X70439404Y20609010D01*
X70439404Y20323296D01*
X70391785Y20228058D01*
X70344166Y20180439D01*
X70248928Y20132820D01*
X70106071Y20132820D01*
X70725119Y20799486D02*
X71106071Y20799486D01*
X70867976Y21132820D02*
X70867976Y20275677D01*
X70915595Y20180439D01*
X71010833Y20132820D01*
X71106071Y20132820D01*
X71820357Y20180439D02*
X71725119Y20132820D01*
X71534642Y20132820D01*
X71439404Y20180439D01*
X71391785Y20275677D01*
X71391785Y20656629D01*
X71439404Y20751867D01*
X71534642Y20799486D01*
X71725119Y20799486D01*
X71820357Y20751867D01*
X71867976Y20656629D01*
X71867976Y20561391D01*
X71391785Y20466153D01*
X72248928Y20180439D02*
X72344166Y20132820D01*
X72534642Y20132820D01*
X72629880Y20180439D01*
X72677500Y20275677D01*
X72677500Y20323296D01*
X72629880Y20418534D01*
X72534642Y20466153D01*
X72391785Y20466153D01*
X72296547Y20513772D01*
X72248928Y20609010D01*
X72248928Y20656629D01*
X72296547Y20751867D01*
X72391785Y20799486D01*
X72534642Y20799486D01*
X72629880Y20751867D01*
X73725119Y20799486D02*
X74106071Y20799486D01*
X73867976Y20132820D02*
X73867976Y20989962D01*
X73915595Y21085200D01*
X74010833Y21132820D01*
X74106071Y21132820D01*
X74582261Y20132820D02*
X74487023Y20180439D01*
X74439404Y20228058D01*
X74391785Y20323296D01*
X74391785Y20609010D01*
X74439404Y20704248D01*
X74487023Y20751867D01*
X74582261Y20799486D01*
X74725119Y20799486D01*
X74820357Y20751867D01*
X74867976Y20704248D01*
X74915595Y20609010D01*
X74915595Y20323296D01*
X74867976Y20228058D01*
X74820357Y20180439D01*
X74725119Y20132820D01*
X74582261Y20132820D01*
X75344166Y20132820D02*
X75344166Y20799486D01*
X75344166Y20609010D02*
X75391785Y20704248D01*
X75439404Y20751867D01*
X75534642Y20799486D01*
X75629880Y20799486D01*
X76725119Y20799486D02*
X76725119Y19799486D01*
X76725119Y20751867D02*
X76820357Y20799486D01*
X77010833Y20799486D01*
X77106071Y20751867D01*
X77153690Y20704248D01*
X77201309Y20609010D01*
X77201309Y20323296D01*
X77153690Y20228058D01*
X77106071Y20180439D01*
X77010833Y20132820D01*
X76820357Y20132820D01*
X76725119Y20180439D01*
X78058452Y20132820D02*
X78058452Y20656629D01*
X78010833Y20751867D01*
X77915595Y20799486D01*
X77725119Y20799486D01*
X77629880Y20751867D01*
X78058452Y20180439D02*
X77963214Y20132820D01*
X77725119Y20132820D01*
X77629880Y20180439D01*
X77582261Y20275677D01*
X77582261Y20370915D01*
X77629880Y20466153D01*
X77725119Y20513772D01*
X77963214Y20513772D01*
X78058452Y20561391D01*
X78963214Y20799486D02*
X78963214Y19989962D01*
X78915595Y19894724D01*
X78867976Y19847105D01*
X78772738Y19799486D01*
X78629880Y19799486D01*
X78534642Y19847105D01*
X78963214Y20180439D02*
X78867976Y20132820D01*
X78677500Y20132820D01*
X78582261Y20180439D01*
X78534642Y20228058D01*
X78487023Y20323296D01*
X78487023Y20609010D01*
X78534642Y20704248D01*
X78582261Y20751867D01*
X78677500Y20799486D01*
X78867976Y20799486D01*
X78963214Y20751867D01*
X79820357Y20180439D02*
X79725119Y20132820D01*
X79534642Y20132820D01*
X79439404Y20180439D01*
X79391785Y20275677D01*
X79391785Y20656629D01*
X79439404Y20751867D01*
X79534642Y20799486D01*
X79725119Y20799486D01*
X79820357Y20751867D01*
X79867976Y20656629D01*
X79867976Y20561391D01*
X79391785Y20466153D01*
X81010833Y20180439D02*
X81106071Y20132820D01*
X81296547Y20132820D01*
X81391785Y20180439D01*
X81439404Y20275677D01*
X81439404Y20323296D01*
X81391785Y20418534D01*
X81296547Y20466153D01*
X81153690Y20466153D01*
X81058452Y20513772D01*
X81010833Y20609010D01*
X81010833Y20656629D01*
X81058452Y20751867D01*
X81153690Y20799486D01*
X81296547Y20799486D01*
X81391785Y20751867D01*
X82248928Y20180439D02*
X82153690Y20132820D01*
X81963214Y20132820D01*
X81867976Y20180439D01*
X81820357Y20275677D01*
X81820357Y20656629D01*
X81867976Y20751867D01*
X81963214Y20799486D01*
X82153690Y20799486D01*
X82248928Y20751867D01*
X82296547Y20656629D01*
X82296547Y20561391D01*
X81820357Y20466153D01*
X82867976Y20132820D02*
X82772738Y20180439D01*
X82725119Y20275677D01*
X82725119Y21132820D01*
X83629880Y20180439D02*
X83534642Y20132820D01*
X83344166Y20132820D01*
X83248928Y20180439D01*
X83201309Y20275677D01*
X83201309Y20656629D01*
X83248928Y20751867D01*
X83344166Y20799486D01*
X83534642Y20799486D01*
X83629880Y20751867D01*
X83677500Y20656629D01*
X83677500Y20561391D01*
X83201309Y20466153D01*
X84534642Y20180439D02*
X84439404Y20132820D01*
X84248928Y20132820D01*
X84153690Y20180439D01*
X84106071Y20228058D01*
X84058452Y20323296D01*
X84058452Y20609010D01*
X84106071Y20704248D01*
X84153690Y20751867D01*
X84248928Y20799486D01*
X84439404Y20799486D01*
X84534642Y20751867D01*
X84820357Y20799486D02*
X85201309Y20799486D01*
X84963214Y21132820D02*
X84963214Y20275677D01*
X85010833Y20180439D01*
X85106071Y20132820D01*
X85201309Y20132820D01*
X86296547Y20799486D02*
X86296547Y19942343D01*
X86248928Y19847105D01*
X86153690Y19799486D01*
X86106071Y19799486D01*
X86296547Y21132820D02*
X86248928Y21085200D01*
X86296547Y21037581D01*
X86344166Y21085200D01*
X86296547Y21132820D01*
X86296547Y21037581D01*
X87201309Y20799486D02*
X87201309Y20132820D01*
X86772738Y20799486D02*
X86772738Y20275677D01*
X86820357Y20180439D01*
X86915595Y20132820D01*
X87058452Y20132820D01*
X87153690Y20180439D01*
X87201309Y20228058D01*
X87677500Y20132820D02*
X87677500Y20799486D01*
X87677500Y20704248D02*
X87725119Y20751867D01*
X87820357Y20799486D01*
X87963214Y20799486D01*
X88058452Y20751867D01*
X88106071Y20656629D01*
X88106071Y20132820D01*
X88106071Y20656629D02*
X88153690Y20751867D01*
X88248928Y20799486D01*
X88391785Y20799486D01*
X88487023Y20751867D01*
X88534642Y20656629D01*
X88534642Y20132820D01*
X89010833Y20799486D02*
X89010833Y19799486D01*
X89010833Y20751867D02*
X89106071Y20799486D01*
X89296547Y20799486D01*
X89391785Y20751867D01*
X89439404Y20704248D01*
X89487023Y20609010D01*
X89487023Y20323296D01*
X89439404Y20228058D01*
X89391785Y20180439D01*
X89296547Y20132820D01*
X89106071Y20132820D01*
X89010833Y20180439D01*
X90296547Y20180439D02*
X90201309Y20132820D01*
X90010833Y20132820D01*
X89915595Y20180439D01*
X89867976Y20275677D01*
X89867976Y20656629D01*
X89915595Y20751867D01*
X90010833Y20799486D01*
X90201309Y20799486D01*
X90296547Y20751867D01*
X90344166Y20656629D01*
X90344166Y20561391D01*
X89867976Y20466153D01*
X90772738Y20132820D02*
X90772738Y20799486D01*
X90772738Y20609010D02*
X90820357Y20704248D01*
X90867976Y20751867D01*
X90963214Y20799486D01*
X91058452Y20799486D01*
X91344166Y20180439D02*
X91439404Y20132820D01*
X91629880Y20132820D01*
X91725119Y20180439D01*
X91772738Y20275677D01*
X91772738Y20323296D01*
X91725119Y20418534D01*
X91629880Y20466153D01*
X91487023Y20466153D01*
X91391785Y20513772D01*
X91344166Y20609010D01*
X91344166Y20656629D01*
X91391785Y20751867D01*
X91487023Y20799486D01*
X91629880Y20799486D01*
X91725119Y20751867D01*
X92201309Y20228058D02*
X92248928Y20180439D01*
X92201309Y20132820D01*
X92153690Y20180439D01*
X92201309Y20228058D01*
X92201309Y20132820D01*
X92201309Y20751867D02*
X92248928Y20704248D01*
X92201309Y20656629D01*
X92153690Y20704248D01*
X92201309Y20751867D01*
X92201309Y20656629D01*
X69058452Y19054248D02*
X68963214Y19101867D01*
X68915595Y19149486D01*
X68867976Y19244724D01*
X68867976Y19292343D01*
X68915595Y19387581D01*
X68963214Y19435200D01*
X69058452Y19482820D01*
X69248928Y19482820D01*
X69344166Y19435200D01*
X69391785Y19387581D01*
X69439404Y19292343D01*
X69439404Y19244724D01*
X69391785Y19149486D01*
X69344166Y19101867D01*
X69248928Y19054248D01*
X69058452Y19054248D01*
X68963214Y19006629D01*
X68915595Y18959010D01*
X68867976Y18863772D01*
X68867976Y18673296D01*
X68915595Y18578058D01*
X68963214Y18530439D01*
X69058452Y18482820D01*
X69248928Y18482820D01*
X69344166Y18530439D01*
X69391785Y18578058D01*
X69439404Y18673296D01*
X69439404Y18863772D01*
X69391785Y18959010D01*
X69344166Y19006629D01*
X69248928Y19054248D01*
X69867976Y18482820D02*
X69867976Y19482820D01*
X70439404Y18482820D02*
X70010833Y19054248D01*
X70439404Y19482820D02*
X69867976Y18911391D01*
X71629880Y19149486D02*
X71629880Y18149486D01*
X71629880Y19101867D02*
X71725119Y19149486D01*
X71915595Y19149486D01*
X72010833Y19101867D01*
X72058452Y19054248D01*
X72106071Y18959010D01*
X72106071Y18673296D01*
X72058452Y18578058D01*
X72010833Y18530439D01*
X71915595Y18482820D01*
X71725119Y18482820D01*
X71629880Y18530439D01*
X72963214Y18482820D02*
X72963214Y19006629D01*
X72915595Y19101867D01*
X72820357Y19149486D01*
X72629880Y19149486D01*
X72534642Y19101867D01*
X72963214Y18530439D02*
X72867976Y18482820D01*
X72629880Y18482820D01*
X72534642Y18530439D01*
X72487023Y18625677D01*
X72487023Y18720915D01*
X72534642Y18816153D01*
X72629880Y18863772D01*
X72867976Y18863772D01*
X72963214Y18911391D01*
X73867976Y19149486D02*
X73867976Y18339962D01*
X73820357Y18244724D01*
X73772738Y18197105D01*
X73677500Y18149486D01*
X73534642Y18149486D01*
X73439404Y18197105D01*
X73867976Y18530439D02*
X73772738Y18482820D01*
X73582261Y18482820D01*
X73487023Y18530439D01*
X73439404Y18578058D01*
X73391785Y18673296D01*
X73391785Y18959010D01*
X73439404Y19054248D01*
X73487023Y19101867D01*
X73582261Y19149486D01*
X73772738Y19149486D01*
X73867976Y19101867D01*
X74725119Y18530439D02*
X74629880Y18482820D01*
X74439404Y18482820D01*
X74344166Y18530439D01*
X74296547Y18625677D01*
X74296547Y19006629D01*
X74344166Y19101867D01*
X74439404Y19149486D01*
X74629880Y19149486D01*
X74725119Y19101867D01*
X74772738Y19006629D01*
X74772738Y18911391D01*
X74296547Y18816153D01*
X75915595Y18530439D02*
X76010833Y18482820D01*
X76201309Y18482820D01*
X76296547Y18530439D01*
X76344166Y18625677D01*
X76344166Y18673296D01*
X76296547Y18768534D01*
X76201309Y18816153D01*
X76058452Y18816153D01*
X75963214Y18863772D01*
X75915595Y18959010D01*
X75915595Y19006629D01*
X75963214Y19101867D01*
X76058452Y19149486D01*
X76201309Y19149486D01*
X76296547Y19101867D01*
X76772738Y18482820D02*
X76772738Y19149486D01*
X76772738Y19482820D02*
X76725119Y19435200D01*
X76772738Y19387581D01*
X76820357Y19435200D01*
X76772738Y19482820D01*
X76772738Y19387581D01*
X77153690Y19149486D02*
X77677500Y19149486D01*
X77153690Y18482820D01*
X77677500Y18482820D01*
X78439404Y18530439D02*
X78344166Y18482820D01*
X78153690Y18482820D01*
X78058452Y18530439D01*
X78010833Y18625677D01*
X78010833Y19006629D01*
X78058452Y19101867D01*
X78153690Y19149486D01*
X78344166Y19149486D01*
X78439404Y19101867D01*
X78487023Y19006629D01*
X78487023Y18911391D01*
X78010833Y18816153D01*
X80106071Y19149486D02*
X80106071Y18482820D01*
X79677500Y19149486D02*
X79677500Y18625677D01*
X79725119Y18530439D01*
X79820357Y18482820D01*
X79963214Y18482820D01*
X80058452Y18530439D01*
X80106071Y18578058D01*
X80534642Y18530439D02*
X80629880Y18482820D01*
X80820357Y18482820D01*
X80915595Y18530439D01*
X80963214Y18625677D01*
X80963214Y18673296D01*
X80915595Y18768534D01*
X80820357Y18816153D01*
X80677500Y18816153D01*
X80582261Y18863772D01*
X80534642Y18959010D01*
X80534642Y19006629D01*
X80582261Y19101867D01*
X80677500Y19149486D01*
X80820357Y19149486D01*
X80915595Y19101867D01*
X81772738Y18530439D02*
X81677500Y18482820D01*
X81487023Y18482820D01*
X81391785Y18530439D01*
X81344166Y18625677D01*
X81344166Y19006629D01*
X81391785Y19101867D01*
X81487023Y19149486D01*
X81677500Y19149486D01*
X81772738Y19101867D01*
X81820357Y19006629D01*
X81820357Y18911391D01*
X81344166Y18816153D01*
X82201309Y18530439D02*
X82296547Y18482820D01*
X82487023Y18482820D01*
X82582261Y18530439D01*
X82629880Y18625677D01*
X82629880Y18673296D01*
X82582261Y18768534D01*
X82487023Y18816153D01*
X82344166Y18816153D01*
X82248928Y18863772D01*
X82201309Y18959010D01*
X82201309Y19006629D01*
X82248928Y19101867D01*
X82344166Y19149486D01*
X82487023Y19149486D01*
X82582261Y19101867D01*
X84248928Y18482820D02*
X84248928Y19006629D01*
X84201309Y19101867D01*
X84106071Y19149486D01*
X83915595Y19149486D01*
X83820357Y19101867D01*
X84248928Y18530439D02*
X84153690Y18482820D01*
X83915595Y18482820D01*
X83820357Y18530439D01*
X83772738Y18625677D01*
X83772738Y18720915D01*
X83820357Y18816153D01*
X83915595Y18863772D01*
X84153690Y18863772D01*
X84248928Y18911391D01*
X84867976Y18482820D02*
X84772738Y18530439D01*
X84725119Y18625677D01*
X84725119Y19482820D01*
X85391785Y18482820D02*
X85296547Y18530439D01*
X85248928Y18625677D01*
X85248928Y19482820D01*
X86487023Y18530439D02*
X86582261Y18482820D01*
X86772738Y18482820D01*
X86867976Y18530439D01*
X86915595Y18625677D01*
X86915595Y18673296D01*
X86867976Y18768534D01*
X86772738Y18816153D01*
X86629880Y18816153D01*
X86534642Y18863772D01*
X86487023Y18959010D01*
X86487023Y19006629D01*
X86534642Y19101867D01*
X86629880Y19149486D01*
X86772738Y19149486D01*
X86867976Y19101867D01*
X87725119Y18530439D02*
X87629880Y18482820D01*
X87439404Y18482820D01*
X87344166Y18530439D01*
X87296547Y18625677D01*
X87296547Y19006629D01*
X87344166Y19101867D01*
X87439404Y19149486D01*
X87629880Y19149486D01*
X87725119Y19101867D01*
X87772738Y19006629D01*
X87772738Y18911391D01*
X87296547Y18816153D01*
X88344166Y18482820D02*
X88248928Y18530439D01*
X88201309Y18625677D01*
X88201309Y19482820D01*
X89106071Y18530439D02*
X89010833Y18482820D01*
X88820357Y18482820D01*
X88725119Y18530439D01*
X88677500Y18625677D01*
X88677500Y19006629D01*
X88725119Y19101867D01*
X88820357Y19149486D01*
X89010833Y19149486D01*
X89106071Y19101867D01*
X89153690Y19006629D01*
X89153690Y18911391D01*
X88677500Y18816153D01*
X90010833Y18530439D02*
X89915595Y18482820D01*
X89725119Y18482820D01*
X89629880Y18530439D01*
X89582261Y18578058D01*
X89534642Y18673296D01*
X89534642Y18959010D01*
X89582261Y19054248D01*
X89629880Y19101867D01*
X89725119Y19149486D01*
X89915595Y19149486D01*
X90010833Y19101867D01*
X90296547Y19149486D02*
X90677500Y19149486D01*
X90439404Y19482820D02*
X90439404Y18625677D01*
X90487023Y18530439D01*
X90582261Y18482820D01*
X90677500Y18482820D01*
X91772738Y19149486D02*
X91772738Y18292343D01*
X91725119Y18197105D01*
X91629880Y18149486D01*
X91582261Y18149486D01*
X91772738Y19482820D02*
X91725119Y19435200D01*
X91772738Y19387581D01*
X91820357Y19435200D01*
X91772738Y19482820D01*
X91772738Y19387581D01*
X92677500Y19149486D02*
X92677500Y18482820D01*
X92248928Y19149486D02*
X92248928Y18625677D01*
X92296547Y18530439D01*
X92391785Y18482820D01*
X92534642Y18482820D01*
X92629880Y18530439D01*
X92677500Y18578058D01*
X93153690Y18482820D02*
X93153690Y19149486D01*
X93153690Y19054248D02*
X93201309Y19101867D01*
X93296547Y19149486D01*
X93439404Y19149486D01*
X93534642Y19101867D01*
X93582261Y19006629D01*
X93582261Y18482820D01*
X93582261Y19006629D02*
X93629880Y19101867D01*
X93725119Y19149486D01*
X93867976Y19149486D01*
X93963214Y19101867D01*
X94010833Y19006629D01*
X94010833Y18482820D01*
X94487023Y19149486D02*
X94487023Y18149486D01*
X94487023Y19101867D02*
X94582261Y19149486D01*
X94772738Y19149486D01*
X94867976Y19101867D01*
X94915595Y19054248D01*
X94963214Y18959010D01*
X94963214Y18673296D01*
X94915595Y18578058D01*
X94867976Y18530439D01*
X94772738Y18482820D01*
X94582261Y18482820D01*
X94487023Y18530439D01*
X95772738Y18530439D02*
X95677500Y18482820D01*
X95487023Y18482820D01*
X95391785Y18530439D01*
X95344166Y18625677D01*
X95344166Y19006629D01*
X95391785Y19101867D01*
X95487023Y19149486D01*
X95677500Y19149486D01*
X95772738Y19101867D01*
X95820357Y19006629D01*
X95820357Y18911391D01*
X95344166Y18816153D01*
X96248928Y18482820D02*
X96248928Y19149486D01*
X96248928Y18959010D02*
X96296547Y19054248D01*
X96344166Y19101867D01*
X96439404Y19149486D01*
X96534642Y19149486D01*
X96820357Y18530439D02*
X96915595Y18482820D01*
X97106071Y18482820D01*
X97201309Y18530439D01*
X97248928Y18625677D01*
X97248928Y18673296D01*
X97201309Y18768534D01*
X97106071Y18816153D01*
X96963214Y18816153D01*
X96867976Y18863772D01*
X96820357Y18959010D01*
X96820357Y19006629D01*
X96867976Y19101867D01*
X96963214Y19149486D01*
X97106071Y19149486D01*
X97201309Y19101867D01*
X69248928Y17356629D02*
X68915595Y17356629D01*
X68915595Y16832820D02*
X68915595Y17832820D01*
X69391785Y17832820D01*
X69915595Y16832820D02*
X69820357Y16880439D01*
X69772738Y16928058D01*
X69725119Y17023296D01*
X69725119Y17309010D01*
X69772738Y17404248D01*
X69820357Y17451867D01*
X69915595Y17499486D01*
X70058452Y17499486D01*
X70153690Y17451867D01*
X70201309Y17404248D01*
X70248928Y17309010D01*
X70248928Y17023296D01*
X70201309Y16928058D01*
X70153690Y16880439D01*
X70058452Y16832820D01*
X69915595Y16832820D01*
X70677500Y16832820D02*
X70677500Y17499486D01*
X70677500Y17309010D02*
X70725119Y17404248D01*
X70772738Y17451867D01*
X70867976Y17499486D01*
X70963214Y17499486D01*
X72582261Y16832820D02*
X72010833Y16832820D01*
X72296547Y16832820D02*
X72296547Y17832820D01*
X72201309Y17689962D01*
X72106071Y17594724D01*
X72010833Y17547105D01*
X73439404Y17832820D02*
X73248928Y17832820D01*
X73153690Y17785200D01*
X73106071Y17737581D01*
X73010833Y17594724D01*
X72963214Y17404248D01*
X72963214Y17023296D01*
X73010833Y16928058D01*
X73058452Y16880439D01*
X73153690Y16832820D01*
X73344166Y16832820D01*
X73439404Y16880439D01*
X73487023Y16928058D01*
X73534642Y17023296D01*
X73534642Y17261391D01*
X73487023Y17356629D01*
X73439404Y17404248D01*
X73344166Y17451867D01*
X73153690Y17451867D01*
X73058452Y17404248D01*
X73010833Y17356629D01*
X72963214Y17261391D01*
X73963214Y16832820D02*
X73963214Y17832820D01*
X74534642Y16832820D02*
X74106071Y17404248D01*
X74534642Y17832820D02*
X73963214Y17261391D01*
X75725119Y17499486D02*
X75725119Y16499486D01*
X75725119Y17451867D02*
X75820357Y17499486D01*
X76010833Y17499486D01*
X76106071Y17451867D01*
X76153690Y17404248D01*
X76201309Y17309010D01*
X76201309Y17023296D01*
X76153690Y16928058D01*
X76106071Y16880439D01*
X76010833Y16832820D01*
X75820357Y16832820D01*
X75725119Y16880439D01*
X77058452Y16832820D02*
X77058452Y17356629D01*
X77010833Y17451867D01*
X76915595Y17499486D01*
X76725119Y17499486D01*
X76629880Y17451867D01*
X77058452Y16880439D02*
X76963214Y16832820D01*
X76725119Y16832820D01*
X76629880Y16880439D01*
X76582261Y16975677D01*
X76582261Y17070915D01*
X76629880Y17166153D01*
X76725119Y17213772D01*
X76963214Y17213772D01*
X77058452Y17261391D01*
X77963214Y17499486D02*
X77963214Y16689962D01*
X77915595Y16594724D01*
X77867976Y16547105D01*
X77772738Y16499486D01*
X77629880Y16499486D01*
X77534642Y16547105D01*
X77963214Y16880439D02*
X77867976Y16832820D01*
X77677500Y16832820D01*
X77582261Y16880439D01*
X77534642Y16928058D01*
X77487023Y17023296D01*
X77487023Y17309010D01*
X77534642Y17404248D01*
X77582261Y17451867D01*
X77677500Y17499486D01*
X77867976Y17499486D01*
X77963214Y17451867D01*
X78820357Y16880439D02*
X78725119Y16832820D01*
X78534642Y16832820D01*
X78439404Y16880439D01*
X78391785Y16975677D01*
X78391785Y17356629D01*
X78439404Y17451867D01*
X78534642Y17499486D01*
X78725119Y17499486D01*
X78820357Y17451867D01*
X78867976Y17356629D01*
X78867976Y17261391D01*
X78391785Y17166153D01*
X79248928Y16880439D02*
X79344166Y16832820D01*
X79534642Y16832820D01*
X79629880Y16880439D01*
X79677500Y16975677D01*
X79677500Y17023296D01*
X79629880Y17118534D01*
X79534642Y17166153D01*
X79391785Y17166153D01*
X79296547Y17213772D01*
X79248928Y17309010D01*
X79248928Y17356629D01*
X79296547Y17451867D01*
X79391785Y17499486D01*
X79534642Y17499486D01*
X79629880Y17451867D01*
X80153690Y16880439D02*
X80153690Y16832820D01*
X80106071Y16737581D01*
X80058452Y16689962D01*
X81344166Y16832820D02*
X81344166Y17499486D01*
X81344166Y17309010D02*
X81391785Y17404248D01*
X81439404Y17451867D01*
X81534642Y17499486D01*
X81629880Y17499486D01*
X82344166Y16880439D02*
X82248928Y16832820D01*
X82058452Y16832820D01*
X81963214Y16880439D01*
X81915595Y16975677D01*
X81915595Y17356629D01*
X81963214Y17451867D01*
X82058452Y17499486D01*
X82248928Y17499486D01*
X82344166Y17451867D01*
X82391785Y17356629D01*
X82391785Y17261391D01*
X81915595Y17166153D01*
X82820357Y16832820D02*
X82820357Y17499486D01*
X82820357Y17404248D02*
X82867976Y17451867D01*
X82963214Y17499486D01*
X83106071Y17499486D01*
X83201309Y17451867D01*
X83248928Y17356629D01*
X83248928Y16832820D01*
X83248928Y17356629D02*
X83296547Y17451867D01*
X83391785Y17499486D01*
X83534642Y17499486D01*
X83629880Y17451867D01*
X83677500Y17356629D01*
X83677500Y16832820D01*
X84296547Y16832820D02*
X84201309Y16880439D01*
X84153690Y16928058D01*
X84106071Y17023296D01*
X84106071Y17309010D01*
X84153690Y17404248D01*
X84201309Y17451867D01*
X84296547Y17499486D01*
X84439404Y17499486D01*
X84534642Y17451867D01*
X84582261Y17404248D01*
X84629880Y17309010D01*
X84629880Y17023296D01*
X84582261Y16928058D01*
X84534642Y16880439D01*
X84439404Y16832820D01*
X84296547Y16832820D01*
X84963214Y17499486D02*
X85201309Y16832820D01*
X85439404Y17499486D01*
X86201309Y16880439D02*
X86106071Y16832820D01*
X85915595Y16832820D01*
X85820357Y16880439D01*
X85772738Y16975677D01*
X85772738Y17356629D01*
X85820357Y17451867D01*
X85915595Y17499486D01*
X86106071Y17499486D01*
X86201309Y17451867D01*
X86248928Y17356629D01*
X86248928Y17261391D01*
X85772738Y17166153D01*
X87439404Y16832820D02*
X87439404Y17832820D01*
X87439404Y17451867D02*
X87534642Y17499486D01*
X87725119Y17499486D01*
X87820357Y17451867D01*
X87867976Y17404248D01*
X87915595Y17309010D01*
X87915595Y17023296D01*
X87867976Y16928058D01*
X87820357Y16880439D01*
X87725119Y16832820D01*
X87534642Y16832820D01*
X87439404Y16880439D01*
X88344166Y16832820D02*
X88344166Y17499486D01*
X88344166Y17832820D02*
X88296547Y17785200D01*
X88344166Y17737581D01*
X88391785Y17785200D01*
X88344166Y17832820D01*
X88344166Y17737581D01*
X88677500Y17499486D02*
X89058452Y17499486D01*
X88820357Y17832820D02*
X88820357Y16975677D01*
X88867976Y16880439D01*
X88963214Y16832820D01*
X89058452Y16832820D01*
X90677500Y16832820D02*
X90106071Y16832820D01*
X90391785Y16832820D02*
X90391785Y17832820D01*
X90296547Y17689962D01*
X90201309Y17594724D01*
X90106071Y17547105D01*
X91010833Y17832820D02*
X91629880Y17832820D01*
X91296547Y17451867D01*
X91439404Y17451867D01*
X91534642Y17404248D01*
X91582261Y17356629D01*
X91629880Y17261391D01*
X91629880Y17023296D01*
X91582261Y16928058D01*
X91534642Y16880439D01*
X91439404Y16832820D01*
X91153690Y16832820D01*
X91058452Y16880439D01*
X91010833Y16928058D01*
X69248928Y15706629D02*
X68915595Y15706629D01*
X68915595Y15182820D02*
X68915595Y16182820D01*
X69391785Y16182820D01*
X69915595Y15182820D02*
X69820357Y15230439D01*
X69772738Y15278058D01*
X69725119Y15373296D01*
X69725119Y15659010D01*
X69772738Y15754248D01*
X69820357Y15801867D01*
X69915595Y15849486D01*
X70058452Y15849486D01*
X70153690Y15801867D01*
X70201309Y15754248D01*
X70248928Y15659010D01*
X70248928Y15373296D01*
X70201309Y15278058D01*
X70153690Y15230439D01*
X70058452Y15182820D01*
X69915595Y15182820D01*
X70677500Y15182820D02*
X70677500Y15849486D01*
X70677500Y15659010D02*
X70725119Y15754248D01*
X70772738Y15801867D01*
X70867976Y15849486D01*
X70963214Y15849486D01*
X71963214Y16182820D02*
X72582261Y16182820D01*
X72248928Y15801867D01*
X72391785Y15801867D01*
X72487023Y15754248D01*
X72534642Y15706629D01*
X72582261Y15611391D01*
X72582261Y15373296D01*
X72534642Y15278058D01*
X72487023Y15230439D01*
X72391785Y15182820D01*
X72106071Y15182820D01*
X72010833Y15230439D01*
X71963214Y15278058D01*
X72963214Y16087581D02*
X73010833Y16135200D01*
X73106071Y16182820D01*
X73344166Y16182820D01*
X73439404Y16135200D01*
X73487023Y16087581D01*
X73534642Y15992343D01*
X73534642Y15897105D01*
X73487023Y15754248D01*
X72915595Y15182820D01*
X73534642Y15182820D01*
X73963214Y15182820D02*
X73963214Y16182820D01*
X74534642Y15182820D02*
X74106071Y15754248D01*
X74534642Y16182820D02*
X73963214Y15611391D01*
X75725119Y15849486D02*
X75725119Y14849486D01*
X75725119Y15801867D02*
X75820357Y15849486D01*
X76010833Y15849486D01*
X76106071Y15801867D01*
X76153690Y15754248D01*
X76201309Y15659010D01*
X76201309Y15373296D01*
X76153690Y15278058D01*
X76106071Y15230439D01*
X76010833Y15182820D01*
X75820357Y15182820D01*
X75725119Y15230439D01*
X77058452Y15182820D02*
X77058452Y15706629D01*
X77010833Y15801867D01*
X76915595Y15849486D01*
X76725119Y15849486D01*
X76629880Y15801867D01*
X77058452Y15230439D02*
X76963214Y15182820D01*
X76725119Y15182820D01*
X76629880Y15230439D01*
X76582261Y15325677D01*
X76582261Y15420915D01*
X76629880Y15516153D01*
X76725119Y15563772D01*
X76963214Y15563772D01*
X77058452Y15611391D01*
X77963214Y15849486D02*
X77963214Y15039962D01*
X77915595Y14944724D01*
X77867976Y14897105D01*
X77772738Y14849486D01*
X77629880Y14849486D01*
X77534642Y14897105D01*
X77963214Y15230439D02*
X77867976Y15182820D01*
X77677500Y15182820D01*
X77582261Y15230439D01*
X77534642Y15278058D01*
X77487023Y15373296D01*
X77487023Y15659010D01*
X77534642Y15754248D01*
X77582261Y15801867D01*
X77677500Y15849486D01*
X77867976Y15849486D01*
X77963214Y15801867D01*
X78820357Y15230439D02*
X78725119Y15182820D01*
X78534642Y15182820D01*
X78439404Y15230439D01*
X78391785Y15325677D01*
X78391785Y15706629D01*
X78439404Y15801867D01*
X78534642Y15849486D01*
X78725119Y15849486D01*
X78820357Y15801867D01*
X78867976Y15706629D01*
X78867976Y15611391D01*
X78391785Y15516153D01*
X79248928Y15230439D02*
X79344166Y15182820D01*
X79534642Y15182820D01*
X79629880Y15230439D01*
X79677500Y15325677D01*
X79677500Y15373296D01*
X79629880Y15468534D01*
X79534642Y15516153D01*
X79391785Y15516153D01*
X79296547Y15563772D01*
X79248928Y15659010D01*
X79248928Y15706629D01*
X79296547Y15801867D01*
X79391785Y15849486D01*
X79534642Y15849486D01*
X79629880Y15801867D01*
X80153690Y15230439D02*
X80153690Y15182820D01*
X80106071Y15087581D01*
X80058452Y15039962D01*
X81344166Y15182820D02*
X81344166Y15849486D01*
X81344166Y15659010D02*
X81391785Y15754248D01*
X81439404Y15801867D01*
X81534642Y15849486D01*
X81629880Y15849486D01*
X82344166Y15230439D02*
X82248928Y15182820D01*
X82058452Y15182820D01*
X81963214Y15230439D01*
X81915595Y15325677D01*
X81915595Y15706629D01*
X81963214Y15801867D01*
X82058452Y15849486D01*
X82248928Y15849486D01*
X82344166Y15801867D01*
X82391785Y15706629D01*
X82391785Y15611391D01*
X81915595Y15516153D01*
X82820357Y15182820D02*
X82820357Y15849486D01*
X82820357Y15754248D02*
X82867976Y15801867D01*
X82963214Y15849486D01*
X83106071Y15849486D01*
X83201309Y15801867D01*
X83248928Y15706629D01*
X83248928Y15182820D01*
X83248928Y15706629D02*
X83296547Y15801867D01*
X83391785Y15849486D01*
X83534642Y15849486D01*
X83629880Y15801867D01*
X83677500Y15706629D01*
X83677500Y15182820D01*
X84296547Y15182820D02*
X84201309Y15230439D01*
X84153690Y15278058D01*
X84106071Y15373296D01*
X84106071Y15659010D01*
X84153690Y15754248D01*
X84201309Y15801867D01*
X84296547Y15849486D01*
X84439404Y15849486D01*
X84534642Y15801867D01*
X84582261Y15754248D01*
X84629880Y15659010D01*
X84629880Y15373296D01*
X84582261Y15278058D01*
X84534642Y15230439D01*
X84439404Y15182820D01*
X84296547Y15182820D01*
X84963214Y15849486D02*
X85201309Y15182820D01*
X85439404Y15849486D01*
X86201309Y15230439D02*
X86106071Y15182820D01*
X85915595Y15182820D01*
X85820357Y15230439D01*
X85772738Y15325677D01*
X85772738Y15706629D01*
X85820357Y15801867D01*
X85915595Y15849486D01*
X86106071Y15849486D01*
X86201309Y15801867D01*
X86248928Y15706629D01*
X86248928Y15611391D01*
X85772738Y15516153D01*
X87439404Y15182820D02*
X87439404Y16182820D01*
X87439404Y15801867D02*
X87534642Y15849486D01*
X87725119Y15849486D01*
X87820357Y15801867D01*
X87867976Y15754248D01*
X87915595Y15659010D01*
X87915595Y15373296D01*
X87867976Y15278058D01*
X87820357Y15230439D01*
X87725119Y15182820D01*
X87534642Y15182820D01*
X87439404Y15230439D01*
X88344166Y15182820D02*
X88344166Y15849486D01*
X88344166Y16182820D02*
X88296547Y16135200D01*
X88344166Y16087581D01*
X88391785Y16135200D01*
X88344166Y16182820D01*
X88344166Y16087581D01*
X88677500Y15849486D02*
X89058452Y15849486D01*
X88820357Y16182820D02*
X88820357Y15325677D01*
X88867976Y15230439D01*
X88963214Y15182820D01*
X89058452Y15182820D01*
X89344166Y15230439D02*
X89439404Y15182820D01*
X89629880Y15182820D01*
X89725119Y15230439D01*
X89772738Y15325677D01*
X89772738Y15373296D01*
X89725119Y15468534D01*
X89629880Y15516153D01*
X89487023Y15516153D01*
X89391785Y15563772D01*
X89344166Y15659010D01*
X89344166Y15706629D01*
X89391785Y15801867D01*
X89487023Y15849486D01*
X89629880Y15849486D01*
X89725119Y15801867D01*
X91487023Y15182820D02*
X90915595Y15182820D01*
X91201309Y15182820D02*
X91201309Y16182820D01*
X91106071Y16039962D01*
X91010833Y15944724D01*
X90915595Y15897105D01*
X91820357Y16182820D02*
X92439404Y16182820D01*
X92106071Y15801867D01*
X92248928Y15801867D01*
X92344166Y15754248D01*
X92391785Y15706629D01*
X92439404Y15611391D01*
X92439404Y15373296D01*
X92391785Y15278058D01*
X92344166Y15230439D01*
X92248928Y15182820D01*
X91963214Y15182820D01*
X91867976Y15230439D01*
X91820357Y15278058D01*
X94439404Y15182820D02*
X94391785Y15182820D01*
X94296547Y15230439D01*
X94153690Y15373296D01*
X93915595Y15659010D01*
X93820357Y15801867D01*
X93772738Y15944724D01*
X93772738Y16039962D01*
X93820357Y16135200D01*
X93915595Y16182820D01*
X93963214Y16182820D01*
X94058452Y16135200D01*
X94106071Y16039962D01*
X94106071Y15992343D01*
X94058452Y15897105D01*
X94010833Y15849486D01*
X93725119Y15659010D01*
X93677500Y15611391D01*
X93629880Y15516153D01*
X93629880Y15373296D01*
X93677500Y15278058D01*
X93725119Y15230439D01*
X93820357Y15182820D01*
X93963214Y15182820D01*
X94058452Y15230439D01*
X94106071Y15278058D01*
X94248928Y15468534D01*
X94296547Y15611391D01*
X94296547Y15706629D01*
X96153690Y15182820D02*
X95582261Y15182820D01*
X95867976Y15182820D02*
X95867976Y16182820D01*
X95772738Y16039962D01*
X95677500Y15944724D01*
X95582261Y15897105D01*
X97010833Y15849486D02*
X97010833Y15182820D01*
X96772738Y16230439D02*
X96534642Y15516153D01*
X97153690Y15516153D01*
X85804761Y38612820D02*
X85804761Y39612820D01*
X86185714Y39612820D01*
X86280952Y39565200D01*
X86328571Y39517581D01*
X86376190Y39422343D01*
X86376190Y39279486D01*
X86328571Y39184248D01*
X86280952Y39136629D01*
X86185714Y39089010D01*
X85804761Y39089010D01*
X86947619Y38612820D02*
X86852380Y38660439D01*
X86804761Y38708058D01*
X86757142Y38803296D01*
X86757142Y39089010D01*
X86804761Y39184248D01*
X86852380Y39231867D01*
X86947619Y39279486D01*
X87090476Y39279486D01*
X87185714Y39231867D01*
X87233333Y39184248D01*
X87280952Y39089010D01*
X87280952Y38803296D01*
X87233333Y38708058D01*
X87185714Y38660439D01*
X87090476Y38612820D01*
X86947619Y38612820D01*
X87709523Y38612820D02*
X87709523Y39279486D01*
X87709523Y39089010D02*
X87757142Y39184248D01*
X87804761Y39231867D01*
X87900000Y39279486D01*
X87995238Y39279486D01*
X88185714Y39279486D02*
X88566666Y39279486D01*
X88328571Y39612820D02*
X88328571Y38755677D01*
X88376190Y38660439D01*
X88471428Y38612820D01*
X88566666Y38612820D01*
X89852380Y39612820D02*
X89947619Y39612820D01*
X90042857Y39565200D01*
X90090476Y39517581D01*
X90138095Y39422343D01*
X90185714Y39231867D01*
X90185714Y38993772D01*
X90138095Y38803296D01*
X90090476Y38708058D01*
X90042857Y38660439D01*
X89947619Y38612820D01*
X89852380Y38612820D01*
X89757142Y38660439D01*
X89709523Y38708058D01*
X89661904Y38803296D01*
X89614285Y38993772D01*
X89614285Y39231867D01*
X89661904Y39422343D01*
X89709523Y39517581D01*
X89757142Y39565200D01*
X89852380Y39612820D01*
X90757142Y39184248D02*
X90661904Y39231867D01*
X90614285Y39279486D01*
X90566666Y39374724D01*
X90566666Y39422343D01*
X90614285Y39517581D01*
X90661904Y39565200D01*
X90757142Y39612820D01*
X90947619Y39612820D01*
X91042857Y39565200D01*
X91090476Y39517581D01*
X91138095Y39422343D01*
X91138095Y39374724D01*
X91090476Y39279486D01*
X91042857Y39231867D01*
X90947619Y39184248D01*
X90757142Y39184248D01*
X90661904Y39136629D01*
X90614285Y39089010D01*
X90566666Y38993772D01*
X90566666Y38803296D01*
X90614285Y38708058D01*
X90661904Y38660439D01*
X90757142Y38612820D01*
X90947619Y38612820D01*
X91042857Y38660439D01*
X91090476Y38708058D01*
X91138095Y38803296D01*
X91138095Y38993772D01*
X91090476Y39089010D01*
X91042857Y39136629D01*
X90947619Y39184248D01*
X91566666Y38612820D02*
X91566666Y39612820D01*
X91995238Y38612820D02*
X91995238Y39136629D01*
X91947619Y39231867D01*
X91852380Y39279486D01*
X91709523Y39279486D01*
X91614285Y39231867D01*
X91566666Y39184248D01*
X23177500Y31127700D02*
X23177500Y44462700D01*
X32702500Y31127700D02*
X23177500Y31127700D01*
X32702500Y45097700D02*
X32702500Y31127700D01*
X24447500Y45732700D02*
X32067500Y45732700D01*
X28813333Y40787581D02*
X28860952Y40835200D01*
X28956190Y40882820D01*
X29194285Y40882820D01*
X29289523Y40835200D01*
X29337142Y40787581D01*
X29384761Y40692343D01*
X29384761Y40597105D01*
X29337142Y40454248D01*
X28765714Y39882820D01*
X29384761Y39882820D01*
X29956190Y40454248D02*
X29860952Y40501867D01*
X29813333Y40549486D01*
X29765714Y40644724D01*
X29765714Y40692343D01*
X29813333Y40787581D01*
X29860952Y40835200D01*
X29956190Y40882820D01*
X30146666Y40882820D01*
X30241904Y40835200D01*
X30289523Y40787581D01*
X30337142Y40692343D01*
X30337142Y40644724D01*
X30289523Y40549486D01*
X30241904Y40501867D01*
X30146666Y40454248D01*
X29956190Y40454248D01*
X29860952Y40406629D01*
X29813333Y40359010D01*
X29765714Y40263772D01*
X29765714Y40073296D01*
X29813333Y39978058D01*
X29860952Y39930439D01*
X29956190Y39882820D01*
X30146666Y39882820D01*
X30241904Y39930439D01*
X30289523Y39978058D01*
X30337142Y40073296D01*
X30337142Y40263772D01*
X30289523Y40359010D01*
X30241904Y40406629D01*
X30146666Y40454248D01*
X31337142Y39978058D02*
X31289523Y39930439D01*
X31146666Y39882820D01*
X31051428Y39882820D01*
X30908571Y39930439D01*
X30813333Y40025677D01*
X30765714Y40120915D01*
X30718095Y40311391D01*
X30718095Y40454248D01*
X30765714Y40644724D01*
X30813333Y40739962D01*
X30908571Y40835200D01*
X31051428Y40882820D01*
X31146666Y40882820D01*
X31289523Y40835200D01*
X31337142Y40787581D01*
X31670476Y39882820D02*
X32194285Y40549486D01*
X31670476Y40549486D02*
X32194285Y39882820D01*
X23733333Y40787581D02*
X23780952Y40835200D01*
X23876190Y40882820D01*
X24114285Y40882820D01*
X24209523Y40835200D01*
X24257142Y40787581D01*
X24304761Y40692343D01*
X24304761Y40597105D01*
X24257142Y40454248D01*
X23685714Y39882820D01*
X24304761Y39882820D01*
X24638095Y40882820D02*
X25304761Y40882820D01*
X24876190Y39882820D01*
X26257142Y39978058D02*
X26209523Y39930439D01*
X26066666Y39882820D01*
X25971428Y39882820D01*
X25828571Y39930439D01*
X25733333Y40025677D01*
X25685714Y40120915D01*
X25638095Y40311391D01*
X25638095Y40454248D01*
X25685714Y40644724D01*
X25733333Y40739962D01*
X25828571Y40835200D01*
X25971428Y40882820D01*
X26066666Y40882820D01*
X26209523Y40835200D01*
X26257142Y40787581D01*
X26590476Y39882820D02*
X27114285Y40549486D01*
X26590476Y40549486D02*
X27114285Y39882820D01*
X26670000Y43510200D02*
X26670000Y42240200D01*
X24130000Y43510200D02*
X24130000Y42240200D01*
X26670000Y43510200D02*
X24130000Y43510200D01*
X24130000Y42240200D02*
X26670000Y42240200D01*
X24130000Y44780200D02*
X24130000Y43510200D01*
D11*
X26032460Y42875200D02*
X26035000Y42875200D01*
D10*
X26670000Y44780200D02*
X24130000Y44780200D01*
D11*
X24766270Y44145200D02*
X24768810Y44145200D01*
X24762460Y42875200D02*
X24765000Y42875200D01*
X26032460Y44145200D02*
X26035000Y44145200D01*
D10*
X26670000Y44780200D02*
X26670000Y43510200D01*
X24130000Y43510200D02*
X26670000Y43510200D01*
X29210000Y44780200D02*
X29210000Y42240200D01*
D11*
X29842460Y42875200D02*
X29845000Y42875200D01*
X31112460Y42875200D02*
X31115000Y42875200D01*
D10*
X31750000Y42240200D02*
X31750000Y44780200D01*
D11*
X29846270Y44145200D02*
X29848810Y44145200D01*
D10*
X30480000Y42240200D02*
X31750000Y42240200D01*
D11*
X31112460Y44145200D02*
X31115000Y44145200D01*
D10*
X30480000Y44780200D02*
X30480000Y42240200D01*
X31750000Y44780200D02*
X30480000Y44780200D01*
X30480000Y44780200D02*
X29210000Y44780200D01*
X30480000Y42240200D02*
X30480000Y44780200D01*
X29210000Y42240200D02*
X30480000Y42240200D01*
X21590000Y42875200D02*
X21590000Y31127700D01*
X9842500Y43827700D02*
X20637500Y43827700D01*
X7620000Y41605200D02*
X9842500Y43827700D01*
X7620000Y31127700D02*
X7620000Y41605200D01*
X21590000Y31127700D02*
X7620000Y31127700D01*
X9207500Y20967700D02*
X9207500Y29222700D01*
X30797500Y20967700D02*
X9207500Y20967700D01*
X30797500Y29857700D02*
X30797500Y20967700D01*
X10477500Y30492700D02*
X30162500Y30492700D01*
D11*
X20320000Y26365200D02*
X20322540Y26365200D01*
D10*
X20955000Y28270200D02*
X20955000Y25730200D01*
D11*
X20317460Y27635200D02*
X20320000Y27635200D01*
D10*
X20955000Y25730200D02*
X22225000Y25730200D01*
X22225000Y28270200D02*
X20955000Y28270200D01*
X19685000Y25730200D02*
X20955000Y25730200D01*
X20955000Y25730200D02*
X20955000Y28270200D01*
D11*
X21587460Y27635200D02*
X21590000Y27635200D01*
X21587460Y28905200D02*
X21590000Y28905200D01*
D10*
X19685000Y28270200D02*
X19685000Y25730200D01*
D11*
X21587460Y26365200D02*
X21590000Y26365200D01*
D10*
X22225000Y25730200D02*
X22225000Y28270200D01*
X20955000Y28270200D02*
X19685000Y28270200D01*
D11*
X20321270Y28905200D02*
X20323810Y28905200D01*
D10*
X20359761Y24579248D02*
X20264523Y24626867D01*
X20216904Y24674486D01*
X20169285Y24769724D01*
X20169285Y24817343D01*
X20216904Y24912581D01*
X20264523Y24960200D01*
X20359761Y25007820D01*
X20550238Y25007820D01*
X20645476Y24960200D01*
X20693095Y24912581D01*
X20740714Y24817343D01*
X20740714Y24769724D01*
X20693095Y24674486D01*
X20645476Y24626867D01*
X20550238Y24579248D01*
X20359761Y24579248D01*
X20264523Y24531629D01*
X20216904Y24484010D01*
X20169285Y24388772D01*
X20169285Y24198296D01*
X20216904Y24103058D01*
X20264523Y24055439D01*
X20359761Y24007820D01*
X20550238Y24007820D01*
X20645476Y24055439D01*
X20693095Y24103058D01*
X20740714Y24198296D01*
X20740714Y24388772D01*
X20693095Y24484010D01*
X20645476Y24531629D01*
X20550238Y24579248D01*
X21169285Y24007820D02*
X21169285Y25007820D01*
X21740714Y24007820D02*
X21312142Y24579248D01*
X21740714Y25007820D02*
X21169285Y24436391D01*
D11*
X24130000Y26365200D02*
X24132540Y26365200D01*
D10*
X23495000Y28270200D02*
X23495000Y25730200D01*
D11*
X24127460Y27635200D02*
X24130000Y27635200D01*
X25397460Y27635200D02*
X25400000Y27635200D01*
D10*
X26035000Y27000200D02*
X26035000Y29540200D01*
D11*
X24131270Y28905200D02*
X24133810Y28905200D01*
D10*
X24765000Y27000200D02*
X26035000Y27000200D01*
D11*
X25397460Y26365200D02*
X25400000Y26365200D01*
X25397460Y28905200D02*
X25400000Y28905200D01*
D10*
X24765000Y28270200D02*
X24765000Y25730200D01*
X24074523Y24007820D02*
X23503095Y24007820D01*
X23788809Y24007820D02*
X23788809Y25007820D01*
X23693571Y24864962D01*
X23598333Y24769724D01*
X23503095Y24722105D01*
X24931666Y25007820D02*
X24741190Y25007820D01*
X24645952Y24960200D01*
X24598333Y24912581D01*
X24503095Y24769724D01*
X24455476Y24579248D01*
X24455476Y24198296D01*
X24503095Y24103058D01*
X24550714Y24055439D01*
X24645952Y24007820D01*
X24836428Y24007820D01*
X24931666Y24055439D01*
X24979285Y24103058D01*
X25026904Y24198296D01*
X25026904Y24436391D01*
X24979285Y24531629D01*
X24931666Y24579248D01*
X24836428Y24626867D01*
X24645952Y24626867D01*
X24550714Y24579248D01*
X24503095Y24531629D01*
X24455476Y24436391D01*
X25455476Y24007820D02*
X25455476Y25007820D01*
X26026904Y24007820D02*
X25598333Y24579248D01*
X26026904Y25007820D02*
X25455476Y24436391D01*
X26035000Y29540200D02*
X24765000Y29540200D01*
X24765000Y28270200D02*
X23495000Y28270200D01*
X24765000Y27000200D02*
X24765000Y29540200D01*
X23495000Y25730200D02*
X24765000Y25730200D01*
X28575000Y29540200D02*
X28575000Y27000200D01*
X29845000Y29540200D02*
X28575000Y29540200D01*
X29845000Y27000200D02*
X29845000Y29540200D01*
X28575000Y27000200D02*
X29845000Y27000200D01*
X27265476Y25007820D02*
X27884523Y25007820D01*
X27551190Y24626867D01*
X27694047Y24626867D01*
X27789285Y24579248D01*
X27836904Y24531629D01*
X27884523Y24436391D01*
X27884523Y24198296D01*
X27836904Y24103058D01*
X27789285Y24055439D01*
X27694047Y24007820D01*
X27408333Y24007820D01*
X27313095Y24055439D01*
X27265476Y24103058D01*
X28265476Y24912581D02*
X28313095Y24960200D01*
X28408333Y25007820D01*
X28646428Y25007820D01*
X28741666Y24960200D01*
X28789285Y24912581D01*
X28836904Y24817343D01*
X28836904Y24722105D01*
X28789285Y24579248D01*
X28217857Y24007820D01*
X28836904Y24007820D01*
X29265476Y24007820D02*
X29265476Y25007820D01*
X29836904Y24007820D02*
X29408333Y24579248D01*
X29836904Y25007820D02*
X29265476Y24436391D01*
D11*
X29207460Y28905200D02*
X29210000Y28905200D01*
X27941270Y28905200D02*
X27943810Y28905200D01*
X29207460Y27635200D02*
X29210000Y27635200D01*
X27937460Y27635200D02*
X27940000Y27635200D01*
X27940000Y26365200D02*
X27942540Y26365200D01*
X29207460Y26365200D02*
X29210000Y26365200D01*
D10*
X27305000Y29540200D02*
X27305000Y27000200D01*
X28575000Y29540200D02*
X27305000Y29540200D01*
X28575000Y27000200D02*
X28575000Y29540200D01*
X27305000Y27000200D02*
X28575000Y27000200D01*
X90424000Y43764200D02*
X90932000Y43764200D01*
X90678000Y44018200D02*
X90678000Y43510200D01*
D12*
X67466428Y47276629D02*
X66966428Y47990915D01*
X66609285Y47276629D02*
X66609285Y48776629D01*
X67180714Y48776629D01*
X67323571Y48705200D01*
X67395000Y48633772D01*
X67466428Y48490915D01*
X67466428Y48276629D01*
X67395000Y48133772D01*
X67323571Y48062343D01*
X67180714Y47990915D01*
X66609285Y47990915D01*
X68395000Y48776629D02*
X68680714Y48776629D01*
X68823571Y48705200D01*
X68966428Y48562343D01*
X69037857Y48276629D01*
X69037857Y47776629D01*
X68966428Y47490915D01*
X68823571Y47348058D01*
X68680714Y47276629D01*
X68395000Y47276629D01*
X68252142Y47348058D01*
X68109285Y47490915D01*
X68037857Y47776629D01*
X68037857Y48276629D01*
X68109285Y48562343D01*
X68252142Y48705200D01*
X68395000Y48776629D01*
X69680714Y47276629D02*
X69680714Y48776629D01*
X70180714Y47705200D01*
X70680714Y48776629D01*
X70680714Y47276629D01*
X73395000Y47419486D02*
X73323571Y47348058D01*
X73109285Y47276629D01*
X72966428Y47276629D01*
X72752142Y47348058D01*
X72609285Y47490915D01*
X72537857Y47633772D01*
X72466428Y47919486D01*
X72466428Y48133772D01*
X72537857Y48419486D01*
X72609285Y48562343D01*
X72752142Y48705200D01*
X72966428Y48776629D01*
X73109285Y48776629D01*
X73323571Y48705200D01*
X73395000Y48633772D01*
X74680714Y47276629D02*
X74680714Y48062343D01*
X74609285Y48205200D01*
X74466428Y48276629D01*
X74180714Y48276629D01*
X74037857Y48205200D01*
X74680714Y47348058D02*
X74537857Y47276629D01*
X74180714Y47276629D01*
X74037857Y47348058D01*
X73966428Y47490915D01*
X73966428Y47633772D01*
X74037857Y47776629D01*
X74180714Y47848058D01*
X74537857Y47848058D01*
X74680714Y47919486D01*
X75395000Y47276629D02*
X75395000Y48276629D01*
X75395000Y47990915D02*
X75466428Y48133772D01*
X75537857Y48205200D01*
X75680714Y48276629D01*
X75823571Y48276629D01*
X76966428Y47276629D02*
X76966428Y48776629D01*
X76966428Y47348058D02*
X76823571Y47276629D01*
X76537857Y47276629D01*
X76395000Y47348058D01*
X76323571Y47419486D01*
X76252142Y47562343D01*
X76252142Y47990915D01*
X76323571Y48133772D01*
X76395000Y48205200D01*
X76537857Y48276629D01*
X76823571Y48276629D01*
X76966428Y48205200D01*
X82252142Y47276629D02*
X82252142Y48776629D01*
X82823571Y48776629D01*
X82966428Y48705200D01*
X83037857Y48633772D01*
X83109285Y48490915D01*
X83109285Y48276629D01*
X83037857Y48133772D01*
X82966428Y48062343D01*
X82823571Y47990915D01*
X82252142Y47990915D01*
X83752142Y47276629D02*
X83752142Y48776629D01*
X84109285Y48776629D01*
X84323571Y48705200D01*
X84466428Y48562343D01*
X84537857Y48419486D01*
X84609285Y48133772D01*
X84609285Y47919486D01*
X84537857Y47633772D01*
X84466428Y47490915D01*
X84323571Y47348058D01*
X84109285Y47276629D01*
X83752142Y47276629D01*
X86037857Y47276629D02*
X85180714Y47276629D01*
X85609285Y47276629D02*
X85609285Y48776629D01*
X85466428Y48562343D01*
X85323571Y48419486D01*
X85180714Y48348058D01*
X86966428Y48776629D02*
X87109285Y48776629D01*
X87252142Y48705200D01*
X87323571Y48633772D01*
X87395000Y48490915D01*
X87466428Y48205200D01*
X87466428Y47848058D01*
X87395000Y47562343D01*
X87323571Y47419486D01*
X87252142Y47348058D01*
X87109285Y47276629D01*
X86966428Y47276629D01*
X86823571Y47348058D01*
X86752142Y47419486D01*
X86680714Y47562343D01*
X86609285Y47848058D01*
X86609285Y48205200D01*
X86680714Y48490915D01*
X86752142Y48633772D01*
X86823571Y48705200D01*
X86966428Y48776629D01*
X88752142Y48276629D02*
X88752142Y47276629D01*
X88395000Y48848058D02*
X88037857Y47776629D01*
X88966428Y47776629D01*
X90537857Y48276629D02*
X90895000Y47276629D01*
X91252142Y48276629D01*
X92609285Y47276629D02*
X91752142Y47276629D01*
X92180714Y47276629D02*
X92180714Y48776629D01*
X92037857Y48562343D01*
X91895000Y48419486D01*
X91752142Y48348058D01*
X93252142Y47419486D02*
X93323571Y47348058D01*
X93252142Y47276629D01*
X93180714Y47348058D01*
X93252142Y47419486D01*
X93252142Y47276629D01*
X94752142Y47276629D02*
X93895000Y47276629D01*
X94323571Y47276629D02*
X94323571Y48776629D01*
X94180714Y48562343D01*
X94037857Y48419486D01*
X93895000Y48348058D01*
D10*
X8151904Y40517820D02*
X8151904Y41517820D01*
X8151904Y41136867D02*
X8247142Y41184486D01*
X8437619Y41184486D01*
X8532857Y41136867D01*
X8580476Y41089248D01*
X8628095Y40994010D01*
X8628095Y40708296D01*
X8580476Y40613058D01*
X8532857Y40565439D01*
X8437619Y40517820D01*
X8247142Y40517820D01*
X8151904Y40565439D01*
X9056666Y40517820D02*
X9056666Y41184486D01*
X9056666Y41517820D02*
X9009047Y41470200D01*
X9056666Y41422581D01*
X9104285Y41470200D01*
X9056666Y41517820D01*
X9056666Y41422581D01*
X9390000Y41184486D02*
X9770952Y41184486D01*
X9532857Y41517820D02*
X9532857Y40660677D01*
X9580476Y40565439D01*
X9675714Y40517820D01*
X9770952Y40517820D01*
X16319523Y40517820D02*
X15748095Y40517820D01*
X16033809Y40517820D02*
X16033809Y41517820D01*
X15938571Y41374962D01*
X15843333Y41279724D01*
X15748095Y41232105D01*
X16652857Y41517820D02*
X17271904Y41517820D01*
X16938571Y41136867D01*
X17081428Y41136867D01*
X17176666Y41089248D01*
X17224285Y41041629D01*
X17271904Y40946391D01*
X17271904Y40708296D01*
X17224285Y40613058D01*
X17176666Y40565439D01*
X17081428Y40517820D01*
X16795714Y40517820D01*
X16700476Y40565439D01*
X16652857Y40613058D01*
X13779523Y40517820D02*
X13208095Y40517820D01*
X13493809Y40517820D02*
X13493809Y41517820D01*
X13398571Y41374962D01*
X13303333Y41279724D01*
X13208095Y41232105D01*
X14636666Y41184486D02*
X14636666Y40517820D01*
X14398571Y41565439D02*
X14160476Y40851153D01*
X14779523Y40851153D01*
X11239523Y40517820D02*
X10668095Y40517820D01*
X10953809Y40517820D02*
X10953809Y41517820D01*
X10858571Y41374962D01*
X10763333Y41279724D01*
X10668095Y41232105D01*
X12144285Y41517820D02*
X11668095Y41517820D01*
X11620476Y41041629D01*
X11668095Y41089248D01*
X11763333Y41136867D01*
X12001428Y41136867D01*
X12096666Y41089248D01*
X12144285Y41041629D01*
X12191904Y40946391D01*
X12191904Y40708296D01*
X12144285Y40613058D01*
X12096666Y40565439D01*
X12001428Y40517820D01*
X11763333Y40517820D01*
X11668095Y40565439D01*
X11620476Y40613058D01*
X11025714Y42422820D02*
X11025714Y43422820D01*
X11406666Y43422820D01*
X11501904Y43375200D01*
X11549523Y43327581D01*
X11597142Y43232343D01*
X11597142Y43089486D01*
X11549523Y42994248D01*
X11501904Y42946629D01*
X11406666Y42899010D01*
X11025714Y42899010D01*
X12454285Y42422820D02*
X12454285Y42946629D01*
X12406666Y43041867D01*
X12311428Y43089486D01*
X12120952Y43089486D01*
X12025714Y43041867D01*
X12454285Y42470439D02*
X12359047Y42422820D01*
X12120952Y42422820D01*
X12025714Y42470439D01*
X11978095Y42565677D01*
X11978095Y42660915D01*
X12025714Y42756153D01*
X12120952Y42803772D01*
X12359047Y42803772D01*
X12454285Y42851391D01*
X13359047Y43089486D02*
X13359047Y42279962D01*
X13311428Y42184724D01*
X13263809Y42137105D01*
X13168571Y42089486D01*
X13025714Y42089486D01*
X12930476Y42137105D01*
X13359047Y42470439D02*
X13263809Y42422820D01*
X13073333Y42422820D01*
X12978095Y42470439D01*
X12930476Y42518058D01*
X12882857Y42613296D01*
X12882857Y42899010D01*
X12930476Y42994248D01*
X12978095Y43041867D01*
X13073333Y43089486D01*
X13263809Y43089486D01*
X13359047Y43041867D01*
X14216190Y42470439D02*
X14120952Y42422820D01*
X13930476Y42422820D01*
X13835238Y42470439D01*
X13787619Y42565677D01*
X13787619Y42946629D01*
X13835238Y43041867D01*
X13930476Y43089486D01*
X14120952Y43089486D01*
X14216190Y43041867D01*
X14263809Y42946629D01*
X14263809Y42851391D01*
X13787619Y42756153D01*
X15406666Y42470439D02*
X15501904Y42422820D01*
X15692380Y42422820D01*
X15787619Y42470439D01*
X15835238Y42565677D01*
X15835238Y42613296D01*
X15787619Y42708534D01*
X15692380Y42756153D01*
X15549523Y42756153D01*
X15454285Y42803772D01*
X15406666Y42899010D01*
X15406666Y42946629D01*
X15454285Y43041867D01*
X15549523Y43089486D01*
X15692380Y43089486D01*
X15787619Y43041867D01*
X16644761Y42470439D02*
X16549523Y42422820D01*
X16359047Y42422820D01*
X16263809Y42470439D01*
X16216190Y42565677D01*
X16216190Y42946629D01*
X16263809Y43041867D01*
X16359047Y43089486D01*
X16549523Y43089486D01*
X16644761Y43041867D01*
X16692380Y42946629D01*
X16692380Y42851391D01*
X16216190Y42756153D01*
X17263809Y42422820D02*
X17168571Y42470439D01*
X17120952Y42565677D01*
X17120952Y43422820D01*
X18025714Y42470439D02*
X17930476Y42422820D01*
X17740000Y42422820D01*
X17644761Y42470439D01*
X17597142Y42565677D01*
X17597142Y42946629D01*
X17644761Y43041867D01*
X17740000Y43089486D01*
X17930476Y43089486D01*
X18025714Y43041867D01*
X18073333Y42946629D01*
X18073333Y42851391D01*
X17597142Y42756153D01*
X18930476Y42470439D02*
X18835238Y42422820D01*
X18644761Y42422820D01*
X18549523Y42470439D01*
X18501904Y42518058D01*
X18454285Y42613296D01*
X18454285Y42899010D01*
X18501904Y42994248D01*
X18549523Y43041867D01*
X18644761Y43089486D01*
X18835238Y43089486D01*
X18930476Y43041867D01*
X19216190Y43089486D02*
X19597142Y43089486D01*
X19359047Y43422820D02*
X19359047Y42565677D01*
X19406666Y42470439D01*
X19501904Y42422820D01*
X19597142Y42422820D01*
X21312619Y22102820D02*
X21312619Y23102820D01*
X21693571Y23102820D01*
X21788809Y23055200D01*
X21836428Y23007581D01*
X21884047Y22912343D01*
X21884047Y22769486D01*
X21836428Y22674248D01*
X21788809Y22626629D01*
X21693571Y22579010D01*
X21312619Y22579010D01*
X22741190Y22102820D02*
X22741190Y22626629D01*
X22693571Y22721867D01*
X22598333Y22769486D01*
X22407857Y22769486D01*
X22312619Y22721867D01*
X22741190Y22150439D02*
X22645952Y22102820D01*
X22407857Y22102820D01*
X22312619Y22150439D01*
X22265000Y22245677D01*
X22265000Y22340915D01*
X22312619Y22436153D01*
X22407857Y22483772D01*
X22645952Y22483772D01*
X22741190Y22531391D01*
X23645952Y22769486D02*
X23645952Y21959962D01*
X23598333Y21864724D01*
X23550714Y21817105D01*
X23455476Y21769486D01*
X23312619Y21769486D01*
X23217380Y21817105D01*
X23645952Y22150439D02*
X23550714Y22102820D01*
X23360238Y22102820D01*
X23265000Y22150439D01*
X23217380Y22198058D01*
X23169761Y22293296D01*
X23169761Y22579010D01*
X23217380Y22674248D01*
X23265000Y22721867D01*
X23360238Y22769486D01*
X23550714Y22769486D01*
X23645952Y22721867D01*
X24503095Y22150439D02*
X24407857Y22102820D01*
X24217380Y22102820D01*
X24122142Y22150439D01*
X24074523Y22245677D01*
X24074523Y22626629D01*
X24122142Y22721867D01*
X24217380Y22769486D01*
X24407857Y22769486D01*
X24503095Y22721867D01*
X24550714Y22626629D01*
X24550714Y22531391D01*
X24074523Y22436153D01*
X25693571Y22150439D02*
X25788809Y22102820D01*
X25979285Y22102820D01*
X26074523Y22150439D01*
X26122142Y22245677D01*
X26122142Y22293296D01*
X26074523Y22388534D01*
X25979285Y22436153D01*
X25836428Y22436153D01*
X25741190Y22483772D01*
X25693571Y22579010D01*
X25693571Y22626629D01*
X25741190Y22721867D01*
X25836428Y22769486D01*
X25979285Y22769486D01*
X26074523Y22721867D01*
X26550714Y22102820D02*
X26550714Y22769486D01*
X26550714Y23102820D02*
X26503095Y23055200D01*
X26550714Y23007581D01*
X26598333Y23055200D01*
X26550714Y23102820D01*
X26550714Y23007581D01*
X26931666Y22769486D02*
X27455476Y22769486D01*
X26931666Y22102820D01*
X27455476Y22102820D01*
X28217380Y22150439D02*
X28122142Y22102820D01*
X27931666Y22102820D01*
X27836428Y22150439D01*
X27788809Y22245677D01*
X27788809Y22626629D01*
X27836428Y22721867D01*
X27931666Y22769486D01*
X28122142Y22769486D01*
X28217380Y22721867D01*
X28265000Y22626629D01*
X28265000Y22531391D01*
X27788809Y22436153D01*
D12*
X8818571Y34806629D02*
X8961428Y34806629D01*
X9104285Y34735200D01*
X9175714Y34663772D01*
X9247142Y34520915D01*
X9318571Y34235200D01*
X9318571Y33878058D01*
X9247142Y33592343D01*
X9175714Y33449486D01*
X9104285Y33378058D01*
X8961428Y33306629D01*
X8818571Y33306629D01*
X8675714Y33378058D01*
X8604285Y33449486D01*
X8532857Y33592343D01*
X8461428Y33878058D01*
X8461428Y34235200D01*
X8532857Y34520915D01*
X8604285Y34663772D01*
X8675714Y34735200D01*
X8818571Y34806629D01*
X9318571Y37116629D02*
X8461428Y37116629D01*
X8890000Y37116629D02*
X8890000Y38616629D01*
X8747142Y38402343D01*
X8604285Y38259486D01*
X8461428Y38188058D01*
X54031428Y35441629D02*
X54031428Y34370200D01*
X53960000Y34155915D01*
X53817142Y34013058D01*
X53602857Y33941629D01*
X53460000Y33941629D01*
X55460000Y33941629D02*
X54745714Y33941629D01*
X54745714Y35441629D01*
X56817142Y34084486D02*
X56745714Y34013058D01*
X56531428Y33941629D01*
X56388571Y33941629D01*
X56174285Y34013058D01*
X56031428Y34155915D01*
X55960000Y34298772D01*
X55888571Y34584486D01*
X55888571Y34798772D01*
X55960000Y35084486D01*
X56031428Y35227343D01*
X56174285Y35370200D01*
X56388571Y35441629D01*
X56531428Y35441629D01*
X56745714Y35370200D01*
X56817142Y35298772D01*
X57888571Y35441629D02*
X57888571Y34370200D01*
X57817142Y34155915D01*
X57674285Y34013058D01*
X57460000Y33941629D01*
X57317142Y33941629D01*
X59317142Y33941629D02*
X58602857Y33941629D01*
X58602857Y35441629D01*
X60674285Y34084486D02*
X60602857Y34013058D01*
X60388571Y33941629D01*
X60245714Y33941629D01*
X60031428Y34013058D01*
X59888571Y34155915D01*
X59817142Y34298772D01*
X59745714Y34584486D01*
X59745714Y34798772D01*
X59817142Y35084486D01*
X59888571Y35227343D01*
X60031428Y35370200D01*
X60245714Y35441629D01*
X60388571Y35441629D01*
X60602857Y35370200D01*
X60674285Y35298772D01*
X61745714Y35441629D02*
X61745714Y34370200D01*
X61674285Y34155915D01*
X61531428Y34013058D01*
X61317142Y33941629D01*
X61174285Y33941629D01*
X63174285Y33941629D02*
X62460000Y33941629D01*
X62460000Y35441629D01*
X64531428Y34084486D02*
X64460000Y34013058D01*
X64245714Y33941629D01*
X64102857Y33941629D01*
X63888571Y34013058D01*
X63745714Y34155915D01*
X63674285Y34298772D01*
X63602857Y34584486D01*
X63602857Y34798772D01*
X63674285Y35084486D01*
X63745714Y35227343D01*
X63888571Y35370200D01*
X64102857Y35441629D01*
X64245714Y35441629D01*
X64460000Y35370200D01*
X64531428Y35298772D01*
X65602857Y35441629D02*
X65602857Y34370200D01*
X65531428Y34155915D01*
X65388571Y34013058D01*
X65174285Y33941629D01*
X65031428Y33941629D01*
X67031428Y33941629D02*
X66317142Y33941629D01*
X66317142Y35441629D01*
X68388571Y34084486D02*
X68317142Y34013058D01*
X68102857Y33941629D01*
X67960000Y33941629D01*
X67745714Y34013058D01*
X67602857Y34155915D01*
X67531428Y34298772D01*
X67460000Y34584486D01*
X67460000Y34798772D01*
X67531428Y35084486D01*
X67602857Y35227343D01*
X67745714Y35370200D01*
X67960000Y35441629D01*
X68102857Y35441629D01*
X68317142Y35370200D01*
X68388571Y35298772D01*
X1613333Y-4991942D02*
X1613333Y-4277657D01*
X2039047Y-5134800D02*
X549047Y-4634800D01*
X2039047Y-4134800D01*
X2039047Y-2849085D02*
X2039047Y-3706228D01*
X2039047Y-3277657D02*
X549047Y-3277657D01*
X761904Y-3420514D01*
X903809Y-3563371D01*
X974761Y-3706228D01*
X549047Y-1491942D02*
X549047Y-2206228D01*
X1258571Y-2277657D01*
X1187619Y-2206228D01*
X1116666Y-2063371D01*
X1116666Y-1706228D01*
X1187619Y-1563371D01*
X1258571Y-1491942D01*
X1400476Y-1420514D01*
X1755238Y-1420514D01*
X1897142Y-1491942D01*
X1968095Y-1563371D01*
X2039047Y-1706228D01*
X2039047Y-2063371D01*
X1968095Y-2206228D01*
X1897142Y-2277657D01*
X4148333Y-4991942D02*
X4148333Y-4277657D01*
X4574047Y-5134800D02*
X3084047Y-4634800D01*
X4574047Y-4134800D01*
X4574047Y-2849085D02*
X4574047Y-3706228D01*
X4574047Y-3277657D02*
X3084047Y-3277657D01*
X3296904Y-3420514D01*
X3438809Y-3563371D01*
X3509761Y-3706228D01*
X3580714Y-1563371D02*
X4574047Y-1563371D01*
X3013095Y-1920514D02*
X4077380Y-2277657D01*
X4077380Y-1349085D01*
X6683333Y-4991942D02*
X6683333Y-4277657D01*
X7109047Y-5134800D02*
X5619047Y-4634800D01*
X7109047Y-4134800D01*
X7109047Y-2849085D02*
X7109047Y-3706228D01*
X7109047Y-3277657D02*
X5619047Y-3277657D01*
X5831904Y-3420514D01*
X5973809Y-3563371D01*
X6044761Y-3706228D01*
X5619047Y-2349085D02*
X5619047Y-1420514D01*
X6186666Y-1920514D01*
X6186666Y-1706228D01*
X6257619Y-1563371D01*
X6328571Y-1491942D01*
X6470476Y-1420514D01*
X6825238Y-1420514D01*
X6967142Y-1491942D01*
X7038095Y-1563371D01*
X7109047Y-1706228D01*
X7109047Y-2134800D01*
X7038095Y-2277657D01*
X6967142Y-2349085D01*
X9218333Y-4991942D02*
X9218333Y-4277657D01*
X9644047Y-5134800D02*
X8154047Y-4634800D01*
X9644047Y-4134800D01*
X9644047Y-2849085D02*
X9644047Y-3706228D01*
X9644047Y-3277657D02*
X8154047Y-3277657D01*
X8366904Y-3420514D01*
X8508809Y-3563371D01*
X8579761Y-3706228D01*
X8295952Y-2277657D02*
X8225000Y-2206228D01*
X8154047Y-2063371D01*
X8154047Y-1706228D01*
X8225000Y-1563371D01*
X8295952Y-1491942D01*
X8437857Y-1420514D01*
X8579761Y-1420514D01*
X8792619Y-1491942D01*
X9644047Y-2349085D01*
X9644047Y-1420514D01*
X11753333Y-4991942D02*
X11753333Y-4277657D01*
X12179047Y-5134800D02*
X10689047Y-4634800D01*
X12179047Y-4134800D01*
X12179047Y-2849085D02*
X12179047Y-3706228D01*
X12179047Y-3277657D02*
X10689047Y-3277657D01*
X10901904Y-3420514D01*
X11043809Y-3563371D01*
X11114761Y-3706228D01*
X12179047Y-1420514D02*
X12179047Y-2277657D01*
X12179047Y-1849085D02*
X10689047Y-1849085D01*
X10901904Y-1991942D01*
X11043809Y-2134800D01*
X11114761Y-2277657D01*
X14288333Y-4991942D02*
X14288333Y-4277657D01*
X14714047Y-5134800D02*
X13224047Y-4634800D01*
X14714047Y-4134800D01*
X14714047Y-2849085D02*
X14714047Y-3706228D01*
X14714047Y-3277657D02*
X13224047Y-3277657D01*
X13436904Y-3420514D01*
X13578809Y-3563371D01*
X13649761Y-3706228D01*
X13224047Y-1920514D02*
X13224047Y-1777657D01*
X13295000Y-1634800D01*
X13365952Y-1563371D01*
X13507857Y-1491942D01*
X13791666Y-1420514D01*
X14146428Y-1420514D01*
X14430238Y-1491942D01*
X14572142Y-1563371D01*
X14643095Y-1634800D01*
X14714047Y-1777657D01*
X14714047Y-1920514D01*
X14643095Y-2063371D01*
X14572142Y-2134800D01*
X14430238Y-2206228D01*
X14146428Y-2277657D01*
X13791666Y-2277657D01*
X13507857Y-2206228D01*
X13365952Y-2134800D01*
X13295000Y-2063371D01*
X13224047Y-1920514D01*
X16823333Y-3563371D02*
X16823333Y-2849085D01*
X17249047Y-3706228D02*
X15759047Y-3206228D01*
X17249047Y-2706228D01*
X17249047Y-2134800D02*
X17249047Y-1849085D01*
X17178095Y-1706228D01*
X17107142Y-1634800D01*
X16894285Y-1491942D01*
X16610476Y-1420514D01*
X16042857Y-1420514D01*
X15900952Y-1491942D01*
X15830000Y-1563371D01*
X15759047Y-1706228D01*
X15759047Y-1991942D01*
X15830000Y-2134800D01*
X15900952Y-2206228D01*
X16042857Y-2277657D01*
X16397619Y-2277657D01*
X16539523Y-2206228D01*
X16610476Y-2134800D01*
X16681428Y-1991942D01*
X16681428Y-1706228D01*
X16610476Y-1563371D01*
X16539523Y-1491942D01*
X16397619Y-1420514D01*
X19358333Y-3563371D02*
X19358333Y-2849085D01*
X19784047Y-3706228D02*
X18294047Y-3206228D01*
X19784047Y-2706228D01*
X18932619Y-1991942D02*
X18861666Y-2134800D01*
X18790714Y-2206228D01*
X18648809Y-2277657D01*
X18577857Y-2277657D01*
X18435952Y-2206228D01*
X18365000Y-2134800D01*
X18294047Y-1991942D01*
X18294047Y-1706228D01*
X18365000Y-1563371D01*
X18435952Y-1491942D01*
X18577857Y-1420514D01*
X18648809Y-1420514D01*
X18790714Y-1491942D01*
X18861666Y-1563371D01*
X18932619Y-1706228D01*
X18932619Y-1991942D01*
X19003571Y-2134800D01*
X19074523Y-2206228D01*
X19216428Y-2277657D01*
X19500238Y-2277657D01*
X19642142Y-2206228D01*
X19713095Y-2134800D01*
X19784047Y-1991942D01*
X19784047Y-1706228D01*
X19713095Y-1563371D01*
X19642142Y-1491942D01*
X19500238Y-1420514D01*
X19216428Y-1420514D01*
X19074523Y-1491942D01*
X19003571Y-1563371D01*
X18932619Y-1706228D01*
X21893333Y-3563371D02*
X21893333Y-2849085D01*
X22319047Y-3706228D02*
X20829047Y-3206228D01*
X22319047Y-2706228D01*
X20829047Y-2349085D02*
X20829047Y-1349085D01*
X22319047Y-1991942D01*
X24428333Y-3563371D02*
X24428333Y-2849085D01*
X24854047Y-3706228D02*
X23364047Y-3206228D01*
X24854047Y-2706228D01*
X23364047Y-1563371D02*
X23364047Y-1849085D01*
X23435000Y-1991942D01*
X23505952Y-2063371D01*
X23718809Y-2206228D01*
X24002619Y-2277657D01*
X24570238Y-2277657D01*
X24712142Y-2206228D01*
X24783095Y-2134800D01*
X24854047Y-1991942D01*
X24854047Y-1706228D01*
X24783095Y-1563371D01*
X24712142Y-1491942D01*
X24570238Y-1420514D01*
X24215476Y-1420514D01*
X24073571Y-1491942D01*
X24002619Y-1563371D01*
X23931666Y-1706228D01*
X23931666Y-1991942D01*
X24002619Y-2134800D01*
X24073571Y-2206228D01*
X24215476Y-2277657D01*
X26963333Y-3563371D02*
X26963333Y-2849085D01*
X27389047Y-3706228D02*
X25899047Y-3206228D01*
X27389047Y-2706228D01*
X25899047Y-1491942D02*
X25899047Y-2206228D01*
X26608571Y-2277657D01*
X26537619Y-2206228D01*
X26466666Y-2063371D01*
X26466666Y-1706228D01*
X26537619Y-1563371D01*
X26608571Y-1491942D01*
X26750476Y-1420514D01*
X27105238Y-1420514D01*
X27247142Y-1491942D01*
X27318095Y-1563371D01*
X27389047Y-1706228D01*
X27389047Y-2063371D01*
X27318095Y-2206228D01*
X27247142Y-2277657D01*
X29498333Y-3563371D02*
X29498333Y-2849085D01*
X29924047Y-3706228D02*
X28434047Y-3206228D01*
X29924047Y-2706228D01*
X28930714Y-1563371D02*
X29924047Y-1563371D01*
X28363095Y-1920514D02*
X29427380Y-2277657D01*
X29427380Y-1349085D01*
X32033333Y-3563371D02*
X32033333Y-2849085D01*
X32459047Y-3706228D02*
X30969047Y-3206228D01*
X32459047Y-2706228D01*
X30969047Y-2349085D02*
X30969047Y-1420514D01*
X31536666Y-1920514D01*
X31536666Y-1706228D01*
X31607619Y-1563371D01*
X31678571Y-1491942D01*
X31820476Y-1420514D01*
X32175238Y-1420514D01*
X32317142Y-1491942D01*
X32388095Y-1563371D01*
X32459047Y-1706228D01*
X32459047Y-2134800D01*
X32388095Y-2277657D01*
X32317142Y-2349085D01*
X34568333Y-3563371D02*
X34568333Y-2849085D01*
X34994047Y-3706228D02*
X33504047Y-3206228D01*
X34994047Y-2706228D01*
X33645952Y-2277657D02*
X33575000Y-2206228D01*
X33504047Y-2063371D01*
X33504047Y-1706228D01*
X33575000Y-1563371D01*
X33645952Y-1491942D01*
X33787857Y-1420514D01*
X33929761Y-1420514D01*
X34142619Y-1491942D01*
X34994047Y-2349085D01*
X34994047Y-1420514D01*
X37103333Y-3563371D02*
X37103333Y-2849085D01*
X37529047Y-3706228D02*
X36039047Y-3206228D01*
X37529047Y-2706228D01*
X37529047Y-1420514D02*
X37529047Y-2277657D01*
X37529047Y-1849085D02*
X36039047Y-1849085D01*
X36251904Y-1991942D01*
X36393809Y-2134800D01*
X36464761Y-2277657D01*
X39638333Y-3563371D02*
X39638333Y-2849085D01*
X40064047Y-3706228D02*
X38574047Y-3206228D01*
X40064047Y-2706228D01*
X38574047Y-1920514D02*
X38574047Y-1777657D01*
X38645000Y-1634800D01*
X38715952Y-1563371D01*
X38857857Y-1491942D01*
X39141666Y-1420514D01*
X39496428Y-1420514D01*
X39780238Y-1491942D01*
X39922142Y-1563371D01*
X39993095Y-1634800D01*
X40064047Y-1777657D01*
X40064047Y-1920514D01*
X39993095Y-2063371D01*
X39922142Y-2134800D01*
X39780238Y-2206228D01*
X39496428Y-2277657D01*
X39141666Y-2277657D01*
X38857857Y-2206228D01*
X38715952Y-2134800D01*
X38645000Y-2063371D01*
X38574047Y-1920514D01*
X41180000Y-4206228D02*
X41109047Y-4349085D01*
X41109047Y-4563371D01*
X41180000Y-4777657D01*
X41321904Y-4920514D01*
X41463809Y-4991942D01*
X41747619Y-5063371D01*
X41960476Y-5063371D01*
X42244285Y-4991942D01*
X42386190Y-4920514D01*
X42528095Y-4777657D01*
X42599047Y-4563371D01*
X42599047Y-4420514D01*
X42528095Y-4206228D01*
X42457142Y-4134800D01*
X41960476Y-4134800D01*
X41960476Y-4420514D01*
X41605714Y-3491942D02*
X42599047Y-3491942D01*
X41747619Y-3491942D02*
X41676666Y-3420514D01*
X41605714Y-3277657D01*
X41605714Y-3063371D01*
X41676666Y-2920514D01*
X41818571Y-2849085D01*
X42599047Y-2849085D01*
X42599047Y-1491942D02*
X41109047Y-1491942D01*
X42528095Y-1491942D02*
X42599047Y-1634800D01*
X42599047Y-1920514D01*
X42528095Y-2063371D01*
X42457142Y-2134800D01*
X42315238Y-2206228D01*
X41889523Y-2206228D01*
X41747619Y-2134800D01*
X41676666Y-2063371D01*
X41605714Y-1920514D01*
X41605714Y-1634800D01*
X41676666Y-1491942D01*
X43644047Y-2634800D02*
X43644047Y-3349085D01*
X44353571Y-3420514D01*
X44282619Y-3349085D01*
X44211666Y-3206228D01*
X44211666Y-2849085D01*
X44282619Y-2706228D01*
X44353571Y-2634800D01*
X44495476Y-2563371D01*
X44850238Y-2563371D01*
X44992142Y-2634800D01*
X45063095Y-2706228D01*
X45134047Y-2849085D01*
X45134047Y-3206228D01*
X45063095Y-3349085D01*
X44992142Y-3420514D01*
X44140714Y-2063371D02*
X45134047Y-1706228D01*
X44140714Y-1349085D01*
X47669047Y-3920514D02*
X46179047Y-3920514D01*
X47243333Y-3420514D01*
X46179047Y-2920514D01*
X47669047Y-2920514D01*
X47669047Y-1420514D02*
X47669047Y-2277657D01*
X47669047Y-1849085D02*
X46179047Y-1849085D01*
X46391904Y-1991942D01*
X46533809Y-2134800D01*
X46604761Y-2277657D01*
X50204047Y-6063371D02*
X49494523Y-6563371D01*
X50204047Y-6920514D02*
X48714047Y-6920514D01*
X48714047Y-6349085D01*
X48785000Y-6206228D01*
X48855952Y-6134800D01*
X48997857Y-6063371D01*
X49210714Y-6063371D01*
X49352619Y-6134800D01*
X49423571Y-6206228D01*
X49494523Y-6349085D01*
X49494523Y-6920514D01*
X50133095Y-4849085D02*
X50204047Y-4991942D01*
X50204047Y-5277657D01*
X50133095Y-5420514D01*
X49991190Y-5491942D01*
X49423571Y-5491942D01*
X49281666Y-5420514D01*
X49210714Y-5277657D01*
X49210714Y-4991942D01*
X49281666Y-4849085D01*
X49423571Y-4777657D01*
X49565476Y-4777657D01*
X49707380Y-5491942D01*
X50133095Y-4206228D02*
X50204047Y-4063371D01*
X50204047Y-3777657D01*
X50133095Y-3634800D01*
X49991190Y-3563371D01*
X49920238Y-3563371D01*
X49778333Y-3634800D01*
X49707380Y-3777657D01*
X49707380Y-3991942D01*
X49636428Y-4134800D01*
X49494523Y-4206228D01*
X49423571Y-4206228D01*
X49281666Y-4134800D01*
X49210714Y-3991942D01*
X49210714Y-3777657D01*
X49281666Y-3634800D01*
X50133095Y-2349085D02*
X50204047Y-2491942D01*
X50204047Y-2777657D01*
X50133095Y-2920514D01*
X49991190Y-2991942D01*
X49423571Y-2991942D01*
X49281666Y-2920514D01*
X49210714Y-2777657D01*
X49210714Y-2491942D01*
X49281666Y-2349085D01*
X49423571Y-2277657D01*
X49565476Y-2277657D01*
X49707380Y-2991942D01*
X49210714Y-1849085D02*
X49210714Y-1277657D01*
X48714047Y-1634800D02*
X49991190Y-1634800D01*
X50133095Y-1563371D01*
X50204047Y-1420514D01*
X50204047Y-1277657D01*
X52597142Y-6063371D02*
X52668095Y-6134800D01*
X52739047Y-6349085D01*
X52739047Y-6491942D01*
X52668095Y-6706228D01*
X52526190Y-6849085D01*
X52384285Y-6920514D01*
X52100476Y-6991942D01*
X51887619Y-6991942D01*
X51603809Y-6920514D01*
X51461904Y-6849085D01*
X51320000Y-6706228D01*
X51249047Y-6491942D01*
X51249047Y-6349085D01*
X51320000Y-6134800D01*
X51390952Y-6063371D01*
X52739047Y-5206228D02*
X52668095Y-5349085D01*
X52526190Y-5420514D01*
X51249047Y-5420514D01*
X52739047Y-4420514D02*
X52668095Y-4563371D01*
X52597142Y-4634800D01*
X52455238Y-4706228D01*
X52029523Y-4706228D01*
X51887619Y-4634800D01*
X51816666Y-4563371D01*
X51745714Y-4420514D01*
X51745714Y-4206228D01*
X51816666Y-4063371D01*
X51887619Y-3991942D01*
X52029523Y-3920514D01*
X52455238Y-3920514D01*
X52597142Y-3991942D01*
X52668095Y-4063371D01*
X52739047Y-4206228D01*
X52739047Y-4420514D01*
X52668095Y-2634800D02*
X52739047Y-2777657D01*
X52739047Y-3063371D01*
X52668095Y-3206228D01*
X52597142Y-3277657D01*
X52455238Y-3349085D01*
X52029523Y-3349085D01*
X51887619Y-3277657D01*
X51816666Y-3206228D01*
X51745714Y-3063371D01*
X51745714Y-2777657D01*
X51816666Y-2634800D01*
X52739047Y-1991942D02*
X51249047Y-1991942D01*
X52171428Y-1849085D02*
X52739047Y-1420514D01*
X51745714Y-1420514D02*
X52313333Y-1991942D01*
X55274047Y-4206228D02*
X53784047Y-4206228D01*
X55274047Y-3491942D02*
X53784047Y-3491942D01*
X55274047Y-2634800D01*
X53784047Y-2634800D01*
X53784047Y-2134800D02*
X53784047Y-1277657D01*
X55274047Y-1706228D02*
X53784047Y-1706228D01*
X57809047Y-6063371D02*
X56319047Y-6063371D01*
X57383333Y-5563371D01*
X56319047Y-5063371D01*
X57809047Y-5063371D01*
X57809047Y-4349085D02*
X56815714Y-4349085D01*
X57099523Y-4349085D02*
X56957619Y-4277657D01*
X56886666Y-4206228D01*
X56815714Y-4063371D01*
X56815714Y-3920514D01*
X57738095Y-2849085D02*
X57809047Y-2991942D01*
X57809047Y-3277657D01*
X57738095Y-3420514D01*
X57596190Y-3491942D01*
X57028571Y-3491942D01*
X56886666Y-3420514D01*
X56815714Y-3277657D01*
X56815714Y-2991942D01*
X56886666Y-2849085D01*
X57028571Y-2777657D01*
X57170476Y-2777657D01*
X57312380Y-3491942D01*
X56815714Y-1491942D02*
X58305714Y-1491942D01*
X57738095Y-1491942D02*
X57809047Y-1634800D01*
X57809047Y-1920514D01*
X57738095Y-2063371D01*
X57667142Y-2134800D01*
X57525238Y-2206228D01*
X57099523Y-2206228D01*
X56957619Y-2134800D01*
X56886666Y-2063371D01*
X56815714Y-1920514D01*
X56815714Y-1634800D01*
X56886666Y-1491942D01*
X58854047Y-3563371D02*
X60344047Y-3206228D01*
X59279761Y-2920514D01*
X60344047Y-2634800D01*
X58854047Y-2277657D01*
X60344047Y-1706228D02*
X59350714Y-1706228D01*
X59634523Y-1706228D02*
X59492619Y-1634800D01*
X59421666Y-1563371D01*
X59350714Y-1420514D01*
X59350714Y-1277657D01*
X62879047Y-2777657D02*
X62169523Y-3277657D01*
X62879047Y-3634800D02*
X61389047Y-3634800D01*
X61389047Y-3063371D01*
X61460000Y-2920514D01*
X61530952Y-2849085D01*
X61672857Y-2777657D01*
X61885714Y-2777657D01*
X62027619Y-2849085D01*
X62098571Y-2920514D01*
X62169523Y-3063371D01*
X62169523Y-3634800D01*
X62879047Y-1920514D02*
X62808095Y-2063371D01*
X62737142Y-2134800D01*
X62595238Y-2206228D01*
X62169523Y-2206228D01*
X62027619Y-2134800D01*
X61956666Y-2063371D01*
X61885714Y-1920514D01*
X61885714Y-1706228D01*
X61956666Y-1563371D01*
X62027619Y-1491942D01*
X62169523Y-1420514D01*
X62595238Y-1420514D01*
X62737142Y-1491942D01*
X62808095Y-1563371D01*
X62879047Y-1706228D01*
X62879047Y-1920514D01*
X65414047Y-6134800D02*
X63924047Y-6134800D01*
X63924047Y-5134800D02*
X63924047Y-4849085D01*
X63995000Y-4706228D01*
X64136904Y-4563371D01*
X64420714Y-4491942D01*
X64917380Y-4491942D01*
X65201190Y-4563371D01*
X65343095Y-4706228D01*
X65414047Y-4849085D01*
X65414047Y-5134800D01*
X65343095Y-5277657D01*
X65201190Y-5420514D01*
X64917380Y-5491942D01*
X64420714Y-5491942D01*
X64136904Y-5420514D01*
X63995000Y-5277657D01*
X63924047Y-5134800D01*
X65414047Y-2991942D02*
X64704523Y-3491942D01*
X65414047Y-3849085D02*
X63924047Y-3849085D01*
X63924047Y-3277657D01*
X63995000Y-3134800D01*
X64065952Y-3063371D01*
X64207857Y-2991942D01*
X64420714Y-2991942D01*
X64562619Y-3063371D01*
X64633571Y-3134800D01*
X64704523Y-3277657D01*
X64704523Y-3849085D01*
X65555952Y-1349085D02*
X65485000Y-1491942D01*
X65343095Y-1634800D01*
X65130238Y-1849085D01*
X65059285Y-1991942D01*
X65059285Y-2134800D01*
X65414047Y-2063371D02*
X65343095Y-2206228D01*
X65201190Y-2349085D01*
X64917380Y-2420514D01*
X64420714Y-2420514D01*
X64136904Y-2349085D01*
X63995000Y-2206228D01*
X63924047Y-2063371D01*
X63924047Y-1777657D01*
X63995000Y-1634800D01*
X64136904Y-1491942D01*
X64420714Y-1420514D01*
X64917380Y-1420514D01*
X65201190Y-1491942D01*
X65343095Y-1634800D01*
X65414047Y-1777657D01*
X65414047Y-2063371D01*
X67949047Y-3706228D02*
X66459047Y-3706228D01*
X66459047Y-3349085D01*
X66530000Y-3134800D01*
X66671904Y-2991942D01*
X66813809Y-2920514D01*
X67097619Y-2849085D01*
X67310476Y-2849085D01*
X67594285Y-2920514D01*
X67736190Y-2991942D01*
X67878095Y-3134800D01*
X67949047Y-3349085D01*
X67949047Y-3706228D01*
X66459047Y-1920514D02*
X66459047Y-1777657D01*
X66530000Y-1634800D01*
X66600952Y-1563371D01*
X66742857Y-1491942D01*
X67026666Y-1420514D01*
X67381428Y-1420514D01*
X67665238Y-1491942D01*
X67807142Y-1563371D01*
X67878095Y-1634800D01*
X67949047Y-1777657D01*
X67949047Y-1920514D01*
X67878095Y-2063371D01*
X67807142Y-2134800D01*
X67665238Y-2206228D01*
X67381428Y-2277657D01*
X67026666Y-2277657D01*
X66742857Y-2206228D01*
X66600952Y-2134800D01*
X66530000Y-2063371D01*
X66459047Y-1920514D01*
X70484047Y-3706228D02*
X68994047Y-3706228D01*
X68994047Y-3349085D01*
X69065000Y-3134800D01*
X69206904Y-2991942D01*
X69348809Y-2920514D01*
X69632619Y-2849085D01*
X69845476Y-2849085D01*
X70129285Y-2920514D01*
X70271190Y-2991942D01*
X70413095Y-3134800D01*
X70484047Y-3349085D01*
X70484047Y-3706228D01*
X70484047Y-1420514D02*
X70484047Y-2277657D01*
X70484047Y-1849085D02*
X68994047Y-1849085D01*
X69206904Y-1991942D01*
X69348809Y-2134800D01*
X69419761Y-2277657D01*
X73019047Y-3706228D02*
X71529047Y-3706228D01*
X71529047Y-3349085D01*
X71600000Y-3134800D01*
X71741904Y-2991942D01*
X71883809Y-2920514D01*
X72167619Y-2849085D01*
X72380476Y-2849085D01*
X72664285Y-2920514D01*
X72806190Y-2991942D01*
X72948095Y-3134800D01*
X73019047Y-3349085D01*
X73019047Y-3706228D01*
X71670952Y-2277657D02*
X71600000Y-2206228D01*
X71529047Y-2063371D01*
X71529047Y-1706228D01*
X71600000Y-1563371D01*
X71670952Y-1491942D01*
X71812857Y-1420514D01*
X71954761Y-1420514D01*
X72167619Y-1491942D01*
X73019047Y-2349085D01*
X73019047Y-1420514D01*
X75554047Y-3706228D02*
X74064047Y-3706228D01*
X74064047Y-3349085D01*
X74135000Y-3134800D01*
X74276904Y-2991942D01*
X74418809Y-2920514D01*
X74702619Y-2849085D01*
X74915476Y-2849085D01*
X75199285Y-2920514D01*
X75341190Y-2991942D01*
X75483095Y-3134800D01*
X75554047Y-3349085D01*
X75554047Y-3706228D01*
X74064047Y-2349085D02*
X74064047Y-1420514D01*
X74631666Y-1920514D01*
X74631666Y-1706228D01*
X74702619Y-1563371D01*
X74773571Y-1491942D01*
X74915476Y-1420514D01*
X75270238Y-1420514D01*
X75412142Y-1491942D01*
X75483095Y-1563371D01*
X75554047Y-1706228D01*
X75554047Y-2134800D01*
X75483095Y-2277657D01*
X75412142Y-2349085D01*
X78089047Y-3706228D02*
X76599047Y-3706228D01*
X76599047Y-3349085D01*
X76670000Y-3134800D01*
X76811904Y-2991942D01*
X76953809Y-2920514D01*
X77237619Y-2849085D01*
X77450476Y-2849085D01*
X77734285Y-2920514D01*
X77876190Y-2991942D01*
X78018095Y-3134800D01*
X78089047Y-3349085D01*
X78089047Y-3706228D01*
X77095714Y-1563371D02*
X78089047Y-1563371D01*
X76528095Y-1920514D02*
X77592380Y-2277657D01*
X77592380Y-1349085D01*
X80624047Y-3706228D02*
X79134047Y-3706228D01*
X79134047Y-3349085D01*
X79205000Y-3134800D01*
X79346904Y-2991942D01*
X79488809Y-2920514D01*
X79772619Y-2849085D01*
X79985476Y-2849085D01*
X80269285Y-2920514D01*
X80411190Y-2991942D01*
X80553095Y-3134800D01*
X80624047Y-3349085D01*
X80624047Y-3706228D01*
X79134047Y-1491942D02*
X79134047Y-2206228D01*
X79843571Y-2277657D01*
X79772619Y-2206228D01*
X79701666Y-2063371D01*
X79701666Y-1706228D01*
X79772619Y-1563371D01*
X79843571Y-1491942D01*
X79985476Y-1420514D01*
X80340238Y-1420514D01*
X80482142Y-1491942D01*
X80553095Y-1563371D01*
X80624047Y-1706228D01*
X80624047Y-2063371D01*
X80553095Y-2206228D01*
X80482142Y-2277657D01*
X83159047Y-3706228D02*
X81669047Y-3706228D01*
X81669047Y-3349085D01*
X81740000Y-3134800D01*
X81881904Y-2991942D01*
X82023809Y-2920514D01*
X82307619Y-2849085D01*
X82520476Y-2849085D01*
X82804285Y-2920514D01*
X82946190Y-2991942D01*
X83088095Y-3134800D01*
X83159047Y-3349085D01*
X83159047Y-3706228D01*
X81669047Y-1563371D02*
X81669047Y-1849085D01*
X81740000Y-1991942D01*
X81810952Y-2063371D01*
X82023809Y-2206228D01*
X82307619Y-2277657D01*
X82875238Y-2277657D01*
X83017142Y-2206228D01*
X83088095Y-2134800D01*
X83159047Y-1991942D01*
X83159047Y-1706228D01*
X83088095Y-1563371D01*
X83017142Y-1491942D01*
X82875238Y-1420514D01*
X82520476Y-1420514D01*
X82378571Y-1491942D01*
X82307619Y-1563371D01*
X82236666Y-1706228D01*
X82236666Y-1991942D01*
X82307619Y-2134800D01*
X82378571Y-2206228D01*
X82520476Y-2277657D01*
X85694047Y-3706228D02*
X84204047Y-3706228D01*
X84204047Y-3349085D01*
X84275000Y-3134800D01*
X84416904Y-2991942D01*
X84558809Y-2920514D01*
X84842619Y-2849085D01*
X85055476Y-2849085D01*
X85339285Y-2920514D01*
X85481190Y-2991942D01*
X85623095Y-3134800D01*
X85694047Y-3349085D01*
X85694047Y-3706228D01*
X84204047Y-2349085D02*
X84204047Y-1349085D01*
X85694047Y-1991942D01*
X86739047Y-3349085D02*
X86739047Y-2491942D01*
X88229047Y-2920514D02*
X86739047Y-2920514D01*
X88229047Y-2134800D02*
X87235714Y-1349085D01*
X87235714Y-2134800D02*
X88229047Y-1349085D01*
X90764047Y-2634800D02*
X90054523Y-3134800D01*
X90764047Y-3491942D02*
X89274047Y-3491942D01*
X89274047Y-2920514D01*
X89345000Y-2777657D01*
X89415952Y-2706228D01*
X89557857Y-2634800D01*
X89770714Y-2634800D01*
X89912619Y-2706228D01*
X89983571Y-2777657D01*
X90054523Y-2920514D01*
X90054523Y-3491942D01*
X90764047Y-2134800D02*
X89770714Y-1349085D01*
X89770714Y-2134800D02*
X90764047Y-1349085D01*
X91809047Y-6706228D02*
X93015238Y-6706228D01*
X93157142Y-6634800D01*
X93228095Y-6563371D01*
X93299047Y-6420514D01*
X93299047Y-6134800D01*
X93228095Y-5991942D01*
X93157142Y-5920514D01*
X93015238Y-5849085D01*
X91809047Y-5849085D01*
X93228095Y-5206228D02*
X93299047Y-4991942D01*
X93299047Y-4634800D01*
X93228095Y-4491942D01*
X93157142Y-4420514D01*
X93015238Y-4349085D01*
X92873333Y-4349085D01*
X92731428Y-4420514D01*
X92660476Y-4491942D01*
X92589523Y-4634800D01*
X92518571Y-4920514D01*
X92447619Y-5063371D01*
X92376666Y-5134800D01*
X92234761Y-5206228D01*
X92092857Y-5206228D01*
X91950952Y-5134800D01*
X91880000Y-5063371D01*
X91809047Y-4920514D01*
X91809047Y-4563371D01*
X91880000Y-4349085D01*
X93299047Y-2849085D02*
X92589523Y-3349085D01*
X93299047Y-3706228D02*
X91809047Y-3706228D01*
X91809047Y-3134800D01*
X91880000Y-2991942D01*
X91950952Y-2920514D01*
X92092857Y-2849085D01*
X92305714Y-2849085D01*
X92447619Y-2920514D01*
X92518571Y-2991942D01*
X92589523Y-3134800D01*
X92589523Y-3706228D01*
X93299047Y-1420514D02*
X93299047Y-2277657D01*
X93299047Y-1849085D02*
X91809047Y-1849085D01*
X92021904Y-1991942D01*
X92163809Y-2134800D01*
X92234761Y-2277657D01*
X94344047Y-6706228D02*
X95550238Y-6706228D01*
X95692142Y-6634800D01*
X95763095Y-6563371D01*
X95834047Y-6420514D01*
X95834047Y-6134800D01*
X95763095Y-5991942D01*
X95692142Y-5920514D01*
X95550238Y-5849085D01*
X94344047Y-5849085D01*
X95763095Y-5206228D02*
X95834047Y-4991942D01*
X95834047Y-4634800D01*
X95763095Y-4491942D01*
X95692142Y-4420514D01*
X95550238Y-4349085D01*
X95408333Y-4349085D01*
X95266428Y-4420514D01*
X95195476Y-4491942D01*
X95124523Y-4634800D01*
X95053571Y-4920514D01*
X94982619Y-5063371D01*
X94911666Y-5134800D01*
X94769761Y-5206228D01*
X94627857Y-5206228D01*
X94485952Y-5134800D01*
X94415000Y-5063371D01*
X94344047Y-4920514D01*
X94344047Y-4563371D01*
X94415000Y-4349085D01*
X95834047Y-2849085D02*
X95124523Y-3349085D01*
X95834047Y-3706228D02*
X94344047Y-3706228D01*
X94344047Y-3134800D01*
X94415000Y-2991942D01*
X94485952Y-2920514D01*
X94627857Y-2849085D01*
X94840714Y-2849085D01*
X94982619Y-2920514D01*
X95053571Y-2991942D01*
X95124523Y-3134800D01*
X95124523Y-3706228D01*
X94485952Y-2277657D02*
X94415000Y-2206228D01*
X94344047Y-2063371D01*
X94344047Y-1706228D01*
X94415000Y-1563371D01*
X94485952Y-1491942D01*
X94627857Y-1420514D01*
X94769761Y-1420514D01*
X94982619Y-1491942D01*
X95834047Y-2349085D01*
X95834047Y-1420514D01*
X96879047Y-6706228D02*
X98085238Y-6706228D01*
X98227142Y-6634800D01*
X98298095Y-6563371D01*
X98369047Y-6420514D01*
X98369047Y-6134800D01*
X98298095Y-5991942D01*
X98227142Y-5920514D01*
X98085238Y-5849085D01*
X96879047Y-5849085D01*
X98298095Y-5206228D02*
X98369047Y-4991942D01*
X98369047Y-4634800D01*
X98298095Y-4491942D01*
X98227142Y-4420514D01*
X98085238Y-4349085D01*
X97943333Y-4349085D01*
X97801428Y-4420514D01*
X97730476Y-4491942D01*
X97659523Y-4634800D01*
X97588571Y-4920514D01*
X97517619Y-5063371D01*
X97446666Y-5134800D01*
X97304761Y-5206228D01*
X97162857Y-5206228D01*
X97020952Y-5134800D01*
X96950000Y-5063371D01*
X96879047Y-4920514D01*
X96879047Y-4563371D01*
X96950000Y-4349085D01*
X98369047Y-2849085D02*
X97659523Y-3349085D01*
X98369047Y-3706228D02*
X96879047Y-3706228D01*
X96879047Y-3134800D01*
X96950000Y-2991942D01*
X97020952Y-2920514D01*
X97162857Y-2849085D01*
X97375714Y-2849085D01*
X97517619Y-2920514D01*
X97588571Y-2991942D01*
X97659523Y-3134800D01*
X97659523Y-3706228D01*
X96879047Y-2349085D02*
X96879047Y-1420514D01*
X97446666Y-1920514D01*
X97446666Y-1706228D01*
X97517619Y-1563371D01*
X97588571Y-1491942D01*
X97730476Y-1420514D01*
X98085238Y-1420514D01*
X98227142Y-1491942D01*
X98298095Y-1563371D01*
X98369047Y-1706228D01*
X98369047Y-2134800D01*
X98298095Y-2277657D01*
X98227142Y-2349085D01*
D13*
X2743200Y10345420D02*
X2743200Y233680D01*
X1173480Y10345420D02*
X2743200Y10345420D01*
X-7620Y9164320D02*
X1173480Y10345420D01*
X-7620Y233680D02*
X-7620Y9164320D01*
D12*
X2207651Y4049735D02*
X707651Y4049735D01*
X707651Y4621163D01*
X779080Y4764020D01*
X850508Y4835449D01*
X993365Y4906878D01*
X1207651Y4906878D01*
X1350508Y4835449D01*
X1421937Y4764020D01*
X1493365Y4621163D01*
X1493365Y4049735D01*
X2207651Y5549735D02*
X1207651Y5549735D01*
X707651Y5549735D02*
X779080Y5478306D01*
X850508Y5549735D01*
X779080Y5621163D01*
X707651Y5549735D01*
X850508Y5549735D01*
X1207651Y6264020D02*
X2207651Y6264020D01*
X1350508Y6264020D02*
X1279080Y6335449D01*
X1207651Y6478306D01*
X1207651Y6692592D01*
X1279080Y6835449D01*
X1421937Y6906878D01*
X2207651Y6906878D01*
X2207651Y9549735D02*
X2207651Y8692592D01*
X2207651Y9121163D02*
X707651Y9121163D01*
X921937Y8978306D01*
X1064794Y8835449D01*
X1136222Y8692592D01*
D14*
%TO.C,R4*%
X95350000Y34080200D02*
X95020000Y34080200D01*
X95350000Y27540200D02*
X95350000Y34080200D01*
X95020000Y27540200D02*
X95350000Y27540200D01*
X92610000Y34080200D02*
X92940000Y34080200D01*
X92610000Y27540200D02*
X92610000Y34080200D01*
X92940000Y27540200D02*
X92610000Y27540200D01*
%TO.C,D2*%
X93690000Y41160200D02*
X93690000Y41004200D01*
X93690000Y43476200D02*
X93690000Y43320200D01*
X96291130Y41160363D02*
G75*
G02*
X94209039Y41160200I-1041130J1079837D01*
G01*
X96291130Y43320037D02*
G75*
G03*
X94209039Y43320200I-1041130J-1079837D01*
G01*
X96922335Y41161592D02*
G75*
G02*
X93690000Y41004684I-1672335J1078608D01*
G01*
X96922335Y43318808D02*
G75*
G03*
X93690000Y43475716I-1672335J-1078608D01*
G01*
%TO.C,U1*%
X40650000Y23800200D02*
G75*
G03*
X40650000Y23800200I-2550000J0D01*
G01*
X39000000Y23800200D02*
G75*
G03*
X39000000Y23800200I-900000J0D01*
G01*
X40550000Y23070200D02*
X84390000Y23070200D01*
X84390000Y23070200D02*
X84390000Y46170200D01*
X84390000Y46170200D02*
X33790000Y46170200D01*
X33790000Y46170200D02*
X33790000Y23070200D01*
X33790000Y23070200D02*
X35650000Y23070200D01*
X33790000Y25350200D02*
X36050000Y25350200D01*
X45720000Y22050200D02*
X43180000Y22050200D01*
%TO.C,U3*%
X49470000Y10760200D02*
X49470000Y9510200D01*
X49470000Y9510200D02*
X67370000Y9510200D01*
X67370000Y9510200D02*
X67370000Y14010200D01*
X67370000Y14010200D02*
X49470000Y14010200D01*
X49470000Y14010200D02*
X49470000Y12760200D01*
X49470000Y12760200D02*
G75*
G02*
X49470000Y10760200I0J-1000000D01*
G01*
%TO.C,U2*%
X25340000Y10760200D02*
X25340000Y9510200D01*
X25340000Y9510200D02*
X45780000Y9510200D01*
X45780000Y9510200D02*
X45780000Y14010200D01*
X45780000Y14010200D02*
X25340000Y14010200D01*
X25340000Y14010200D02*
X25340000Y12760200D01*
X25340000Y12760200D02*
G75*
G02*
X25340000Y10760200I0J-1000000D01*
G01*
%TO.C,JP6*%
X30540000Y32020200D02*
X30540000Y37220200D01*
X27940000Y32020200D02*
X30540000Y32020200D01*
X25340000Y37220200D02*
X30540000Y37220200D01*
X27940000Y32020200D02*
X27940000Y34620200D01*
X27940000Y34620200D02*
X25340000Y34620200D01*
X25340000Y34620200D02*
X25340000Y37220200D01*
X26670000Y32020200D02*
X25340000Y32020200D01*
X25340000Y32020200D02*
X25340000Y33350200D01*
%TO.C,U4*%
X3750000Y14010200D02*
X3750000Y12760200D01*
X21650000Y14010200D02*
X3750000Y14010200D01*
X21650000Y9510200D02*
X21650000Y14010200D01*
X3750000Y9510200D02*
X21650000Y9510200D01*
X3750000Y10760200D02*
X3750000Y9510200D01*
X3750000Y12760200D02*
G75*
G02*
X3750000Y10760200I0J-1000000D01*
G01*
%TO.C,R3*%
X88670000Y34080200D02*
X89000000Y34080200D01*
X89000000Y34080200D02*
X89000000Y27540200D01*
X89000000Y27540200D02*
X88670000Y27540200D01*
X86590000Y34080200D02*
X86260000Y34080200D01*
X86260000Y34080200D02*
X86260000Y27540200D01*
X86260000Y27540200D02*
X86590000Y27540200D01*
%TO.C,R2*%
X5310000Y21825200D02*
X4980000Y21825200D01*
X4980000Y21825200D02*
X4980000Y28365200D01*
X4980000Y28365200D02*
X5310000Y28365200D01*
X7390000Y21825200D02*
X7720000Y21825200D01*
X7720000Y21825200D02*
X7720000Y28365200D01*
X7720000Y28365200D02*
X7390000Y28365200D01*
%TO.C,R1*%
X2770000Y21825200D02*
X2440000Y21825200D01*
X2440000Y21825200D02*
X2440000Y28365200D01*
X2440000Y28365200D02*
X2770000Y28365200D01*
X4850000Y21825200D02*
X5180000Y21825200D01*
X5180000Y21825200D02*
X5180000Y28365200D01*
X5180000Y28365200D02*
X4850000Y28365200D01*
%TO.C,JP5*%
X15180000Y32020200D02*
X17840000Y32020200D01*
X15180000Y37160200D02*
X15180000Y32020200D01*
X17840000Y37160200D02*
X17840000Y32020200D01*
X15180000Y37160200D02*
X17840000Y37160200D01*
X15180000Y38430200D02*
X15180000Y39760200D01*
X15180000Y39760200D02*
X16510000Y39760200D01*
%TO.C,JP4*%
X12640000Y32020200D02*
X15300000Y32020200D01*
X12640000Y37160200D02*
X12640000Y32020200D01*
X15300000Y37160200D02*
X15300000Y32020200D01*
X12640000Y37160200D02*
X15300000Y37160200D01*
X12640000Y38430200D02*
X12640000Y39760200D01*
X12640000Y39760200D02*
X13970000Y39760200D01*
%TO.C,JP3*%
X10100000Y32020200D02*
X12760000Y32020200D01*
X10100000Y37160200D02*
X10100000Y32020200D01*
X12760000Y37160200D02*
X12760000Y32020200D01*
X10100000Y37160200D02*
X12760000Y37160200D01*
X10100000Y38430200D02*
X10100000Y39760200D01*
X10100000Y39760200D02*
X11430000Y39760200D01*
%TO.C,JP2*%
X12640000Y21860200D02*
X15300000Y21860200D01*
X12640000Y27000200D02*
X12640000Y21860200D01*
X15300000Y27000200D02*
X15300000Y21860200D01*
X12640000Y27000200D02*
X15300000Y27000200D01*
X12640000Y28270200D02*
X12640000Y29600200D01*
X12640000Y29600200D02*
X13970000Y29600200D01*
%TO.C,JP1*%
X10100000Y21860200D02*
X12760000Y21860200D01*
X10100000Y27000200D02*
X10100000Y21860200D01*
X12760000Y27000200D02*
X12760000Y21860200D01*
X10100000Y27000200D02*
X12760000Y27000200D01*
X10100000Y28270200D02*
X10100000Y29600200D01*
X10100000Y29600200D02*
X11430000Y29600200D01*
%TO.C,D1*%
X87340000Y43476200D02*
X87340000Y43320200D01*
X87340000Y41160200D02*
X87340000Y41004200D01*
X89941130Y41160363D02*
G75*
G02*
X87859039Y41160200I-1041130J1079837D01*
G01*
X89941130Y43320037D02*
G75*
G03*
X87859039Y43320200I-1041130J-1079837D01*
G01*
X90572335Y41161592D02*
G75*
G02*
X87340000Y41004684I-1672335J1078608D01*
G01*
X90572335Y43318808D02*
G75*
G03*
X87340000Y43475716I-1672335J-1078608D01*
G01*
%TO.C,C4*%
X5701000Y19030200D02*
X6959000Y19030200D01*
X5701000Y17190200D02*
X6959000Y17190200D01*
%TO.C,C3*%
X51421000Y19030200D02*
X52679000Y19030200D01*
X51421000Y17190200D02*
X52679000Y17190200D01*
%TO.C,C2*%
X27291000Y19030200D02*
X28549000Y19030200D01*
X27291000Y17190200D02*
X28549000Y17190200D01*
%TO.C,C1*%
X45071000Y48240200D02*
X46329000Y48240200D01*
X45071000Y46400200D02*
X46329000Y46400200D01*
%TO.C,J2*%
X66100000Y2810200D02*
X66100000Y5470200D01*
X43180000Y2810200D02*
X66100000Y2810200D01*
X43180000Y5470200D02*
X66100000Y5470200D01*
X43180000Y2810200D02*
X43180000Y5470200D01*
X41910000Y2810200D02*
X40580000Y2810200D01*
X40580000Y2810200D02*
X40580000Y4140200D01*
%TO.C,J1*%
X99120000Y270200D02*
X99120000Y2930200D01*
X2540000Y270200D02*
X99120000Y270200D01*
X2540000Y2930200D02*
X99120000Y2930200D01*
X2540000Y270200D02*
X2540000Y2930200D01*
X1270000Y270200D02*
X-60000Y270200D01*
X-60000Y270200D02*
X-60000Y1600200D01*
%TD*%
D15*
%TO.C,*%
X6630000Y33350200D02*
G75*
G03*
X6630000Y33350200I-1550000J0D01*
G01*
%TD*%
%TO.C,R4*%
D10*
X93813333Y36072820D02*
X93480000Y36549010D01*
X93241904Y36072820D02*
X93241904Y37072820D01*
X93622857Y37072820D01*
X93718095Y37025200D01*
X93765714Y36977581D01*
X93813333Y36882343D01*
X93813333Y36739486D01*
X93765714Y36644248D01*
X93718095Y36596629D01*
X93622857Y36549010D01*
X93241904Y36549010D01*
X94670476Y36739486D02*
X94670476Y36072820D01*
X94432380Y37120439D02*
X94194285Y36406153D01*
X94813333Y36406153D01*
X93765714Y29548296D02*
X94432380Y29548296D01*
X93384761Y29310200D02*
X94099047Y29072105D01*
X94099047Y29691153D01*
X93432380Y29976867D02*
X93432380Y30643534D01*
X94432380Y30214962D01*
X93432380Y31214962D02*
X93432380Y31310200D01*
X93480000Y31405439D01*
X93527619Y31453058D01*
X93622857Y31500677D01*
X93813333Y31548296D01*
X94051428Y31548296D01*
X94241904Y31500677D01*
X94337142Y31453058D01*
X94384761Y31405439D01*
X94432380Y31310200D01*
X94432380Y31214962D01*
X94384761Y31119724D01*
X94337142Y31072105D01*
X94241904Y31024486D01*
X94051428Y30976867D01*
X93813333Y30976867D01*
X93622857Y31024486D01*
X93527619Y31072105D01*
X93480000Y31119724D01*
X93432380Y31214962D01*
X94432380Y32548296D02*
X93956190Y32214962D01*
X94432380Y31976867D02*
X93432380Y31976867D01*
X93432380Y32357820D01*
X93480000Y32453058D01*
X93527619Y32500677D01*
X93622857Y32548296D01*
X93765714Y32548296D01*
X93860952Y32500677D01*
X93908571Y32453058D01*
X93956190Y32357820D01*
X93956190Y31976867D01*
%TO.C,D2*%
X94511904Y44747820D02*
X94511904Y45747820D01*
X94750000Y45747820D01*
X94892857Y45700200D01*
X94988095Y45604962D01*
X95035714Y45509724D01*
X95083333Y45319248D01*
X95083333Y45176391D01*
X95035714Y44985915D01*
X94988095Y44890677D01*
X94892857Y44795439D01*
X94750000Y44747820D01*
X94511904Y44747820D01*
X95464285Y45652581D02*
X95511904Y45700200D01*
X95607142Y45747820D01*
X95845238Y45747820D01*
X95940476Y45700200D01*
X95988095Y45652581D01*
X96035714Y45557343D01*
X96035714Y45462105D01*
X95988095Y45319248D01*
X95416666Y44747820D01*
X96035714Y44747820D01*
%TO.C,U1*%
X34163095Y47867820D02*
X34163095Y47058296D01*
X34210714Y46963058D01*
X34258333Y46915439D01*
X34353571Y46867820D01*
X34544047Y46867820D01*
X34639285Y46915439D01*
X34686904Y46963058D01*
X34734523Y47058296D01*
X34734523Y47867820D01*
X35734523Y46867820D02*
X35163095Y46867820D01*
X35448809Y46867820D02*
X35448809Y47867820D01*
X35353571Y47724962D01*
X35258333Y47629724D01*
X35163095Y47582105D01*
%TO.C,U3*%
X47922380Y10998296D02*
X48731904Y10998296D01*
X48827142Y11045915D01*
X48874761Y11093534D01*
X48922380Y11188772D01*
X48922380Y11379248D01*
X48874761Y11474486D01*
X48827142Y11522105D01*
X48731904Y11569724D01*
X47922380Y11569724D01*
X47922380Y11950677D02*
X47922380Y12569724D01*
X48303333Y12236391D01*
X48303333Y12379248D01*
X48350952Y12474486D01*
X48398571Y12522105D01*
X48493809Y12569724D01*
X48731904Y12569724D01*
X48827142Y12522105D01*
X48874761Y12474486D01*
X48922380Y12379248D01*
X48922380Y12093534D01*
X48874761Y11998296D01*
X48827142Y11950677D01*
X55253333Y12307820D02*
X55920000Y12307820D01*
X55491428Y11307820D01*
X56729523Y11974486D02*
X56729523Y11307820D01*
X56491428Y12355439D02*
X56253333Y11641153D01*
X56872380Y11641153D01*
X57253333Y11307820D02*
X57253333Y12307820D01*
X57253333Y11831629D02*
X57824761Y11831629D01*
X57824761Y11307820D02*
X57824761Y12307820D01*
X58872380Y11403058D02*
X58824761Y11355439D01*
X58681904Y11307820D01*
X58586666Y11307820D01*
X58443809Y11355439D01*
X58348571Y11450677D01*
X58300952Y11545915D01*
X58253333Y11736391D01*
X58253333Y11879248D01*
X58300952Y12069724D01*
X58348571Y12164962D01*
X58443809Y12260200D01*
X58586666Y12307820D01*
X58681904Y12307820D01*
X58824761Y12260200D01*
X58872380Y12212581D01*
X59158095Y12307820D02*
X59729523Y12307820D01*
X59443809Y11307820D02*
X59443809Y12307820D01*
X59967619Y12307820D02*
X60634285Y12307820D01*
X60205714Y11307820D01*
X61443809Y11974486D02*
X61443809Y11307820D01*
X61205714Y12355439D02*
X60967619Y11641153D01*
X61586666Y11641153D01*
%TO.C,U2*%
X23792380Y10998296D02*
X24601904Y10998296D01*
X24697142Y11045915D01*
X24744761Y11093534D01*
X24792380Y11188772D01*
X24792380Y11379248D01*
X24744761Y11474486D01*
X24697142Y11522105D01*
X24601904Y11569724D01*
X23792380Y11569724D01*
X23887619Y11998296D02*
X23840000Y12045915D01*
X23792380Y12141153D01*
X23792380Y12379248D01*
X23840000Y12474486D01*
X23887619Y12522105D01*
X23982857Y12569724D01*
X24078095Y12569724D01*
X24220952Y12522105D01*
X24792380Y11950677D01*
X24792380Y12569724D01*
X31917142Y12307820D02*
X32583809Y12307820D01*
X32155238Y11307820D01*
X33393333Y11974486D02*
X33393333Y11307820D01*
X33155238Y12355439D02*
X32917142Y11641153D01*
X33536190Y11641153D01*
X33917142Y11307820D02*
X33917142Y12307820D01*
X33917142Y11831629D02*
X34488571Y11831629D01*
X34488571Y11307820D02*
X34488571Y12307820D01*
X35536190Y11403058D02*
X35488571Y11355439D01*
X35345714Y11307820D01*
X35250476Y11307820D01*
X35107619Y11355439D01*
X35012380Y11450677D01*
X34964761Y11545915D01*
X34917142Y11736391D01*
X34917142Y11879248D01*
X34964761Y12069724D01*
X35012380Y12164962D01*
X35107619Y12260200D01*
X35250476Y12307820D01*
X35345714Y12307820D01*
X35488571Y12260200D01*
X35536190Y12212581D01*
X35821904Y12307820D02*
X36393333Y12307820D01*
X36107619Y11307820D02*
X36107619Y12307820D01*
X37250476Y11307820D02*
X36679047Y11307820D01*
X36964761Y11307820D02*
X36964761Y12307820D01*
X36869523Y12164962D01*
X36774285Y12069724D01*
X36679047Y12022105D01*
X37583809Y12307820D02*
X38202857Y12307820D01*
X37869523Y11926867D01*
X38012380Y11926867D01*
X38107619Y11879248D01*
X38155238Y11831629D01*
X38202857Y11736391D01*
X38202857Y11498296D01*
X38155238Y11403058D01*
X38107619Y11355439D01*
X38012380Y11307820D01*
X37726666Y11307820D01*
X37631428Y11355439D01*
X37583809Y11403058D01*
X38774285Y11879248D02*
X38679047Y11926867D01*
X38631428Y11974486D01*
X38583809Y12069724D01*
X38583809Y12117343D01*
X38631428Y12212581D01*
X38679047Y12260200D01*
X38774285Y12307820D01*
X38964761Y12307820D01*
X39060000Y12260200D01*
X39107619Y12212581D01*
X39155238Y12117343D01*
X39155238Y12069724D01*
X39107619Y11974486D01*
X39060000Y11926867D01*
X38964761Y11879248D01*
X38774285Y11879248D01*
X38679047Y11831629D01*
X38631428Y11784010D01*
X38583809Y11688772D01*
X38583809Y11498296D01*
X38631428Y11403058D01*
X38679047Y11355439D01*
X38774285Y11307820D01*
X38964761Y11307820D01*
X39060000Y11355439D01*
X39107619Y11403058D01*
X39155238Y11498296D01*
X39155238Y11688772D01*
X39107619Y11784010D01*
X39060000Y11831629D01*
X38964761Y11879248D01*
%TO.C,JP6*%
X27106666Y38723820D02*
X27106666Y38009534D01*
X27059047Y37866677D01*
X26963809Y37771439D01*
X26820952Y37723820D01*
X26725714Y37723820D01*
X27582857Y37723820D02*
X27582857Y38723820D01*
X27963809Y38723820D01*
X28059047Y38676200D01*
X28106666Y38628581D01*
X28154285Y38533343D01*
X28154285Y38390486D01*
X28106666Y38295248D01*
X28059047Y38247629D01*
X27963809Y38200010D01*
X27582857Y38200010D01*
X29011428Y38723820D02*
X28820952Y38723820D01*
X28725714Y38676200D01*
X28678095Y38628581D01*
X28582857Y38485724D01*
X28535238Y38295248D01*
X28535238Y37914296D01*
X28582857Y37819058D01*
X28630476Y37771439D01*
X28725714Y37723820D01*
X28916190Y37723820D01*
X29011428Y37771439D01*
X29059047Y37819058D01*
X29106666Y37914296D01*
X29106666Y38152391D01*
X29059047Y38247629D01*
X29011428Y38295248D01*
X28916190Y38342867D01*
X28725714Y38342867D01*
X28630476Y38295248D01*
X28582857Y38247629D01*
X28535238Y38152391D01*
%TO.C,U4*%
X2202380Y10998296D02*
X3011904Y10998296D01*
X3107142Y11045915D01*
X3154761Y11093534D01*
X3202380Y11188772D01*
X3202380Y11379248D01*
X3154761Y11474486D01*
X3107142Y11522105D01*
X3011904Y11569724D01*
X2202380Y11569724D01*
X2535714Y12474486D02*
X3202380Y12474486D01*
X2154761Y12236391D02*
X2869047Y11998296D01*
X2869047Y12617343D01*
X8580952Y12307820D02*
X9247619Y12307820D01*
X8819047Y11307820D01*
X10057142Y11974486D02*
X10057142Y11307820D01*
X9819047Y12355439D02*
X9580952Y11641153D01*
X10200000Y11641153D01*
X10580952Y11307820D02*
X10580952Y12307820D01*
X10580952Y11831629D02*
X11152380Y11831629D01*
X11152380Y11307820D02*
X11152380Y12307820D01*
X12200000Y11403058D02*
X12152380Y11355439D01*
X12009523Y11307820D01*
X11914285Y11307820D01*
X11771428Y11355439D01*
X11676190Y11450677D01*
X11628571Y11545915D01*
X11580952Y11736391D01*
X11580952Y11879248D01*
X11628571Y12069724D01*
X11676190Y12164962D01*
X11771428Y12260200D01*
X11914285Y12307820D01*
X12009523Y12307820D01*
X12152380Y12260200D01*
X12200000Y12212581D01*
X12485714Y12307820D02*
X13057142Y12307820D01*
X12771428Y11307820D02*
X12771428Y12307820D01*
X13819047Y11974486D02*
X13819047Y11307820D01*
X13580952Y12355439D02*
X13342857Y11641153D01*
X13961904Y11641153D01*
X14533333Y12307820D02*
X14628571Y12307820D01*
X14723809Y12260200D01*
X14771428Y12212581D01*
X14819047Y12117343D01*
X14866666Y11926867D01*
X14866666Y11688772D01*
X14819047Y11498296D01*
X14771428Y11403058D01*
X14723809Y11355439D01*
X14628571Y11307820D01*
X14533333Y11307820D01*
X14438095Y11355439D01*
X14390476Y11403058D01*
X14342857Y11498296D01*
X14295238Y11688772D01*
X14295238Y11926867D01*
X14342857Y12117343D01*
X14390476Y12212581D01*
X14438095Y12260200D01*
X14533333Y12307820D01*
X15200000Y12307820D02*
X15866666Y12307820D01*
X15438095Y11307820D01*
X16723809Y12307820D02*
X16247619Y12307820D01*
X16200000Y11831629D01*
X16247619Y11879248D01*
X16342857Y11926867D01*
X16580952Y11926867D01*
X16676190Y11879248D01*
X16723809Y11831629D01*
X16771428Y11736391D01*
X16771428Y11498296D01*
X16723809Y11403058D01*
X16676190Y11355439D01*
X16580952Y11307820D01*
X16342857Y11307820D01*
X16247619Y11355439D01*
X16200000Y11403058D01*
%TO.C,R3*%
X87463333Y36072820D02*
X87130000Y36549010D01*
X86891904Y36072820D02*
X86891904Y37072820D01*
X87272857Y37072820D01*
X87368095Y37025200D01*
X87415714Y36977581D01*
X87463333Y36882343D01*
X87463333Y36739486D01*
X87415714Y36644248D01*
X87368095Y36596629D01*
X87272857Y36549010D01*
X86891904Y36549010D01*
X87796666Y37072820D02*
X88415714Y37072820D01*
X88082380Y36691867D01*
X88225238Y36691867D01*
X88320476Y36644248D01*
X88368095Y36596629D01*
X88415714Y36501391D01*
X88415714Y36263296D01*
X88368095Y36168058D01*
X88320476Y36120439D01*
X88225238Y36072820D01*
X87939523Y36072820D01*
X87844285Y36120439D01*
X87796666Y36168058D01*
X87415714Y29548296D02*
X88082380Y29548296D01*
X87034761Y29310200D02*
X87749047Y29072105D01*
X87749047Y29691153D01*
X87082380Y29976867D02*
X87082380Y30643534D01*
X88082380Y30214962D01*
X87082380Y31214962D02*
X87082380Y31310200D01*
X87130000Y31405439D01*
X87177619Y31453058D01*
X87272857Y31500677D01*
X87463333Y31548296D01*
X87701428Y31548296D01*
X87891904Y31500677D01*
X87987142Y31453058D01*
X88034761Y31405439D01*
X88082380Y31310200D01*
X88082380Y31214962D01*
X88034761Y31119724D01*
X87987142Y31072105D01*
X87891904Y31024486D01*
X87701428Y30976867D01*
X87463333Y30976867D01*
X87272857Y31024486D01*
X87177619Y31072105D01*
X87130000Y31119724D01*
X87082380Y31214962D01*
X88082380Y32548296D02*
X87606190Y32214962D01*
X88082380Y31976867D02*
X87082380Y31976867D01*
X87082380Y32357820D01*
X87130000Y32453058D01*
X87177619Y32500677D01*
X87272857Y32548296D01*
X87415714Y32548296D01*
X87510952Y32500677D01*
X87558571Y32453058D01*
X87606190Y32357820D01*
X87606190Y31976867D01*
%TO.C,R2*%
X6183333Y30357820D02*
X5850000Y30834010D01*
X5611904Y30357820D02*
X5611904Y31357820D01*
X5992857Y31357820D01*
X6088095Y31310200D01*
X6135714Y31262581D01*
X6183333Y31167343D01*
X6183333Y31024486D01*
X6135714Y30929248D01*
X6088095Y30881629D01*
X5992857Y30834010D01*
X5611904Y30834010D01*
X6564285Y31262581D02*
X6611904Y31310200D01*
X6707142Y31357820D01*
X6945238Y31357820D01*
X7040476Y31310200D01*
X7088095Y31262581D01*
X7135714Y31167343D01*
X7135714Y31072105D01*
X7088095Y30929248D01*
X6516666Y30357820D01*
X7135714Y30357820D01*
X6802380Y24499962D02*
X6802380Y23928534D01*
X6802380Y24214248D02*
X5802380Y24214248D01*
X5945238Y24119010D01*
X6040476Y24023772D01*
X6088095Y23928534D01*
X5802380Y25119010D02*
X5802380Y25214248D01*
X5850000Y25309486D01*
X5897619Y25357105D01*
X5992857Y25404724D01*
X6183333Y25452343D01*
X6421428Y25452343D01*
X6611904Y25404724D01*
X6707142Y25357105D01*
X6754761Y25309486D01*
X6802380Y25214248D01*
X6802380Y25119010D01*
X6754761Y25023772D01*
X6707142Y24976153D01*
X6611904Y24928534D01*
X6421428Y24880915D01*
X6183333Y24880915D01*
X5992857Y24928534D01*
X5897619Y24976153D01*
X5850000Y25023772D01*
X5802380Y25119010D01*
X6802380Y25880915D02*
X5802380Y25880915D01*
X6421428Y25976153D02*
X6802380Y26261867D01*
X6135714Y26261867D02*
X6516666Y25880915D01*
%TO.C,R1*%
X3643333Y30357820D02*
X3310000Y30834010D01*
X3071904Y30357820D02*
X3071904Y31357820D01*
X3452857Y31357820D01*
X3548095Y31310200D01*
X3595714Y31262581D01*
X3643333Y31167343D01*
X3643333Y31024486D01*
X3595714Y30929248D01*
X3548095Y30881629D01*
X3452857Y30834010D01*
X3071904Y30834010D01*
X4595714Y30357820D02*
X4024285Y30357820D01*
X4310000Y30357820D02*
X4310000Y31357820D01*
X4214761Y31214962D01*
X4119523Y31119724D01*
X4024285Y31072105D01*
X4262380Y24499962D02*
X4262380Y23928534D01*
X4262380Y24214248D02*
X3262380Y24214248D01*
X3405238Y24119010D01*
X3500476Y24023772D01*
X3548095Y23928534D01*
X3262380Y25119010D02*
X3262380Y25214248D01*
X3310000Y25309486D01*
X3357619Y25357105D01*
X3452857Y25404724D01*
X3643333Y25452343D01*
X3881428Y25452343D01*
X4071904Y25404724D01*
X4167142Y25357105D01*
X4214761Y25309486D01*
X4262380Y25214248D01*
X4262380Y25119010D01*
X4214761Y25023772D01*
X4167142Y24976153D01*
X4071904Y24928534D01*
X3881428Y24880915D01*
X3643333Y24880915D01*
X3452857Y24928534D01*
X3357619Y24976153D01*
X3310000Y25023772D01*
X3262380Y25119010D01*
X4262380Y25880915D02*
X3262380Y25880915D01*
X3881428Y25976153D02*
X4262380Y26261867D01*
X3595714Y26261867D02*
X3976666Y25880915D01*
%TO.C,JP5*%
X18851666Y35167820D02*
X18851666Y34453534D01*
X18804047Y34310677D01*
X18708809Y34215439D01*
X18565952Y34167820D01*
X18470714Y34167820D01*
X19327857Y34167820D02*
X19327857Y35167820D01*
X19708809Y35167820D01*
X19804047Y35120200D01*
X19851666Y35072581D01*
X19899285Y34977343D01*
X19899285Y34834486D01*
X19851666Y34739248D01*
X19804047Y34691629D01*
X19708809Y34644010D01*
X19327857Y34644010D01*
X20804047Y35167820D02*
X20327857Y35167820D01*
X20280238Y34691629D01*
X20327857Y34739248D01*
X20423095Y34786867D01*
X20661190Y34786867D01*
X20756428Y34739248D01*
X20804047Y34691629D01*
X20851666Y34596391D01*
X20851666Y34358296D01*
X20804047Y34263058D01*
X20756428Y34215439D01*
X20661190Y34167820D01*
X20423095Y34167820D01*
X20327857Y34215439D01*
X20280238Y34263058D01*
%TO.C,JP4*%
X18851666Y36437820D02*
X18851666Y35723534D01*
X18804047Y35580677D01*
X18708809Y35485439D01*
X18565952Y35437820D01*
X18470714Y35437820D01*
X19327857Y35437820D02*
X19327857Y36437820D01*
X19708809Y36437820D01*
X19804047Y36390200D01*
X19851666Y36342581D01*
X19899285Y36247343D01*
X19899285Y36104486D01*
X19851666Y36009248D01*
X19804047Y35961629D01*
X19708809Y35914010D01*
X19327857Y35914010D01*
X20756428Y36104486D02*
X20756428Y35437820D01*
X20518333Y36485439D02*
X20280238Y35771153D01*
X20899285Y35771153D01*
%TO.C,JP3*%
X18851666Y37707820D02*
X18851666Y36993534D01*
X18804047Y36850677D01*
X18708809Y36755439D01*
X18565952Y36707820D01*
X18470714Y36707820D01*
X19327857Y36707820D02*
X19327857Y37707820D01*
X19708809Y37707820D01*
X19804047Y37660200D01*
X19851666Y37612581D01*
X19899285Y37517343D01*
X19899285Y37374486D01*
X19851666Y37279248D01*
X19804047Y37231629D01*
X19708809Y37184010D01*
X19327857Y37184010D01*
X20232619Y37707820D02*
X20851666Y37707820D01*
X20518333Y37326867D01*
X20661190Y37326867D01*
X20756428Y37279248D01*
X20804047Y37231629D01*
X20851666Y37136391D01*
X20851666Y36898296D01*
X20804047Y36803058D01*
X20756428Y36755439D01*
X20661190Y36707820D01*
X20375476Y36707820D01*
X20280238Y36755439D01*
X20232619Y36803058D01*
%TO.C,JP2*%
X16311666Y25642820D02*
X16311666Y24928534D01*
X16264047Y24785677D01*
X16168809Y24690439D01*
X16025952Y24642820D01*
X15930714Y24642820D01*
X16787857Y24642820D02*
X16787857Y25642820D01*
X17168809Y25642820D01*
X17264047Y25595200D01*
X17311666Y25547581D01*
X17359285Y25452343D01*
X17359285Y25309486D01*
X17311666Y25214248D01*
X17264047Y25166629D01*
X17168809Y25119010D01*
X16787857Y25119010D01*
X17740238Y25547581D02*
X17787857Y25595200D01*
X17883095Y25642820D01*
X18121190Y25642820D01*
X18216428Y25595200D01*
X18264047Y25547581D01*
X18311666Y25452343D01*
X18311666Y25357105D01*
X18264047Y25214248D01*
X17692619Y24642820D01*
X18311666Y24642820D01*
%TO.C,JP1*%
X16311666Y26912820D02*
X16311666Y26198534D01*
X16264047Y26055677D01*
X16168809Y25960439D01*
X16025952Y25912820D01*
X15930714Y25912820D01*
X16787857Y25912820D02*
X16787857Y26912820D01*
X17168809Y26912820D01*
X17264047Y26865200D01*
X17311666Y26817581D01*
X17359285Y26722343D01*
X17359285Y26579486D01*
X17311666Y26484248D01*
X17264047Y26436629D01*
X17168809Y26389010D01*
X16787857Y26389010D01*
X18311666Y25912820D02*
X17740238Y25912820D01*
X18025952Y25912820D02*
X18025952Y26912820D01*
X17930714Y26769962D01*
X17835476Y26674724D01*
X17740238Y26627105D01*
%TO.C,D1*%
X88161904Y44747820D02*
X88161904Y45747820D01*
X88400000Y45747820D01*
X88542857Y45700200D01*
X88638095Y45604962D01*
X88685714Y45509724D01*
X88733333Y45319248D01*
X88733333Y45176391D01*
X88685714Y44985915D01*
X88638095Y44890677D01*
X88542857Y44795439D01*
X88400000Y44747820D01*
X88161904Y44747820D01*
X89685714Y44747820D02*
X89114285Y44747820D01*
X89400000Y44747820D02*
X89400000Y45747820D01*
X89304761Y45604962D01*
X89209523Y45509724D01*
X89114285Y45462105D01*
%TO.C,C4*%
X9485333Y17753058D02*
X9437714Y17705439D01*
X9294857Y17657820D01*
X9199619Y17657820D01*
X9056761Y17705439D01*
X8961523Y17800677D01*
X8913904Y17895915D01*
X8866285Y18086391D01*
X8866285Y18229248D01*
X8913904Y18419724D01*
X8961523Y18514962D01*
X9056761Y18610200D01*
X9199619Y18657820D01*
X9294857Y18657820D01*
X9437714Y18610200D01*
X9485333Y18562581D01*
X10342476Y18324486D02*
X10342476Y17657820D01*
X10104380Y18705439D02*
X9866285Y17991153D01*
X10485333Y17991153D01*
%TO.C,C3*%
X55205333Y17753058D02*
X55157714Y17705439D01*
X55014857Y17657820D01*
X54919619Y17657820D01*
X54776761Y17705439D01*
X54681523Y17800677D01*
X54633904Y17895915D01*
X54586285Y18086391D01*
X54586285Y18229248D01*
X54633904Y18419724D01*
X54681523Y18514962D01*
X54776761Y18610200D01*
X54919619Y18657820D01*
X55014857Y18657820D01*
X55157714Y18610200D01*
X55205333Y18562581D01*
X55538666Y18657820D02*
X56157714Y18657820D01*
X55824380Y18276867D01*
X55967238Y18276867D01*
X56062476Y18229248D01*
X56110095Y18181629D01*
X56157714Y18086391D01*
X56157714Y17848296D01*
X56110095Y17753058D01*
X56062476Y17705439D01*
X55967238Y17657820D01*
X55681523Y17657820D01*
X55586285Y17705439D01*
X55538666Y17753058D01*
%TO.C,C2*%
X31075333Y17753058D02*
X31027714Y17705439D01*
X30884857Y17657820D01*
X30789619Y17657820D01*
X30646761Y17705439D01*
X30551523Y17800677D01*
X30503904Y17895915D01*
X30456285Y18086391D01*
X30456285Y18229248D01*
X30503904Y18419724D01*
X30551523Y18514962D01*
X30646761Y18610200D01*
X30789619Y18657820D01*
X30884857Y18657820D01*
X31027714Y18610200D01*
X31075333Y18562581D01*
X31456285Y18562581D02*
X31503904Y18610200D01*
X31599142Y18657820D01*
X31837238Y18657820D01*
X31932476Y18610200D01*
X31980095Y18562581D01*
X32027714Y18467343D01*
X32027714Y18372105D01*
X31980095Y18229248D01*
X31408666Y17657820D01*
X32027714Y17657820D01*
%TO.C,C1*%
X48855333Y46963058D02*
X48807714Y46915439D01*
X48664857Y46867820D01*
X48569619Y46867820D01*
X48426761Y46915439D01*
X48331523Y47010677D01*
X48283904Y47105915D01*
X48236285Y47296391D01*
X48236285Y47439248D01*
X48283904Y47629724D01*
X48331523Y47724962D01*
X48426761Y47820200D01*
X48569619Y47867820D01*
X48664857Y47867820D01*
X48807714Y47820200D01*
X48855333Y47772581D01*
X49807714Y46867820D02*
X49236285Y46867820D01*
X49522000Y46867820D02*
X49522000Y47867820D01*
X49426761Y47724962D01*
X49331523Y47629724D01*
X49236285Y47582105D01*
%TD*%
M02*
