%TF.GenerationSoftware,KiCad,Pcbnew,(5.1.6)-1*%
%TF.CreationDate,2020-12-02T00:41:14-08:00*%
%TF.ProjectId,rc-rom,72632d72-6f6d-42e6-9b69-6361645f7063,rev?*%
%TF.SameCoordinates,PX9157080PY9071968*%
%TF.FileFunction,Legend,Bot*%
%TF.FilePolarity,Positive*%
%FSLAX46Y46*%
G04 Gerber Fmt 4.6, Leading zero omitted, Abs format (unit mm)*
G04 Created by KiCad (PCBNEW (5.1.6)-1) date 2020-12-02 00:41:14*
%MOMM*%
%LPD*%
G01*
G04 APERTURE LIST*
%ADD10C,0.300000*%
G04 APERTURE END LIST*
D10*
X94491428Y8546629D02*
X94991428Y9260915D01*
X95348571Y8546629D02*
X95348571Y10046629D01*
X94777142Y10046629D01*
X94634285Y9975200D01*
X94562857Y9903772D01*
X94491428Y9760915D01*
X94491428Y9546629D01*
X94562857Y9403772D01*
X94634285Y9332343D01*
X94777142Y9260915D01*
X95348571Y9260915D01*
X93562857Y10046629D02*
X93277142Y10046629D01*
X93134285Y9975200D01*
X92991428Y9832343D01*
X92920000Y9546629D01*
X92920000Y9046629D01*
X92991428Y8760915D01*
X93134285Y8618058D01*
X93277142Y8546629D01*
X93562857Y8546629D01*
X93705714Y8618058D01*
X93848571Y8760915D01*
X93920000Y9046629D01*
X93920000Y9546629D01*
X93848571Y9832343D01*
X93705714Y9975200D01*
X93562857Y10046629D01*
X92277142Y8546629D02*
X92277142Y10046629D01*
X91777142Y8975200D01*
X91277142Y10046629D01*
X91277142Y8546629D01*
X88562857Y8689486D02*
X88634285Y8618058D01*
X88848571Y8546629D01*
X88991428Y8546629D01*
X89205714Y8618058D01*
X89348571Y8760915D01*
X89420000Y8903772D01*
X89491428Y9189486D01*
X89491428Y9403772D01*
X89420000Y9689486D01*
X89348571Y9832343D01*
X89205714Y9975200D01*
X88991428Y10046629D01*
X88848571Y10046629D01*
X88634285Y9975200D01*
X88562857Y9903772D01*
X87277142Y8546629D02*
X87277142Y9332343D01*
X87348571Y9475200D01*
X87491428Y9546629D01*
X87777142Y9546629D01*
X87920000Y9475200D01*
X87277142Y8618058D02*
X87420000Y8546629D01*
X87777142Y8546629D01*
X87920000Y8618058D01*
X87991428Y8760915D01*
X87991428Y8903772D01*
X87920000Y9046629D01*
X87777142Y9118058D01*
X87420000Y9118058D01*
X87277142Y9189486D01*
X86562857Y8546629D02*
X86562857Y9546629D01*
X86562857Y9260915D02*
X86491428Y9403772D01*
X86420000Y9475200D01*
X86277142Y9546629D01*
X86134285Y9546629D01*
X84991428Y8546629D02*
X84991428Y10046629D01*
X84991428Y8618058D02*
X85134285Y8546629D01*
X85420000Y8546629D01*
X85562857Y8618058D01*
X85634285Y8689486D01*
X85705714Y8832343D01*
X85705714Y9260915D01*
X85634285Y9403772D01*
X85562857Y9475200D01*
X85420000Y9546629D01*
X85134285Y9546629D01*
X84991428Y9475200D01*
X96384285Y5996629D02*
X96384285Y7496629D01*
X95812857Y7496629D01*
X95670000Y7425200D01*
X95598571Y7353772D01*
X95527142Y7210915D01*
X95527142Y6996629D01*
X95598571Y6853772D01*
X95670000Y6782343D01*
X95812857Y6710915D01*
X96384285Y6710915D01*
X94884285Y5996629D02*
X94884285Y7496629D01*
X94527142Y7496629D01*
X94312857Y7425200D01*
X94170000Y7282343D01*
X94098571Y7139486D01*
X94027142Y6853772D01*
X94027142Y6639486D01*
X94098571Y6353772D01*
X94170000Y6210915D01*
X94312857Y6068058D01*
X94527142Y5996629D01*
X94884285Y5996629D01*
X92598571Y5996629D02*
X93455714Y5996629D01*
X93027142Y5996629D02*
X93027142Y7496629D01*
X93170000Y7282343D01*
X93312857Y7139486D01*
X93455714Y7068058D01*
X91670000Y7496629D02*
X91527142Y7496629D01*
X91384285Y7425200D01*
X91312857Y7353772D01*
X91241428Y7210915D01*
X91170000Y6925200D01*
X91170000Y6568058D01*
X91241428Y6282343D01*
X91312857Y6139486D01*
X91384285Y6068058D01*
X91527142Y5996629D01*
X91670000Y5996629D01*
X91812857Y6068058D01*
X91884285Y6139486D01*
X91955714Y6282343D01*
X92027142Y6568058D01*
X92027142Y6925200D01*
X91955714Y7210915D01*
X91884285Y7353772D01*
X91812857Y7425200D01*
X91670000Y7496629D01*
X89884285Y6996629D02*
X89884285Y5996629D01*
X90241428Y7568058D02*
X90598571Y6496629D01*
X89670000Y6496629D01*
X88098571Y6996629D02*
X87741428Y5996629D01*
X87384285Y6996629D01*
X86527142Y7496629D02*
X86384285Y7496629D01*
X86241428Y7425200D01*
X86170000Y7353772D01*
X86098571Y7210915D01*
X86027142Y6925200D01*
X86027142Y6568058D01*
X86098571Y6282343D01*
X86170000Y6139486D01*
X86241428Y6068058D01*
X86384285Y5996629D01*
X86527142Y5996629D01*
X86670000Y6068058D01*
X86741428Y6139486D01*
X86812857Y6282343D01*
X86884285Y6568058D01*
X86884285Y6925200D01*
X86812857Y7210915D01*
X86741428Y7353772D01*
X86670000Y7425200D01*
X86527142Y7496629D01*
X85384285Y6139486D02*
X85312857Y6068058D01*
X85384285Y5996629D01*
X85455714Y6068058D01*
X85384285Y6139486D01*
X85384285Y5996629D01*
X84598571Y5996629D02*
X84312857Y5996629D01*
X84170000Y6068058D01*
X84098571Y6139486D01*
X83955714Y6353772D01*
X83884285Y6639486D01*
X83884285Y7210915D01*
X83955714Y7353772D01*
X84027142Y7425200D01*
X84170000Y7496629D01*
X84455714Y7496629D01*
X84598571Y7425200D01*
X84670000Y7353772D01*
X84741428Y7210915D01*
X84741428Y6853772D01*
X84670000Y6710915D01*
X84598571Y6639486D01*
X84455714Y6568058D01*
X84170000Y6568058D01*
X84027142Y6639486D01*
X83955714Y6710915D01*
X83884285Y6853772D01*
M02*
