M48
; DRILL file {KiCad (5.1.6)-1} date 12/08/20 19:16:16
; FORMAT={-:-/ absolute / inch / decimal}
; #@! TF.CreationDate,2020-12-08T19:16:16-08:00
; #@! TF.GenerationSoftware,Kicad,Pcbnew,(5.1.6)-1
; #@! TF.FileFunction,Plated,1,2,PTH
FMAT,2
INCH
T1C0.0157
T2C0.0236
T3C0.0315
T4C0.0354
T5C0.0394
%
G90
G05
T1
X0.175Y0.188
X0.75Y1.463
X0.8Y1.463
X0.8Y1.313
X0.85Y0.213
X1.4Y0.213
X1.475Y1.088
X1.475Y0.388
X1.575Y1.238
X1.625Y0.988
X1.9Y1.513
X1.9Y0.388
X2.075Y0.488
X2.1Y1.713
X2.125Y0.413
X2.175Y1.588
X2.175Y0.738
X2.2Y0.188
X2.225Y0.413
X2.25Y0.463
X2.375Y0.388
X2.4Y1.513
X2.55Y0.988
X2.725Y0.838
X2.75Y0.688
X3.325Y0.838
T2
X0.75Y0.963
X1.8875Y0.6755
T3
X2.0Y0.613
X2.0Y0.313
X2.1Y0.613
X2.1Y0.313
X2.2Y0.613
X2.2Y0.313
X2.3Y0.613
X2.3Y0.313
X2.4Y0.613
X2.4Y0.313
X2.5Y0.613
X2.5Y0.313
X2.6Y0.613
X2.6Y0.313
X0.25Y1.138
X0.25Y0.838
X3.55Y1.363
X3.55Y1.063
X2.0Y0.713
X2.0984Y0.713
X0.2Y0.613
X0.2Y0.313
X0.3Y0.613
X0.3Y0.313
X0.4Y0.613
X0.4Y0.313
X0.5Y0.613
X0.5Y0.313
X0.6Y0.613
X0.6Y0.313
X0.7Y0.613
X0.7Y0.313
X0.8Y0.613
X0.8Y0.313
X0.15Y1.138
X0.15Y0.838
X1.75Y1.863
X1.8484Y1.863
X1.05Y0.713
X1.1484Y0.713
X0.2Y0.713
X0.2984Y0.713
X1.05Y0.613
X1.05Y0.313
X1.15Y0.613
X1.15Y0.313
X1.25Y0.613
X1.25Y0.313
X1.35Y0.613
X1.35Y0.313
X1.45Y0.613
X1.45Y0.313
X1.55Y0.613
X1.55Y0.313
X1.65Y0.613
X1.65Y0.313
X1.75Y0.613
X1.75Y0.313
T4
X3.55Y1.663
X3.65Y1.663
T5
X0.55Y1.113
X0.55Y1.013
X0.55Y0.913
X1.65Y0.163
X1.75Y0.163
X1.85Y0.163
X1.95Y0.163
X2.05Y0.163
X2.15Y0.163
X2.25Y0.163
X2.35Y0.163
X2.45Y0.163
X2.55Y0.163
X0.65Y1.513
X0.65Y1.413
X0.65Y1.313
X0.55Y1.513
X0.55Y1.413
X0.55Y1.313
X0.45Y1.513
X0.45Y1.413
X0.45Y1.313
X1.75Y1.663
X1.75Y1.063
X1.85Y1.663
X1.85Y1.063
X1.95Y1.663
X1.95Y1.063
X2.05Y1.663
X2.05Y1.063
X2.15Y1.663
X2.15Y1.063
X2.25Y1.663
X2.25Y1.063
X2.35Y1.663
X2.35Y1.063
X2.45Y1.663
X2.45Y1.063
X2.55Y1.663
X2.55Y1.063
X2.65Y1.663
X2.65Y1.063
X2.75Y1.663
X2.75Y1.063
X2.85Y1.663
X2.85Y1.063
X2.95Y1.663
X2.95Y1.063
X3.05Y1.663
X3.05Y1.063
X1.05Y1.413
X1.05Y1.313
X1.15Y1.413
X1.15Y1.313
X0.45Y1.113
X0.45Y1.013
X0.45Y0.913
X0.05Y0.063
X0.15Y0.063
X0.25Y0.063
X0.35Y0.063
X0.45Y0.063
X0.55Y0.063
X0.65Y0.063
X0.75Y0.063
X0.85Y0.063
X0.95Y0.063
X1.05Y0.063
X1.15Y0.063
X1.25Y0.063
X1.35Y0.063
X1.45Y0.063
X1.55Y0.063
X1.65Y0.063
X1.75Y0.063
X1.85Y0.063
X1.95Y0.063
X2.05Y0.063
X2.15Y0.063
X2.25Y0.063
X2.35Y0.063
X2.45Y0.063
X2.55Y0.063
X2.65Y0.063
X2.75Y0.063
X2.85Y0.063
X2.95Y0.063
X3.05Y0.063
X3.15Y0.063
X3.25Y0.063
X3.35Y0.063
X3.45Y0.063
X3.55Y0.063
X3.65Y0.063
X3.75Y0.063
X3.85Y0.063
T0
M30
